<?xml version="1.0" standalone="no"?>
<!DOCTYPE svg PUBLIC "-//W3C//DTD SVG 1.1//EN" "http://www.w3.org/Graphics/SVG/1.1/DTD/svg11.dtd" >
<svg>
<metadata>
Created by FontForge 20090622 at Sat Sep 22 05:50:42 2018
 By deploy user
Copyright &#194;&#169; 2008 - 2011 Linotype GmbH, www.linotype.com. All rights reserved. This font software may not be reproduced, modified, disclosed or transferred without the express written approval of Linotype GmbH.
</metadata>
<defs>
<font id="DINNextLTW23-Medium" horiz-adv-x="549" >
  <font-face 
    font-family="DIN NEXT™ ARABIC MEDIUM"
    font-weight="500"
    font-stretch="normal"
    units-per-em="1000"
    panose-1="2 11 6 3 2 2 3 5 2 3"
    ascent="750"
    descent="-250"
    x-height="482"
    cap-height="680"
    bbox="-183.364 -447 1346 1389"
    underline-thickness="50"
    underline-position="-50"
    unicode-range="U+0020-U+FEFC"
  />
<missing-glyph horiz-adv-x="483" 
d="M0 670q0 10 10 10h463q10 0 10 -10v-660q0 -10 -10 -10h-463q-10 0 -10 10v660zM59 61q0 -6 6 -6h353q6 0 6 6v558q0 6 -6 6h-353q-6 0 -6 -6v-558zM202 237q-10 0 -10 10v24q0 20 4.5 31.5t12.5 23.5l51 70q11 15 16 27t5 26q0 21 -13 35t-35 14q-24 0 -37 -12.5
t-18 -32.5q-2 -11 -11 -9l-52 9q-10 2 -8 11q10 45 42 72t87 27q26 0 48 -9t37.5 -24t24.5 -36t9 -45q0 -42 -26 -74l-50 -71q-6 -8 -9.5 -17.5t-3.5 -23.5v-16q0 -10 -10 -10h-54zM190 183q0 10 10 10h58q10 0 10 -10v-59q0 -10 -10 -10h-58q-10 0 -10 10v59z" />
    <glyph glyph-name="uniFEFB" unicode="&#xfedf;&#xfe8e;" horiz-adv-x="666" arabic-form="isolated" 
d="M336 99h104q25 0 36.5 11.5t11.5 41.5v518q0 10 10 10h93q10 0 10 -10v-544q0 -65 -27 -95.5t-90 -30.5h-439q-10 0 -10 10v79q0 10 10 10h178v430q0 10 10 10h93q10 0 10 -10v-430z" />
    <glyph glyph-name="uniFEFC" unicode="&#xfee0;&#xfe8e;" horiz-adv-x="700" arabic-form="final" 
d="M488 670q0 10 10 10h93q10 0 10 -10v-519q9 -52 82 -52h17q20 0 30 -11t10 -37q0 -29 -9.5 -40t-30.5 -11q-38 0 -66.5 9t-46.5 41q-14 -28 -41.5 -39t-73.5 -11h-427q-10 0 -10 10v79q0 10 10 10h178v430q0 10 10 10h93q10 0 10 -10v-430h104q17 0 26.5 4.5t14.5 15
t6 28t1 42.5v481z" />
    <glyph glyph-name="uniFEF5" unicode="&#xfedf;&#xfe82;" horiz-adv-x="666" arabic-form="isolated" 
d="M100 632q9 36 30.5 54.5t50.5 18.5q22 0 46.5 -8.5t48.5 -18l47.5 -18t44.5 -8.5q16 0 22 7.5t6 26.5q0 10 10 10h37q10 0 10 -10q0 -45 -19.5 -69.5t-57.5 -24.5q-27 0 -52.5 8t-49.5 17l-45.5 17t-38.5 8q-10 0 -19 -5.5t-14 -22.5q-3 -10 -13 -7l-37 12q-9 3 -7 13z
M336 99h104q25 0 36.5 11.5t11.5 41.5v518q0 10 10 10h93q10 0 10 -10v-544q0 -65 -27 -95.5t-90 -30.5h-439q-10 0 -10 10v79q0 10 10 10h178v430q0 10 10 10h93q10 0 10 -10v-430z" />
    <glyph glyph-name="uniFEF6" unicode="&#xfee0;&#xfe82;" horiz-adv-x="700" arabic-form="final" 
d="M100 632q9 36 30.5 54.5t50.5 18.5q22 0 46.5 -8.5t48.5 -18l47.5 -18t44.5 -8.5q16 0 22 7.5t6 26.5q0 10 10 10h37q10 0 10 -10q0 -45 -19.5 -69.5t-57.5 -24.5q-27 0 -52.5 8t-49.5 17l-45.5 17t-38.5 8q-10 0 -19 -5.5t-14 -22.5q-3 -10 -13 -7l-37 12q-9 3 -7 13z
M488 670q0 10 10 10h93q10 0 10 -10v-519q9 -52 82 -52h17q20 0 30 -11t10 -37q0 -29 -9.5 -40t-30.5 -11q-38 0 -66.5 9t-46.5 41q-14 -28 -41.5 -39t-73.5 -11h-427q-10 0 -10 10v79q0 10 10 10h178v430q0 10 10 10h93q10 0 10 -10v-430h104q17 0 26.5 4.5t14.5 15t6 28
t1 42.5v481z" />
    <glyph glyph-name="uniFEF7" unicode="&#xfedf;&#xfe84;" horiz-adv-x="666" arabic-form="isolated" 
d="M208 655q-7 11 -11.5 25.5t-4.5 31.5t5.5 34.5t18.5 32t33 24t49 9.5q28 0 50 -10.5t35 -27.5q3 -6 0 -9l-26 -25q-6 -5 -10 -1q-10 10 -22 16.5t-26 6.5q-23 0 -36 -14.5t-13 -36.5q0 -20 10.5 -34.5t21.5 -21.5h101q6 0 6 -7v-37q0 -7 -6 -7h-212q-6 0 -6 7v37q0 7 6 7
h37zM336 99h104q25 0 36.5 11.5t11.5 41.5v518q0 10 10 10h93q10 0 10 -10v-544q0 -65 -27 -95.5t-90 -30.5h-439q-10 0 -10 10v79q0 10 10 10h178v430q0 10 10 10h93q10 0 10 -10v-430z" />
    <glyph glyph-name="uniFEF8" unicode="&#xfee0;&#xfe84;" horiz-adv-x="700" arabic-form="final" 
d="M208 655q-7 11 -11.5 25.5t-4.5 31.5t5.5 34.5t18.5 32t33 24t49 9.5q28 0 50 -10.5t35 -27.5q3 -6 0 -9l-26 -25q-6 -5 -10 -1q-10 10 -22 16.5t-26 6.5q-23 0 -36 -14.5t-13 -36.5q0 -20 10.5 -34.5t21.5 -21.5h101q6 0 6 -7v-37q0 -7 -6 -7h-212q-6 0 -6 7v37q0 7 6 7
h37zM488 670q0 10 10 10h93q10 0 10 -10v-519q9 -52 82 -52h17q20 0 30 -11t10 -37q0 -29 -9.5 -40t-30.5 -11q-38 0 -66.5 9t-46.5 41q-14 -28 -41.5 -39t-73.5 -11h-427q-10 0 -10 10v79q0 10 10 10h178v430q0 10 10 10h93q10 0 10 -10v-430h104q17 0 26.5 4.5t14.5 15
t6 28t1 42.5v481z" />
    <glyph glyph-name="uniFEF9" unicode="&#xfedf;&#xfe88;" horiz-adv-x="666" arabic-form="isolated" 
d="M208 -227q-7 11 -11.5 26t-4.5 32t5.5 34.5t18.5 32t33 23.5t49 9q28 0 50 -10t35 -27q4 -6 0 -10l-26 -24q-4 -4 -6 -4t-4 2q-21 23 -48 23q-23 0 -36 -14.5t-13 -35.5q0 -20 10.5 -34.5t21.5 -22.5h101q6 0 6 -7v-36q0 -7 -6 -7h-212q-6 0 -6 7v36q0 7 6 7h37zM336 99
h104q25 0 36.5 11.5t11.5 41.5v518q0 10 10 10h93q10 0 10 -10v-544q0 -65 -27 -95.5t-90 -30.5h-439q-10 0 -10 10v79q0 10 10 10h178v430q0 10 10 10h93q10 0 10 -10v-430z" />
    <glyph glyph-name="uniFEFA" unicode="&#xfee0;&#xfe88;" horiz-adv-x="700" arabic-form="final" 
d="M208 -227q-7 11 -11.5 26t-4.5 32t5.5 34.5t18.5 32t33 23.5t49 9q28 0 50 -10t35 -27q4 -6 0 -10l-26 -24q-4 -4 -6 -4t-4 2q-21 23 -48 23q-23 0 -36 -14.5t-13 -35.5q0 -20 10.5 -34.5t21.5 -22.5h101q6 0 6 -7v-36q0 -7 -6 -7h-212q-6 0 -6 7v36q0 7 6 7h37zM488 670
q0 10 10 10h93q10 0 10 -10v-519q9 -52 82 -52h17q20 0 30 -11t10 -37q0 -29 -9.5 -40t-30.5 -11q-38 0 -66.5 9t-46.5 41q-14 -28 -41.5 -39t-73.5 -11h-427q-10 0 -10 10v79q0 10 10 10h178v430q0 10 10 10h93q10 0 10 -10v-430h104q17 0 26.5 4.5t14.5 15t6 28t1 42.5
v481z" />
    <glyph glyph-name="uniFEDF_uniFB51.rlig" unicode="&#xfedf;&#xfb51;" horiz-adv-x="666" 
d="M190 642q10 0 10 11v91q0 7 8 7h33q8 0 8 -7v-10q15 7 32.5 11.5t34.5 4.5q45 0 62.5 -23.5t17.5 -58.5q0 -37 -13 -53t-41 -16h-164q-7 0 -7 7v29q0 7 7 7h12zM309 707q-14 0 -30 -5t-30 -10v-50h76q14 0 18 5.5t4 22.5q0 18 -8.5 27.5t-29.5 9.5zM336 99h104
q25 0 36.5 11.5t11.5 41.5v518q0 10 10 10h93q10 0 10 -10v-544q0 -65 -27 -95.5t-90 -30.5h-439q-10 0 -10 10v79q0 10 10 10h178v430q0 10 10 10h93q10 0 10 -10v-430z" />
    <glyph glyph-name="uniFEE0_uniFB51.rlig" unicode="&#xfee0;&#xfb51;" horiz-adv-x="700" 
d="M190 642q10 0 10 11v91q0 7 8 7h33q8 0 8 -7v-10q15 7 32.5 11.5t34.5 4.5q45 0 62.5 -23.5t17.5 -58.5q0 -37 -13 -53t-41 -16h-164q-7 0 -7 7v29q0 7 7 7h12zM309 707q-14 0 -30 -5t-30 -10v-50h76q14 0 18 5.5t4 22.5q0 18 -8.5 27.5t-29.5 9.5zM488 670q0 10 10 10
h93q10 0 10 -10v-519q9 -52 82 -52h17q20 0 30 -11t10 -37q0 -29 -9.5 -40t-30.5 -11q-38 0 -66.5 9t-46.5 41q-14 -28 -41.5 -39t-73.5 -11h-427q-10 0 -10 10v79q0 10 10 10h178v430q0 10 10 10h93q10 0 10 -10v-430h104q17 0 26.5 4.5t14.5 15t6 28t1 42.5v481z" />
    <glyph glyph-name="afii57409" unicode="&#x621;" horiz-adv-x="405" arabic-form="isolated" 
d="M87 84q-11 17 -17.5 39t-6.5 49q0 28 9.5 57t30 52t52.5 37.5t78 14.5q44 0 79.5 -16.5t55.5 -44.5q4 -6 3 -9t-3 -6l-42 -41q-9 -7 -16 0q-16 15 -34.5 24.5t-41.5 9.5q-36 0 -56 -22t-20 -57q0 -30 14.5 -53t29.5 -34h168q10 0 10 -11v-62q0 -11 -10 -11h-341
q-10 0 -10 11v62q0 11 10 11h58z" />
    <glyph glyph-name="afii57410" unicode="&#x622;" horiz-adv-x="243" arabic-form="isolated" 
d="M178 10q0 -10 -10 -10h-93q-10 0 -10 10v660q0 10 10 10h93q10 0 10 -10v-660zM-60 770q9 36 30.5 54.5t50.5 18.5q22 0 46.5 -8.5t48.5 -18l47.5 -18t44.5 -8.5q16 0 22 7.5t6 26.5q0 10 10 10h37q10 0 10 -10q0 -45 -19.5 -69.5t-57.5 -24.5q-27 0 -52.5 8t-49.5 17
l-45.5 17t-38.5 8q-10 0 -19 -5.5t-14 -22.5q-3 -10 -13 -7l-37 12q-9 3 -7 13z" />
    <glyph glyph-name="uniFE82" unicode="&#x622;" horiz-adv-x="261" arabic-form="final" 
d="M-59 770q9 36 30.5 54.5t50.5 18.5q22 0 46.5 -8.5t48.5 -18l47.5 -18t44.5 -8.5q16 0 22 7.5t6 26.5q0 10 10 10h37q10 0 10 -10q0 -45 -19.5 -69.5t-57.5 -24.5q-27 0 -52.5 8t-49.5 17l-45.5 17t-38.5 8q-10 0 -19 -5.5t-14 -22.5q-3 -10 -13 -7l-37 12q-9 3 -7 13z
M65 670q0 10 10 10h93q10 0 10 -10v-518q0 -30 11.5 -41.5t36.5 -11.5h35q20 0 30 -11.5t10 -39.5q0 -31 -9.5 -39.5t-30.5 -8.5h-79q-63 0 -90 30.5t-27 95.5v544z" />
    <glyph glyph-name="afii57411" unicode="&#x623;" horiz-adv-x="243" arabic-form="isolated" 
d="M178 10q0 -10 -10 -10h-93q-10 0 -10 10v660q0 10 10 10h93q10 0 10 -10v-660zM50 781q-7 11 -11.5 25.5t-4.5 31.5t5.5 34.5t18.5 32t33 24t49 9.5q28 0 50 -10.5t35 -27.5q3 -6 0 -9l-26 -25q-6 -5 -10 -1q-10 10 -22 16.5t-26 6.5q-23 0 -36 -14.5t-13 -36.5
q0 -20 10.5 -34.5t21.5 -21.5h101q6 0 6 -7v-37q0 -7 -6 -7h-212q-6 0 -6 7v37q0 7 6 7h37z" />
    <glyph glyph-name="uniFE84" unicode="&#x623;" horiz-adv-x="261" arabic-form="final" 
d="M65 670q0 10 10 10h93q10 0 10 -10v-518q0 -30 11.5 -41.5t36.5 -11.5h35q20 0 30 -11.5t10 -39.5q0 -31 -9.5 -39.5t-30.5 -8.5h-79q-63 0 -90 30.5t-27 95.5v544zM53 781q-7 11 -11.5 25.5t-4.5 31.5t5.5 34.5t18.5 32t33 24t49 9.5q28 0 50 -10.5t35 -27.5q3 -6 0 -9
l-26 -25q-6 -5 -10 -1q-10 10 -22 16.5t-26 6.5q-23 0 -36 -14.5t-13 -36.5q0 -20 10.5 -34.5t21.5 -21.5h101q6 0 6 -7v-37q0 -7 -6 -7h-212q-6 0 -6 7v37q0 7 6 7h37z" />
    <glyph glyph-name="afii57412" unicode="&#x624;" horiz-adv-x="521" arabic-form="isolated" 
d="M257 0q-47 0 -83.5 10.5t-61.5 35t-38.5 63.5t-13.5 96q0 61 16.5 104.5t45 71t65.5 40t78 12.5q45 0 82.5 -12t64.5 -38t42 -68t15 -103v-234q0 -94 -47 -137t-137 -43h-135q-10 0 -10 10v80q0 10 10 10h117q20 0 37 3.5t29 14.5t18.5 31t6.5 53h-101zM266 333
q-46 0 -71 -34t-25 -91q0 -63 25.5 -86t73.5 -23h89v114q0 59 -22 89.5t-70 30.5zM178 563q-7 10 -11.5 23t-4.5 30q0 16 6 33t19 31.5t34.5 23.5t51.5 9t55 -11.5t37 -28.5q3 -7 -1 -10l-30 -28q-3 -3 -8 2q-10 10 -23 16t-30 6q-24 0 -36.5 -13.5t-12.5 -32.5
q0 -20 10 -32t21 -18h109q6 0 6 -7v-39q0 -7 -6 -7h-220q-6 0 -6 7v39q0 7 6 7h34z" />
    <glyph glyph-name="uniFE86" unicode="&#x624;" horiz-adv-x="528" arabic-form="final" 
d="M140 -202q-10 0 -10 10v80q0 10 10 10h117q23 0 40 4.5t28 15.5t17 31t6 51h-101q-47 0 -83.5 10.5t-61.5 35t-38.5 63.5t-13.5 96q0 61 17 104.5t45 71t65 40t78 12.5q45 0 82.5 -12t64.5 -38t42 -68t15 -103v-113h69q20 0 30 -11t10 -37q0 -32 -9.5 -41.5t-30.5 -9.5
h-69v-22q0 -94 -47 -137t-137 -43h-135zM256 333q-45 0 -70.5 -34t-25.5 -91q0 -63 25.5 -86t73.5 -23h89v114q0 59 -22 89.5t-70 30.5zM181 563q-7 10 -11.5 23t-4.5 30q0 16 6 33t19 31.5t34.5 23.5t51.5 9t55 -11.5t37 -28.5q3 -7 -1 -10l-30 -28q-3 -3 -8 2
q-10 10 -23 16t-30 6q-24 0 -36.5 -13.5t-12.5 -32.5q0 -20 10 -32t21 -18h109q6 0 6 -7v-39q0 -7 -6 -7h-220q-6 0 -6 7v39q0 7 6 7h34z" />
    <glyph glyph-name="afii57413" unicode="&#x625;" horiz-adv-x="243" arabic-form="isolated" 
d="M178 10q0 -10 -10 -10h-93q-10 0 -10 10v660q0 10 10 10h93q10 0 10 -10v-660zM48 -227q-7 11 -11.5 26t-4.5 32t5.5 34.5t18.5 32t33 23.5t49 9q28 0 50 -10t35 -27q4 -6 0 -10l-26 -24q-4 -4 -6 -4t-4 2q-21 23 -48 23q-23 0 -36 -14.5t-13 -35.5q0 -20 10.5 -34.5
t21.5 -22.5h101q6 0 6 -7v-36q0 -7 -6 -7h-212q-6 0 -6 7v36q0 7 6 7h37z" />
    <glyph glyph-name="uniFE88" unicode="&#x625;" horiz-adv-x="261" arabic-form="final" 
d="M65 670q0 10 10 10h93q10 0 10 -10v-518q0 -30 11.5 -41.5t36.5 -11.5h35q20 0 30 -11.5t10 -39.5q0 -31 -9.5 -39.5t-30.5 -8.5h-79q-63 0 -90 30.5t-27 95.5v544zM51 -227q-7 11 -11.5 26t-4.5 32t5.5 34.5t18.5 32t33 23.5t49 9q28 0 50 -10t35 -27q4 -6 0 -10
l-26 -24q-4 -4 -6 -4t-4 2q-21 23 -48 23q-23 0 -36 -14.5t-13 -35.5q0 -20 10.5 -34.5t21.5 -22.5h101q6 0 6 -7v-36q0 -7 -6 -7h-212q-6 0 -6 7v36q0 7 6 7h37z" />
    <glyph glyph-name="afii57414" unicode="&#x626;" horiz-adv-x="792" arabic-form="isolated" 
d="M103 386q-7 10 -11.5 23t-4.5 30q0 16 6 33t19 31.5t34.5 23.5t51.5 9t55 -11.5t37 -28.5q3 -7 -1 -10l-30 -28q-3 -3 -8 2q-10 10 -23 16t-30 6q-24 0 -36.5 -13.5t-12.5 -32.5q0 -20 10 -32t21 -18h109q6 0 6 -7v-39q0 -7 -6 -7h-220q-6 0 -6 7v39q0 7 6 7h34zM148 31
q0 -38 14 -63.5t36 -40.5t50 -21t57 -6h199q58 0 79.5 15.5t21.5 38.5q0 15 -16.5 30t-42 31.5l-54.5 35.5t-54.5 43.5t-42 55t-16.5 70.5q0 36 14 67.5t39.5 55t61.5 37t81 13.5q69 0 110.5 -21.5t70.5 -56.5q6 -7 -3 -14l-54 -53q-8 -6 -14 1q-21 21 -45 32.5t-59 11.5
q-34 0 -60.5 -18.5t-26.5 -54.5q0 -24 17 -44t42.5 -39t55 -39t55 -42.5t42.5 -49t17 -60.5q0 -30 -11 -57t-35 -47.5t-62 -32t-91 -11.5h-233q-130 0 -193.5 60t-63.5 163q0 54 17 108t42 93q5 9 15 2l81 -32q5 -2 5.5 -5.5t-1.5 -7.5q-16 -28 -30.5 -65.5t-14.5 -82.5z
" />
    <glyph glyph-name="uniFE8B" unicode="&#x626;" horiz-adv-x="287" arabic-form="initial" 
d="M78 563q-7 10 -11.5 23t-4.5 30q0 16 6 33t19 31.5t34.5 23.5t51.5 9t55 -11.5t37 -28.5q3 -7 -1 -10l-30 -28q-3 -3 -8 2q-10 10 -23 16t-30 6q-24 0 -36.5 -13.5t-12.5 -32.5q0 -20 10 -32t21 -18h109q6 0 6 -7v-39q0 -7 -6 -7h-220q-6 0 -6 7v39q0 7 6 7h34zM5 0
q-20 0 -30 7t-10 28q0 25 9.5 44.5t30.5 19.5h49q25 0 36.5 11.5t11.5 41.5v253q0 10 10 10h93q10 0 10 -10v-279q0 -65 -27 -95.5t-90 -30.5h-93z" />
    <glyph glyph-name="uniFE8C" unicode="&#x626;" horiz-adv-x="310" arabic-form="medial" 
d="M80 563q-7 10 -11.5 23t-4.5 30q0 16 6 33t19 31.5t34.5 23.5t51.5 9t55 -11.5t37 -28.5q3 -7 -1 -10l-30 -28q-3 -3 -8 2q-10 10 -23 16t-30 6q-24 0 -36.5 -13.5t-12.5 -32.5q0 -20 10 -32t21 -18h109q6 0 6 -7v-39q0 -7 -6 -7h-220q-6 0 -6 7v39q0 7 6 7h34zM215 161
q0 -30 22.5 -46t60.5 -16h17q20 0 30 -11t10 -37q0 -29 -9.5 -40t-30.5 -11q-39 0 -68 9.5t-46 41.5q-14 -29 -41.5 -40t-75.5 -11h-79q-20 0 -30 6.5t-10 28.5q0 25 9.5 44.5t31.5 19.5h48q17 0 27 5t14.5 16t5.5 29t1 44v212q0 10 10 10h93q10 0 10 -10v-244z" />
    <glyph glyph-name="uniFE8A" unicode="&#x626;" horiz-adv-x="773" arabic-form="final" 
d="M109 386q-7 10 -11.5 23t-4.5 30q0 16 6 33t19 31.5t34.5 23.5t51.5 9t55 -11.5t37 -28.5q3 -7 -1 -10l-30 -28q-3 -3 -8 2q-10 10 -23 16t-30 6q-24 0 -36.5 -13.5t-12.5 -32.5q0 -20 10 -32t21 -18h109q6 0 6 -7v-39q0 -7 -6 -7h-220q-6 0 -6 7v39q0 7 6 7h34z
M505 -100q60 0 82 15t22 38q0 19 -11.5 32.5t-36 26t-62 26l-88.5 32.5q-9 3 -6 12l27 79q3 10 12 7q32 -12 61 -24.5t57 -22t55 -16t56 -6.5h100q20 0 30 -10t10 -36q0 -29 -9.5 -41t-30.5 -12h-69q5 -8 11.5 -25.5t6.5 -37.5q0 -28 -11 -53t-34.5 -44t-61 -30.5
t-91.5 -11.5h-228q-130 0 -193.5 60t-63.5 163q0 28 5.5 56.5t14.5 55t20.5 50t24.5 41.5q5 8 14 2l79 -41q8 -5 3 -13q-17 -28 -31.5 -65t-14.5 -76q0 -38 13.5 -63t35.5 -40t50 -21.5t57 -6.5h195z" />
    <glyph glyph-name="afii57415" unicode="&#x627;" horiz-adv-x="243" arabic-form="isolated" 
d="M178 10q0 -10 -10 -10h-93q-10 0 -10 10v660q0 10 10 10h93q10 0 10 -10v-660z" />
    <glyph glyph-name="uniFE8E" unicode="&#x627;" horiz-adv-x="261" arabic-form="final" 
d="M65 670q0 10 10 10h93q10 0 10 -10v-518q0 -30 11.5 -41.5t36.5 -11.5h35q20 0 30 -11.5t10 -39.5q0 -31 -9.5 -39.5t-30.5 -8.5h-79q-63 0 -90 30.5t-27 95.5v544z" />
    <glyph glyph-name="afii57416" unicode="&#x628;" horiz-adv-x="839" arabic-form="isolated" 
d="M627 99q26 0 37.5 11.5t11.5 41.5v253q0 10 10 10h92q10 0 10 -10v-279q0 -65 -27 -95.5t-92 -30.5h-499q-63 0 -90 30.5t-27 95.5v215q0 10 10 10h92q10 0 10 -10v-189q0 -30 11.5 -41.5t36.5 -11.5h414v0zM371 -192q-10 0 -10 10v86q0 10 10 10h96q10 0 10 -10v-86
q0 -10 -10 -10h-96z" />
    <glyph glyph-name="uniFE91" unicode="&#x628;" horiz-adv-x="275" arabic-form="initial" 
d="M88 -190q-10 0 -10 10v86q0 10 10 10h96q10 0 10 -10v-86q0 -10 -10 -10h-96zM0 0q-20 0 -30 7t-10 28q0 25 9.5 44.5t30.5 19.5h49q25 0 36.5 11.5t11.5 41.5v253q0 10 10 10h93q10 0 10 -10v-279q0 -65 -27 -95.5t-90 -30.5h-93z" />
    <glyph glyph-name="uniFE92" unicode="&#x628;" horiz-adv-x="310" arabic-form="medial" 
d="M111 -190q-10 0 -10 10v86q0 10 10 10h96q10 0 10 -10v-86q0 -10 -10 -10h-96zM215 161q0 -30 22.5 -46t60.5 -16h17q20 0 30 -11t10 -37q0 -29 -9.5 -40t-30.5 -11q-39 0 -68 9.5t-46 41.5q-14 -29 -41.5 -40t-75.5 -11h-79q-20 0 -30 6.5t-10 28.5q0 25 9.5 44.5
t31.5 19.5h48q17 0 27 5t14.5 16t5.5 29t1 44v212q0 10 10 10h93q10 0 10 -10v-244z" />
    <glyph glyph-name="uniFE90" unicode="&#x628;" horiz-adv-x="883" arabic-form="final" 
d="M788 158q2 -29 24 -44t59 -15h17q20 0 30 -11t10 -37q0 -29 -9.5 -40t-30.5 -11q-38 0 -67 9.5t-46 41.5q-14 -28 -41.5 -39.5t-74.5 -11.5h-489q-63 0 -90 30.5t-27 95.5v215q0 10 10 10h92q10 0 10 -10v-189q0 -30 11.5 -41.5t36.5 -11.5h414q17 0 26.5 4.5t14.5 14.5
t6.5 27t1.5 41v219q0 10 10 10h92q10 0 10 -10v-247zM371 -192q-10 0 -10 10v86q0 10 10 10h96q10 0 10 -10v-86q0 -10 -10 -10h-96z" />
    <glyph glyph-name="afii57417" unicode="&#x629;" horiz-adv-x="507" arabic-form="isolated" 
d="M250 -7q-46 0 -84 12t-65 38t-42 67t-15 100q0 61 15.5 104t43 69t65.5 38t82 12t82 -12t65.5 -38t43 -69t15.5 -104q0 -59 -15 -100t-42.5 -67t-65.5 -38t-83 -12zM250 333q-49 0 -72 -31t-23 -90q0 -64 23.5 -92t71.5 -28t71 28.5t23 91.5q0 121 -94 121zM275 515
q-10 0 -10 10v86q0 10 10 10h84q10 0 10 -10v-86q0 -10 -10 -10h-84zM145 515q-10 0 -10 10v86q0 10 10 10h84q10 0 10 -10v-86q0 -10 -10 -10h-84z" />
    <glyph glyph-name="uniFE94" unicode="&#x629;" horiz-adv-x="546" arabic-form="final" 
d="M275 555q-10 0 -10 10v86q0 10 10 10h84q10 0 10 -10v-86q0 -10 -10 -10h-84zM145 555q-10 0 -10 10v86q0 10 10 10h84q10 0 10 -10v-86q0 -10 -10 -10h-84zM336 433v43q0 10 10 10h92q10 0 10 -10v-324q0 -30 11.5 -41.5t36.5 -11.5h38q40 0 40 -50q0 -30 -9.5 -39.5
t-30.5 -9.5h-81q-49 0 -76.5 17t-36.5 60q-21 -18 -50 -27t-61 -9q-39 0 -73.5 11t-60 34t-40.5 58.5t-15 85.5q0 58 16.5 97t44 62.5t62.5 33.5t73 10h100zM242 140q48 0 71 27.5t23 80.5v85h-89q-43 0 -69 -22t-26 -81q0 -46 24 -68t66 -22z" />
    <glyph glyph-name="afii57418" unicode="&#x62a;" horiz-adv-x="839" arabic-form="isolated" 
d="M627 99q26 0 37.5 11.5t11.5 41.5v253q0 10 10 10h92q10 0 10 -10v-279q0 -65 -27 -95.5t-92 -30.5h-499q-63 0 -90 30.5t-27 95.5v215q0 10 10 10h92q10 0 10 -10v-189q0 -30 11.5 -41.5t36.5 -11.5h414v0zM447 456q-10 0 -10 10v86q0 10 10 10h84q10 0 10 -10v-86
q0 -10 -10 -10h-84zM317 456q-10 0 -10 10v86q0 10 10 10h84q10 0 10 -10v-86q0 -10 -10 -10h-84z" />
    <glyph glyph-name="uniFE97" unicode="&#x62a;" horiz-adv-x="297" arabic-form="initial" 
d="M192 515q-10 0 -10 10v86q0 10 10 10h84q10 0 10 -10v-86q0 -10 -10 -10h-84zM62 515q-10 0 -10 10v86q0 10 10 10h84q10 0 10 -10v-86q0 -10 -10 -10h-84zM0 0q-20 0 -30 9.5t-10 36.5q0 29 9.5 41t30.5 12h65q25 0 36.5 11.5t11.5 41.5v253q0 10 10 10h93q10 0 10 -10
v-279q0 -65 -27 -95.5t-90 -30.5h-109z" />
    <glyph glyph-name="uniFE98" unicode="&#x62a;" horiz-adv-x="331" arabic-form="medial" 
d="M198 515q-10 0 -10 10v86q0 10 10 10h84q10 0 10 -10v-86q0 -10 -10 -10h-84zM68 515q-10 0 -10 10v86q0 10 10 10h84q10 0 10 -10v-86q0 -10 -10 -10h-84zM217 51q-14 -29 -42.5 -40t-76.5 -11h-93q-20 0 -30 9.5t-10 37.5q0 29 9.5 40.5t30.5 11.5h65q18 0 27.5 5.5
t14 17t5.5 30t1 45.5v208q0 6 5.5 8t11.5 2h86q10 0 10 -10v-244q0 -30 22.5 -46t60.5 -16h17q20 0 30 -11t10 -37q0 -29 -9.5 -40t-30.5 -11q-39 0 -68 9.5t-46 41.5z" />
    <glyph glyph-name="uniFE96" unicode="&#x62a;" horiz-adv-x="883" arabic-form="final" 
d="M447 456q-10 0 -10 10v86q0 10 10 10h84q10 0 10 -10v-86q0 -10 -10 -10h-84zM317 456q-10 0 -10 10v86q0 10 10 10h84q10 0 10 -10v-86q0 -10 -10 -10h-84zM788 158q2 -29 24 -44t59 -15h17q20 0 30 -11t10 -37q0 -29 -9.5 -40t-30.5 -11q-38 0 -67 9.5t-46 41.5
q-14 -28 -41.5 -39.5t-74.5 -11.5h-489q-63 0 -90 30.5t-27 95.5v215q0 10 10 10h92q10 0 10 -10v-189q0 -30 11.5 -41.5t36.5 -11.5h414q17 0 26.5 4.5t14.5 14.5t6.5 27t1.5 41v219q0 10 10 10h92q10 0 10 -10v-247z" />
    <glyph glyph-name="afii57419" unicode="&#x62b;" horiz-adv-x="839" arabic-form="isolated" 
d="M627 99q26 0 37.5 11.5t11.5 41.5v253q0 10 10 10h92q10 0 10 -10v-279q0 -65 -27 -95.5t-92 -30.5h-499q-63 0 -90 30.5t-27 95.5v215q0 10 10 10h92q10 0 10 -10v-189q0 -30 11.5 -41.5t36.5 -11.5h414v0zM448 456q-10 0 -10 10v86q0 10 10 10h84q10 0 10 -10v-86
q0 -10 -10 -10h-84zM318 456q-10 0 -10 10v86q0 10 10 10h84q10 0 10 -10v-86q0 -10 -10 -10h-84zM382 585q-10 0 -10 10v86q0 10 10 10h84q10 0 10 -10v-86q0 -10 -10 -10h-84z" />
    <glyph glyph-name="uniFE9B" unicode="&#x62b;" horiz-adv-x="297" arabic-form="initial" 
d="M0 0q-20 0 -30 9.5t-10 36.5q0 29 9.5 41t30.5 12h65q25 0 36.5 11.5t11.5 41.5v253q0 10 10 10h93q10 0 10 -10v-279q0 -65 -27 -95.5t-90 -30.5h-109zM191 515q-10 0 -10 10v86q0 10 10 10h84q10 0 10 -10v-86q0 -10 -10 -10h-84zM61 515q-10 0 -10 10v86q0 10 10 10
h84q10 0 10 -10v-86q0 -10 -10 -10h-84zM125 644q-10 0 -10 10v86q0 10 10 10h84q10 0 10 -10v-86q0 -10 -10 -10h-84z" />
    <glyph glyph-name="uniFE9C" unicode="&#x62b;" horiz-adv-x="331" arabic-form="medial" 
d="M199 515q-10 0 -10 10v86q0 10 10 10h84q10 0 10 -10v-86q0 -10 -10 -10h-84zM69 515q-10 0 -10 10v86q0 10 10 10h84q10 0 10 -10v-86q0 -10 -10 -10h-84zM133 644q-10 0 -10 10v86q0 10 10 10h84q10 0 10 -10v-86q0 -10 -10 -10h-84zM217 51q-14 -29 -42.5 -40
t-76.5 -11h-93q-20 0 -30 9.5t-10 37.5q0 29 9.5 40.5t30.5 11.5h65q18 0 27.5 5.5t14 17t5.5 30t1 45.5v208q0 6 5.5 8t11.5 2h86q10 0 10 -10v-244q0 -30 22.5 -46t60.5 -16h17q20 0 30 -11t10 -37q0 -29 -9.5 -40t-30.5 -11q-39 0 -68 9.5t-46 41.5z" />
    <glyph glyph-name="uniFE9A" unicode="&#x62b;" horiz-adv-x="883" arabic-form="final" 
d="M788 158q2 -29 24 -44t59 -15h17q20 0 30 -11t10 -37q0 -29 -9.5 -40t-30.5 -11q-38 0 -67 9.5t-46 41.5q-14 -28 -41.5 -39.5t-74.5 -11.5h-489q-63 0 -90 30.5t-27 95.5v215q0 10 10 10h92q10 0 10 -10v-189q0 -30 11.5 -41.5t36.5 -11.5h414q17 0 26.5 4.5t14.5 14.5
t6.5 27t1.5 41v219q0 10 10 10h92q10 0 10 -10v-247zM448 456q-10 0 -10 10v86q0 10 10 10h84q10 0 10 -10v-86q0 -10 -10 -10h-84zM318 456q-10 0 -10 10v86q0 10 10 10h84q10 0 10 -10v-86q0 -10 -10 -10h-84zM382 585q-10 0 -10 10v86q0 10 10 10h84q10 0 10 -10v-86
q0 -10 -10 -10h-84z" />
    <glyph glyph-name="afii57420" unicode="&#x62c;" horiz-adv-x="572" arabic-form="isolated" 
d="M195 0q-29 0 -41 -14.5t-12 -36.5q0 -27 15 -39t60 -12h27q10 0 10 -10v-80q0 -10 -10 -10h-39q-84 0 -131 34t-47 117q0 44 13.5 73t35.5 46t50 24t56 7h139q26 0 42 4t25 14t12 26.5t3 40.5q0 32 -6 59.5t-20 47.5t-36.5 31t-56.5 11q-32 0 -59 -13t-49 -35
q-7 -7 -14 -1l-51 54q-9 7 -3 14q32 35 74.5 58t104.5 23q67 0 112 -20.5t72 -55t38.5 -80t11.5 -96.5q0 -54 -10 -89t-29.5 -55.5t-48.5 -28.5t-68 -8h-170zM292 -171q-10 0 -10 10v86q0 10 10 10h96q10 0 10 -10v-86q0 -10 -10 -10h-96z" />
    <glyph glyph-name="uniFE9F" unicode="&#x62c;" horiz-adv-x="517" arabic-form="initial" 
d="M0 0q-20 0 -30 11.5t-10 38.5q0 29 9.5 39t30.5 10h266q26 0 42 4t25 14t12 26.5t3 40.5q0 32 -6 59.5t-20 47.5t-36.5 31t-56.5 11q-33 0 -60 -13t-48 -35q-7 -7 -14 -1l-52 54q-8 8 -2 14q31 35 74 58t105 23q67 0 112 -20.5t72 -55t38.5 -80t11.5 -96.5q0 -54 -10 -89
t-29.5 -55.5t-49 -28.5t-68.5 -8h-309zM199 -190q-10 0 -10 10v86q0 10 10 10h96q10 0 10 -10v-86q0 -10 -10 -10h-96z" />
    <glyph glyph-name="uniFEA0" unicode="&#x62c;" horiz-adv-x="565" arabic-form="medial" 
d="M53 352q31 35 74 58t105 23q67 0 112 -20.5t72 -55t38.5 -80t11.5 -96.5q0 -7 -0.5 -13t-0.5 -12q3 -27 24.5 -42t58.5 -15h17q20 0 30 -11t10 -37q0 -29 -9.5 -40t-30.5 -11q-42 0 -73.5 11t-48.5 48q-19 -34 -52.5 -46.5t-81.5 -12.5h-309q-20 0 -30 11.5t-10 38.5
q0 29 9.5 39t30.5 10h266q26 0 42 4t25 14t12 26.5t3 40.5q0 32 -6 59t-20 47t-36.5 31.5t-56.5 11.5q-33 0 -60 -13t-48 -35q-7 -7 -14 -1l-52 54q-8 8 -2 14zM198 -190q-10 0 -10 10v86q0 10 10 10h96q10 0 10 -10v-86q0 -10 -10 -10h-96z" />
    <glyph glyph-name="uniFE9E" unicode="&#x62c;" horiz-adv-x="618" arabic-form="final" 
d="M195 0q-29 0 -41 -14.5t-12 -36.5q0 -27 15 -39t60 -12h27q10 0 10 -10v-80q0 -10 -10 -10h-39q-84 0 -131 34t-47 117q0 44 13.5 73t35.5 46t50 24t56 7h142q26 0 42 4t25 14t12 26.5t3 40.5q0 32 -5.5 59.5t-19 47.5t-36 31t-56.5 11q-32 0 -59 -13t-49 -35
q-7 -7 -14 -1l-51 54q-9 7 -3 14q32 35 74.5 58t104.5 23q67 0 111.5 -20.5t71.5 -55t38 -80t11 -96.5q0 -7 -0.5 -13t-0.5 -12q3 -27 24.5 -42t58.5 -15h17q20 0 30 -11t10 -37q0 -29 -9.5 -40t-30.5 -11q-42 0 -73.5 11t-48.5 48q-19 -34 -52.5 -46.5t-81.5 -12.5h-172z
M292 -171q-10 0 -10 10v86q0 10 10 10h96q10 0 10 -10v-86q0 -10 -10 -10h-96z" />
    <glyph glyph-name="afii57421" unicode="&#x62d;" horiz-adv-x="572" arabic-form="isolated" 
d="M195 0q-29 0 -41 -14.5t-12 -36.5q0 -27 15 -39t60 -12h92q10 0 10 -10v-80q0 -10 -10 -10h-104q-84 0 -131 34t-47 117q0 44 13.5 73t35.5 46t50 24t56 7h139q26 0 42 4t25 14t12 26.5t3 40.5q0 32 -6 59.5t-20 47.5t-36.5 31t-56.5 11q-32 0 -59 -13t-49 -35
q-7 -7 -14 -1l-51 54q-9 7 -3 14q32 35 74.5 58t104.5 23q67 0 112 -20.5t72 -55t38.5 -80t11.5 -96.5q0 -54 -10 -89t-29.5 -55.5t-48.5 -28.5t-68 -8h-170z" />
    <glyph glyph-name="uniFEA3" unicode="&#x62d;" horiz-adv-x="517" arabic-form="initial" 
d="M0 0q-20 0 -30 11.5t-10 38.5q0 29 9.5 39t30.5 10h266q26 0 42 4t25 14t12 26.5t3 40.5q0 32 -6 59.5t-20 47.5t-36.5 31t-56.5 11q-33 0 -60 -13t-48 -35q-7 -7 -14 -1l-52 54q-8 8 -2 14q31 35 74 58t105 23q67 0 112 -20.5t72 -55t38.5 -80t11.5 -96.5q0 -54 -10 -89
t-29.5 -55.5t-49 -28.5t-68.5 -8h-309z" />
    <glyph glyph-name="uniFEA4" unicode="&#x62d;" horiz-adv-x="565" arabic-form="medial" 
d="M53 352q31 35 74 58t105 23q67 0 112 -20.5t72 -55t38.5 -80t11.5 -96.5q0 -7 -0.5 -13t-0.5 -12q3 -27 24.5 -42t58.5 -15h17q20 0 30 -11t10 -37q0 -29 -9.5 -40t-30.5 -11q-42 0 -73.5 11t-48.5 48q-19 -34 -52.5 -46.5t-81.5 -12.5h-309q-20 0 -30 11.5t-10 38.5
q0 29 9.5 39t30.5 10h266q26 0 42 4t25 14t12 26.5t3 40.5q0 32 -6 59t-20 47t-36.5 31.5t-56.5 11.5q-33 0 -60 -13t-48 -35q-7 -7 -14 -1l-52 54q-8 8 -2 14z" />
    <glyph glyph-name="uniFEA2" unicode="&#x62d;" horiz-adv-x="618" arabic-form="final" 
d="M319 99q26 0 42 4t25 14t12 26.5t3 40.5q0 32 -5.5 59.5t-19 47.5t-36 31t-56.5 11q-32 0 -59 -13t-49 -35q-7 -7 -14 -1l-51 54q-9 7 -3 14q32 35 74.5 58t104.5 23q67 0 111.5 -20.5t71.5 -55t38 -80t11 -96.5q0 -7 -0.5 -13t-0.5 -12q3 -27 24.5 -42t58.5 -15h17
q20 0 30 -11t10 -37q0 -29 -9.5 -40t-30.5 -11q-42 0 -73.5 11t-48.5 48q-19 -34 -52.5 -46.5t-81.5 -12.5h-167q-29 0 -41 -14.5t-12 -36.5q0 -27 15 -39t60 -12h92q10 0 10 -10v-80q0 -10 -10 -10h-104q-84 0 -131 34t-47 117q0 44 13.5 73t35.5 46t50 24t56 7h137z" />
    <glyph glyph-name="afii57422" unicode="&#x62e;" horiz-adv-x="572" arabic-form="isolated" 
d="M195 0q-29 0 -41 -14.5t-12 -36.5q0 -27 15 -39t60 -12h92q10 0 10 -10v-80q0 -10 -10 -10h-104q-84 0 -131 34t-47 117q0 44 13.5 73t35.5 46t50 24t56 7h139q26 0 42 4t25 14t12 26.5t3 40.5q0 32 -6 59.5t-20 47.5t-36.5 31t-56.5 11q-32 0 -59 -13t-49 -35
q-7 -7 -14 -1l-51 54q-9 7 -3 14q32 35 74.5 58t104.5 23q67 0 112 -20.5t72 -55t38.5 -80t11.5 -96.5q0 -54 -10 -89t-29.5 -55.5t-48.5 -28.5t-68 -8h-170zM248 515q-10 0 -10 10v86q0 10 10 10h96q10 0 10 -10v-86q0 -10 -10 -10h-96z" />
    <glyph glyph-name="uniFEA7" unicode="&#x62e;" horiz-adv-x="517" arabic-form="initial" 
d="M193 515q-10 0 -10 10v86q0 10 10 10h96q10 0 10 -10v-86q0 -10 -10 -10h-96zM0 0q-20 0 -30 11.5t-10 38.5q0 29 9.5 39t30.5 10h266q26 0 42 4t25 14t12 26.5t3 40.5q0 32 -6 59.5t-20 47.5t-36.5 31t-56.5 11q-33 0 -60 -13t-48 -35q-7 -7 -14 -1l-52 54q-8 8 -2 14
q31 35 74 58t105 23q67 0 112 -20.5t72 -55t38.5 -80t11.5 -96.5q0 -54 -10 -89t-29.5 -55.5t-49 -28.5t-68.5 -8h-309z" />
    <glyph glyph-name="uniFEA8" unicode="&#x62e;" horiz-adv-x="565" arabic-form="medial" 
d="M193 515q-10 0 -10 10v86q0 10 10 10h96q10 0 10 -10v-86q0 -10 -10 -10h-96zM53 352q31 35 74 58t105 23q67 0 112 -20.5t72 -55t38.5 -80t11.5 -96.5q0 -7 -0.5 -13t-0.5 -12q3 -27 24.5 -42t58.5 -15h17q20 0 30 -11t10 -37q0 -29 -9.5 -40t-30.5 -11q-42 0 -73.5 11
t-48.5 48q-19 -34 -52.5 -46.5t-81.5 -12.5h-309q-20 0 -30 11.5t-10 38.5q0 29 9.5 39t30.5 10h266q26 0 42 4t25 14t12 26.5t3 40.5q0 32 -6 59t-20 47t-36.5 31.5t-56.5 11.5q-33 0 -60 -13t-48 -35q-7 -7 -14 -1l-52 54q-8 8 -2 14z" />
    <glyph glyph-name="uniFEA6" unicode="&#x62e;" horiz-adv-x="618" arabic-form="final" 
d="M251 515q-10 0 -10 10v86q0 10 10 10h96q10 0 10 -10v-86q0 -10 -10 -10h-96zM324 99q26 0 42 4t25 14t12 26.5t3 40.5q0 32 -5.5 59.5t-19 47.5t-36 31t-56.5 11q-32 0 -59 -13t-49 -35q-7 -7 -14 -1l-51 54q-9 7 -3 14q32 35 74.5 58t104.5 23q67 0 111.5 -20.5
t71.5 -55t38 -80t11 -96.5q0 -7 -0.5 -13t-0.5 -12q3 -27 24.5 -42t58.5 -15h17q20 0 30 -11t10 -37q0 -29 -9.5 -40t-30.5 -11q-42 0 -73.5 11t-48.5 48q-19 -34 -52.5 -46.5t-81.5 -12.5h-167q-29 0 -41 -14.5t-12 -36.5q0 -27 15 -39t60 -12h92q10 0 10 -10v-80
q0 -10 -10 -10h-104q-84 0 -131 34t-47 117q0 44 13.5 73t35.5 46t50 24t56 7h137z" />
    <glyph glyph-name="afii57423" unicode="&#x62f;" horiz-adv-x="492" arabic-form="isolated" 
d="M440 171q0 -50 -9 -82.5t-27 -52.5t-46 -28t-66 -8h-232q-10 0 -10 10v79q0 10 10 10h186q27 0 43 4t24.5 13.5t11 24.5t2.5 37v67q0 88 -102 88h-120q-10 0 -10 10v80q0 10 10 10h160q80 0 127.5 -43.5t47.5 -135.5v-83z" />
    <glyph glyph-name="uniFEAA" unicode="&#x62f;" horiz-adv-x="539" arabic-form="final" 
d="M105 333q-10 0 -10 10v80q0 10 10 10h152q84 0 133.5 -42t49.5 -137v-94q0 -29 22 -45t60 -16h17q20 0 30 -11t10 -37q0 -29 -9.5 -40t-30.5 -11q-42 0 -72.5 11t-47.5 46q-19 -34 -51.5 -45.5t-83.5 -11.5h-224q-10 0 -10 10v79q0 10 10 10h186q27 0 43 4t24.5 13.5
t11 24.5t2.5 37v67q0 46 -25.5 67t-76.5 21h-120z" />
    <glyph glyph-name="afii57424" unicode="&#x630;" horiz-adv-x="492" arabic-form="isolated" 
d="M440 171q0 -50 -9 -82.5t-27 -52.5t-46 -28t-66 -8h-232q-10 0 -10 10v79q0 10 10 10h186q27 0 43 4t24.5 13.5t11 24.5t2.5 37v67q0 88 -102 88h-120q-10 0 -10 10v80q0 10 10 10h160q80 0 127.5 -43.5t47.5 -135.5v-83zM172 515q-10 0 -10 10v86q0 10 10 10h96
q10 0 10 -10v-86q0 -10 -10 -10h-96z" />
    <glyph glyph-name="uniFEAC" unicode="&#x630;" horiz-adv-x="539" arabic-form="final" 
d="M165 515q-10 0 -10 10v86q0 10 10 10h96q10 0 10 -10v-86q0 -10 -10 -10h-96zM110 333q-10 0 -10 10v80q0 10 10 10h152q84 0 133.5 -42t49.5 -137v-94q0 -29 22 -45t60 -16h17q20 0 30 -11t10 -37q0 -29 -9.5 -40t-30.5 -11q-42 0 -72.5 11t-47.5 46
q-19 -34 -51.5 -45.5t-83.5 -11.5h-224q-10 0 -10 10v79q0 10 10 10h186q27 0 43 4t24.5 13.5t11 24.5t2.5 37v67q0 46 -25.5 67t-76.5 21h-120z" />
    <glyph glyph-name="afii57425" unicode="&#x631;" horiz-adv-x="286" arabic-form="isolated" 
d="M11 -202q-10 0 -10 10v80q0 10 10 10h22q42 0 60.5 21t18.5 64v422q0 10 10 10h93q10 0 10 -10v-424q0 -183 -177 -183h-37z" />
    <glyph glyph-name="uniFEAE" unicode="&#x631;" horiz-adv-x="325" arabic-form="final" 
d="M112 405q0 10 10 10h93q10 0 10 -10v-244q0 -30 22.5 -46t60.5 -16h17q20 0 30 -11t10 -37q0 -29 -9.5 -40t-30.5 -11q-34 0 -58.5 6t-41.5 27v-19q0 -54 -9 -94.5t-29.5 -67.5t-54.5 -40.5t-84 -13.5h-37q-10 0 -10 10v80q0 10 10 10h22q29 0 45 10t23.5 29.5t9 47
t1.5 63.5v357z" />
    <glyph glyph-name="afii57426" unicode="&#x632;" horiz-adv-x="286" arabic-form="isolated" 
d="M11 -202q-10 0 -10 10v80q0 10 10 10h22q42 0 60.5 21t18.5 64v422q0 10 10 10h93q10 0 10 -10v-424q0 -183 -177 -183h-37zM121 515q-10 0 -10 10v86q0 10 10 10h96q10 0 10 -10v-86q0 -10 -10 -10h-96z" />
    <glyph glyph-name="uniFEB0" unicode="&#x632;" horiz-adv-x="325" arabic-form="final" 
d="M121 515q-10 0 -10 10v86q0 10 10 10h96q10 0 10 -10v-86q0 -10 -10 -10h-96zM112 405q0 10 10 10h93q10 0 10 -10v-244q0 -30 22.5 -46t60.5 -16h17q20 0 30 -11t10 -37q0 -29 -9.5 -40t-30.5 -11q-34 0 -58.5 6t-41.5 27v-19q0 -54 -9 -94.5t-29.5 -67.5t-54.5 -40.5
t-84 -13.5h-37q-10 0 -10 10v80q0 10 10 10h22q29 0 45 10t23.5 29.5t9 47t1.5 63.5v357z" />
    <glyph glyph-name="afii57427" unicode="&#x633;" horiz-adv-x="1096" arabic-form="isolated" 
d="M529 158q0 -36 23.5 -47.5t55.5 -11.5q21 0 33.5 4.5t18.5 14t7.5 24.5t1.5 37v147q0 10 10 10h93q10 0 10 -10v-167q0 -18 7 -30t18 -18.5t26 -9t32 -2.5q21 0 32.5 4.5t16.5 14.5t6 25.5t1 37.5v224q0 10 10 10h93q10 0 10 -10v-279q0 -65 -27 -95.5t-90 -30.5h-51
q-35 0 -59.5 13.5t-37.5 38.5q-14 -29 -40.5 -40.5t-71.5 -11.5h-44q-56 0 -84 34v-13q0 -57 -17.5 -100t-50 -71.5t-77.5 -42.5t-100 -14q-53 0 -97.5 14t-77.5 42.5t-51.5 71.5t-18.5 101q0 54 17 108t42 93q5 9 15 2l81 -32q5 -2 5.5 -5.5t-1.5 -7.5q-16 -28 -30.5 -65.5
t-14.5 -82.5q0 -39 12.5 -65.5t32 -42.5t43.5 -22.5t47 -6.5q57 0 92.5 30.5t35.5 98.5v302q0 10 10 10h93q10 0 10 -10v-168z" />
    <glyph glyph-name="uniFEB3" unicode="&#x633;" horiz-adv-x="806" arabic-form="initial" 
d="M240 161q0 -62 72 -62q22 0 35 2.5t20.5 10t10 22.5t2.5 41v151q0 10 10 10h93q10 0 10 -10v-164q0 -32 19 -47.5t51 -15.5q24 0 38 3.5t20.5 14t8.5 29.5t2 51v208q0 10 10 10h93q10 0 10 -10v-279q0 -69 -28.5 -97.5t-96.5 -28.5h-43q-35 0 -59.5 13.5t-37.5 38.5
q-14 -29 -40.5 -40.5t-71.5 -11.5h-44q-71 0 -97 53q-14 -29 -40.5 -41t-72.5 -12h-114q-20 0 -30 9.5t-10 35.5q0 30 9.5 42t30.5 12h80q31 0 39 16.5t8 59.5v151q0 10 10 10h93q10 0 10 -10v-165z" />
    <glyph glyph-name="uniFEB4" unicode="&#x633;" horiz-adv-x="845" arabic-form="medial" 
d="M240 161q0 -32 16.5 -47t52.5 -15q25 0 39.5 3.5t21.5 14.5t8.5 30t1.5 51v128q0 10 10 10h93q10 0 10 -10v-167q0 -31 19 -45.5t50 -14.5q23 0 37 3.5t21.5 14t9.5 30t2 50.5v208q0 10 10 10h93q10 0 10 -10v-244q0 -30 22.5 -46t60.5 -16h17q20 0 30 -11t10 -37
q0 -29 -10 -40t-30 -11q-39 0 -67.5 9.5t-45.5 41.5q-14 -28 -40.5 -39.5t-71.5 -11.5h-43q-35 0 -59.5 13.5t-37.5 38.5q-14 -29 -40.5 -40.5t-71.5 -11.5h-44q-71 0 -97 53q-14 -29 -40.5 -41t-71.5 -12h-108q-11 0 -20 1t-15 5.5t-9 13.5t-3 25q0 30 9.5 42t30.5 12h80
q18 0 27.5 5.5t14 17.5t5 30.5t0.5 45.5v128q0 10 10 10h93q10 0 10 -10v-165z" />
    <glyph glyph-name="uniFEB2" unicode="&#x633;" horiz-adv-x="1134" arabic-form="final" 
d="M39 22q0 54 17 108t42 93q5 9 15 2l81 -32q5 -2 5.5 -5.5t-1.5 -7.5q-16 -28 -30.5 -65.5t-14.5 -82.5q0 -39 12.5 -65.5t32 -42.5t43.5 -22.5t47 -6.5q58 0 93 30.5t35 98.5v302q0 10 10 10h93q10 0 10 -10v-163q0 -39 21.5 -51.5t50.5 -12.5q23 0 36.5 4.5t20.5 14
t9 24.5t2 37v147q0 10 10 10h93q10 0 10 -10v-166q0 -19 6.5 -31t17 -18.5t23.5 -9t27 -2.5q24 0 37 6.5t19.5 19t7.5 32t1 46.5v202q0 10 10 10h93q10 0 10 -10v-244q0 -30 22.5 -46t60.5 -16h16q20 0 30 -11t10 -37q0 -29 -9.5 -40t-30.5 -11q-38 0 -66.5 9.5t-45.5 41.5
q-14 -28 -40 -39.5t-71 -11.5h-26q-43 0 -71 11t-44 41q-25 -52 -104 -52h-52q-56 0 -84 34v-13q0 -57 -17.5 -100t-50 -71.5t-77.5 -42.5t-100 -14q-53 0 -97.5 14t-77.5 42.5t-51.5 71.5t-18.5 101z" />
    <glyph glyph-name="afii57428" unicode="&#x634;" horiz-adv-x="1096" arabic-form="isolated" 
d="M529 158q0 -36 23.5 -47.5t55.5 -11.5q21 0 33.5 4.5t18.5 14t7.5 24.5t1.5 37v147q0 10 10 10h93q10 0 10 -10v-167q0 -18 7 -30t18 -18.5t26 -9t32 -2.5q21 0 32.5 4.5t16.5 14.5t6 25.5t1 37.5v224q0 10 10 10h93q10 0 10 -10v-279q0 -65 -27 -95.5t-90 -30.5h-51
q-35 0 -59.5 13.5t-37.5 38.5q-14 -29 -40.5 -40.5t-71.5 -11.5h-44q-56 0 -84 34v-13q0 -57 -17.5 -100t-50 -71.5t-77.5 -42.5t-100 -14q-53 0 -97.5 14t-77.5 42.5t-51.5 71.5t-18.5 101q0 54 17 108t42 93q5 9 15 2l81 -32q5 -2 5.5 -5.5t-1.5 -7.5q-16 -28 -30.5 -65.5
t-14.5 -82.5q0 -39 12.5 -65.5t32 -42.5t43.5 -22.5t47 -6.5q57 0 92.5 30.5t35.5 98.5v302q0 10 10 10h93q10 0 10 -10v-168zM749 515q-10 0 -10 10v86q0 10 10 10h84q10 0 10 -10v-86q0 -10 -10 -10h-84zM619 515q-10 0 -10 10v86q0 10 10 10h84q10 0 10 -10v-86
q0 -10 -10 -10h-84zM683 644q-10 0 -10 10v86q0 10 10 10h84q10 0 10 -10v-86q0 -10 -10 -10h-84z" />
    <glyph glyph-name="uniFEB7" unicode="&#x634;" horiz-adv-x="806" arabic-form="initial" 
d="M240 161q0 -62 72 -62q22 0 35 2.5t20.5 10t10 22.5t2.5 41v151q0 10 10 10h93q10 0 10 -10v-164q0 -32 19 -47.5t51 -15.5q24 0 38 3.5t20.5 14t8.5 29.5t2 51v208q0 10 10 10h93q10 0 10 -10v-279q0 -69 -28.5 -97.5t-96.5 -28.5h-43q-35 0 -59.5 13.5t-37.5 38.5
q-14 -29 -40.5 -40.5t-71.5 -11.5h-44q-71 0 -97 53q-14 -29 -40.5 -41t-72.5 -12h-114q-20 0 -30 9.5t-10 35.5q0 30 9.5 42t30.5 12h80q31 0 39 16.5t8 59.5v151q0 10 10 10h93q10 0 10 -10v-165zM459 515q-10 0 -10 10v86q0 10 10 10h84q10 0 10 -10v-86q0 -10 -10 -10
h-84zM329 515q-10 0 -10 10v86q0 10 10 10h84q10 0 10 -10v-86q0 -10 -10 -10h-84zM393 644q-10 0 -10 10v86q0 10 10 10h84q10 0 10 -10v-86q0 -10 -10 -10h-84z" />
    <glyph glyph-name="uniFEB8" unicode="&#x634;" horiz-adv-x="845" arabic-form="medial" 
d="M245 161q0 -32 16.5 -47t52.5 -15q25 0 39.5 3.5t21.5 14.5t8.5 30t1.5 51v128q0 10 10 10h93q10 0 10 -10v-167q0 -31 19 -45.5t50 -14.5q23 0 37 3.5t21.5 14t9.5 30t2 50.5v208q0 10 10 10h93q10 0 10 -10v-244q0 -30 22.5 -46t60.5 -16h17q20 0 30 -11t10 -37
q0 -29 -10 -40t-30 -11q-39 0 -67.5 9.5t-45.5 41.5q-14 -28 -40.5 -39.5t-71.5 -11.5h-43q-35 0 -59.5 13.5t-37.5 38.5q-14 -29 -40.5 -40.5t-71.5 -11.5h-44q-71 0 -97 53q-14 -29 -40.5 -41t-71.5 -12h-108q-11 0 -20 1t-15 5.5t-9 13.5t-3 25q0 30 9.5 42t30.5 12h80
q18 0 27.5 5.5t14 17.5t5 30.5t0.5 45.5v128q0 10 10 10h93q10 0 10 -10v-165zM464 515q-10 0 -10 10v86q0 10 10 10h84q10 0 10 -10v-86q0 -10 -10 -10h-84zM334 515q-10 0 -10 10v86q0 10 10 10h84q10 0 10 -10v-86q0 -10 -10 -10h-84zM398 644q-10 0 -10 10v86
q0 10 10 10h84q10 0 10 -10v-86q0 -10 -10 -10h-84z" />
    <glyph glyph-name="uniFEB6" unicode="&#x634;" horiz-adv-x="1134" arabic-form="final" 
d="M39 22q0 54 17 108t42 93q5 9 15 2l81 -32q5 -2 5.5 -5.5t-1.5 -7.5q-16 -28 -30.5 -65.5t-14.5 -82.5q0 -39 12.5 -65.5t32 -42.5t43.5 -22.5t47 -6.5q58 0 93 30.5t35 98.5v302q0 10 10 10h93q10 0 10 -10v-163q0 -39 21.5 -51.5t50.5 -12.5q23 0 36.5 4.5t20.5 14
t9 24.5t2 37v147q0 10 10 10h93q10 0 10 -10v-166q0 -19 6.5 -31t17 -18.5t23.5 -9t27 -2.5q24 0 37 6.5t19.5 19t7.5 32t1 46.5v202q0 10 10 10h93q10 0 10 -10v-244q0 -30 22.5 -46t60.5 -16h16q20 0 30 -11t10 -37q0 -29 -9.5 -40t-30.5 -11q-38 0 -66.5 9.5t-45.5 41.5
q-14 -28 -40 -39.5t-71 -11.5h-26q-43 0 -71 11t-44 41q-25 -52 -104 -52h-52q-56 0 -84 34v-13q0 -57 -17.5 -100t-50 -71.5t-77.5 -42.5t-100 -14q-53 0 -97.5 14t-77.5 42.5t-51.5 71.5t-18.5 101zM749 515q-10 0 -10 10v86q0 10 10 10h84q10 0 10 -10v-86q0 -10 -10 -10
h-84zM619 515q-10 0 -10 10v86q0 10 10 10h84q10 0 10 -10v-86q0 -10 -10 -10h-84zM683 644q-10 0 -10 10v86q0 10 10 10h84q10 0 10 -10v-86q0 -10 -10 -10h-84z" />
    <glyph glyph-name="afii57429" unicode="&#x635;" horiz-adv-x="1046" arabic-form="isolated" 
d="M98 223q5 9 15 2l81 -32q5 -2 5.5 -5.5t-1.5 -7.5q-16 -28 -30.5 -65.5t-14.5 -82.5q0 -39 12.5 -65.5t32 -42.5t43.5 -22.5t47 -6.5q57 0 92.5 30.5t35.5 98.5v386q0 10 10 10h93q10 0 10 -10v-33q47 23 104 39.5t118 16.5q66 0 112 -17t75.5 -48t43 -75.5t13.5 -98.5
q0 -63 -11.5 -101t-36 -58.5t-64 -27.5t-96.5 -7h-166q-24 0 -47 0.5t-46 1.5q-6 -105 -72.5 -157t-171.5 -52q-53 0 -97.5 14t-77.5 42.5t-51.5 71.5t-18.5 101q0 54 17 108t42 93zM735 333q-56 0 -110 -17t-96 -37v-180h214q42 0 68.5 2t41 11.5t19.5 29.5t5 57
q0 32 -6.5 57t-23 42t-43.5 26t-69 9z" />
    <glyph glyph-name="uniFEBB" unicode="&#x635;" horiz-adv-x="726" arabic-form="initial" 
d="M415 333q-56 0 -110 -17t-96 -37v-136q0 -12 -1 -23t-3 -21h217q43 0 69.5 1.5t41 11t19.5 30t5 57.5q0 32 -6.5 57t-23 42t-43.5 26t-69 9zM209 377q47 23 104 39.5t118 16.5q65 0 111.5 -17t76 -48t43 -75.5t13.5 -98.5q0 -60 -10.5 -98t-34 -59.5t-60.5 -29t-90 -7.5
h-187q-16 0 -35.5 0.5t-38 2.5t-33.5 5t-22 9q-17 -12 -38.5 -14.5t-50.5 -2.5h-75q-20 0 -30 9.5t-10 37.5q0 32 9.5 42t30.5 10h52q16 0 25 4.5t13.5 14.5t5 25.5t0.5 37.5v228q0 10 10 10h93q10 0 10 -10v-32z" />
    <glyph glyph-name="uniFEBC" unicode="&#x635;" horiz-adv-x="774" arabic-form="medial" 
d="M415 333q-56 0 -110 -17t-96 -37v-136q0 -12 -1 -23t-3 -21h217q43 0 69.5 1.5t41 11t19.5 30t5 57.5q0 32 -6.5 57t-23 42t-43.5 26t-69 9zM209 377q47 23 104 39.5t118 16.5q65 0 111.5 -17t76 -48t43 -75.5t13.5 -98.5q0 -10 -0.5 -18.5t-0.5 -14.5q1 -30 23 -46
t60 -16h17q20 0 30 -11t10 -37q0 -29 -9.5 -40t-30.5 -11q-43 0 -75.5 12.5t-48.5 50.5q-21 -40 -61.5 -51.5t-106.5 -11.5h-197q-16 0 -33 0.5t-33 2.5t-30.5 5t-24.5 9q-16 -11 -35.5 -14t-45.5 -3h-83q-20 0 -30 9.5t-10 37.5q0 32 9.5 42t30.5 10h46q19 0 29 8
t14.5 22.5t5.5 33.5t1 40v206q0 10 10 10h93q10 0 10 -10v-32z" />
    <glyph glyph-name="uniFEBA" unicode="&#x635;" horiz-adv-x="1094" arabic-form="final" 
d="M39 22q0 54 17 108t42 93q5 9 15 2l81 -32q5 -2 5.5 -5.5t-1.5 -7.5q-16 -28 -30.5 -65.5t-14.5 -82.5q0 -39 12.5 -65.5t32 -42.5t43.5 -22.5t47 -6.5q59 0 93.5 31t34.5 98v386q0 10 10 10h93q10 0 10 -10v-33q47 23 104 39.5t118 16.5q66 0 112 -17t75.5 -48t43 -75.5
t13.5 -98.5q0 -10 -0.5 -18.5t-0.5 -14.5q1 -30 23 -46t60 -16h16q20 0 30 -11t10 -37q0 -29 -9.5 -40t-30.5 -11q-43 0 -75 12.5t-48 50.5q-22 -41 -64.5 -52t-112.5 -11h-183q-22 0 -42 0.5t-40 1.5q-6 -105 -72.5 -157t-171.5 -52q-53 0 -98 14t-77.5 42.5t-51 71.5
t-18.5 101zM735 333q-56 0 -110 -17t-96 -37v-180h214q42 0 68.5 2t41 11.5t19.5 29.5t5 57q0 32 -6.5 57t-23 42t-43.5 26t-69 9z" />
    <glyph glyph-name="afii57430" unicode="&#x636;" horiz-adv-x="1046" arabic-form="isolated" 
d="M98 223q5 9 15 2l81 -32q5 -2 5.5 -5.5t-1.5 -7.5q-16 -28 -30.5 -65.5t-14.5 -82.5q0 -39 12.5 -65.5t32 -42.5t43.5 -22.5t47 -6.5q57 0 92.5 30.5t35.5 98.5v386q0 10 10 10h93q10 0 10 -10v-33q47 23 104 39.5t118 16.5q66 0 112 -17t75.5 -48t43 -75.5t13.5 -98.5
q0 -63 -11.5 -101t-36 -58.5t-64 -27.5t-96.5 -7h-166q-24 0 -47 0.5t-46 1.5q-6 -105 -72.5 -157t-171.5 -52q-53 0 -97.5 14t-77.5 42.5t-51.5 71.5t-18.5 101q0 54 17 108t42 93zM735 333q-56 0 -110 -17t-96 -37v-180h214q42 0 68.5 2t41 11.5t19.5 29.5t5 57
q0 32 -6.5 57t-23 42t-43.5 26t-69 9zM692 515q-10 0 -10 10v86q0 10 10 10h96q10 0 10 -10v-86q0 -10 -10 -10h-96z" />
    <glyph glyph-name="uniFEBF" unicode="&#x636;" horiz-adv-x="726" arabic-form="initial" 
d="M374 515q-10 0 -10 10v86q0 10 10 10h96q10 0 10 -10v-86q0 -10 -10 -10h-96zM415 333q-56 0 -110 -17t-96 -37v-136q0 -12 -1 -23t-3 -21h217q43 0 69.5 1.5t41 11t19.5 30t5 57.5q0 32 -6.5 57t-23 42t-43.5 26t-69 9zM209 377q47 23 104 39.5t118 16.5q65 0 111.5 -17
t76 -48t43 -75.5t13.5 -98.5q0 -60 -10.5 -98t-34 -59.5t-60.5 -29t-90 -7.5h-187q-16 0 -35.5 0.5t-38 2.5t-33.5 5t-22 9q-17 -12 -38.5 -14.5t-50.5 -2.5h-75q-20 0 -30 9.5t-10 37.5q0 32 9.5 42t30.5 10h52q16 0 25 4.5t13.5 14.5t5 25.5t0.5 37.5v228q0 10 10 10h93
q10 0 10 -10v-32z" />
    <glyph glyph-name="uniFEC0" unicode="&#x636;" horiz-adv-x="774" arabic-form="medial" 
d="M379 515q-10 0 -10 10v86q0 10 10 10h96q10 0 10 -10v-86q0 -10 -10 -10h-96zM420 333q-56 0 -110 -17t-96 -37v-136q0 -12 -1 -23t-3 -21h217q43 0 69.5 1.5t41 11t19.5 30t5 57.5q0 32 -6.5 57t-23 42t-43.5 26t-69 9zM214 377q47 23 104 39.5t118 16.5q65 0 111.5 -17
t76 -48t43 -75.5t13.5 -98.5q0 -10 -0.5 -18.5t-0.5 -14.5q1 -30 23 -46t60 -16h17q20 0 30 -11t10 -37q0 -29 -9.5 -40t-30.5 -11q-43 0 -75.5 12.5t-48.5 50.5q-21 -40 -61.5 -51.5t-106.5 -11.5h-197q-16 0 -33 0.5t-33 2.5t-30.5 5t-24.5 9q-16 -11 -35.5 -14t-45.5 -3
h-83q-20 0 -30 9.5t-10 37.5q0 32 9.5 42t30.5 10h46q19 0 29 8t14.5 22.5t5.5 33.5t1 40v206q0 10 10 10h93q10 0 10 -10v-32z" />
    <glyph glyph-name="uniFEBE" unicode="&#x636;" horiz-adv-x="1094" arabic-form="final" 
d="M692 515q-10 0 -10 10v86q0 10 10 10h96q10 0 10 -10v-86q0 -10 -10 -10h-96zM39 22q0 54 17 108t42 93q5 9 15 2l81 -32q5 -2 5.5 -5.5t-1.5 -7.5q-16 -28 -30.5 -65.5t-14.5 -82.5q0 -39 12.5 -65.5t32 -42.5t43.5 -22.5t47 -6.5q59 0 93.5 31t34.5 98v386q0 10 10 10
h93q10 0 10 -10v-33q47 23 104 39.5t118 16.5q66 0 112 -17t75.5 -48t43 -75.5t13.5 -98.5q0 -10 -0.5 -18.5t-0.5 -14.5q1 -30 23 -46t60 -16h16q20 0 30 -11t10 -37q0 -29 -9.5 -40t-30.5 -11q-43 0 -75 12.5t-48 50.5q-22 -41 -64.5 -52t-112.5 -11h-183q-22 0 -42 0.5
t-40 1.5q-6 -105 -72.5 -157t-171.5 -52q-53 0 -98 14t-77.5 42.5t-51 71.5t-18.5 101zM735 333q-56 0 -110 -17t-96 -37v-180h214q42 0 68.5 2t41 11.5t19.5 29.5t5 57q0 32 -6.5 57t-23 42t-43.5 26t-69 9z" />
    <glyph glyph-name="afii57431" unicode="&#x637;" horiz-adv-x="746" arabic-form="isolated" 
d="M63 99q19 0 29.5 5.5t16 19t6.5 37t1 59.5v450q0 10 10 10h93q10 0 10 -10v-293q48 23 104.5 39.5t117.5 16.5q66 0 112 -17t75.5 -48t43 -75.5t13.5 -98.5q0 -61 -10.5 -99t-34.5 -59t-62 -28.5t-92 -7.5h-266q-32 0 -46 17q-17 -12 -39.5 -14.5t-51.5 -2.5h-60
q-10 0 -10 10v79q0 10 10 10h30zM435 333q-56 0 -110 -17t-96 -37v-136q0 -12 -1 -23t-3 -21h218q42 0 68.5 1.5t41 11t19.5 30t5 57.5q0 32 -6.5 57t-23 42t-43.5 26t-69 9z" />
    <glyph glyph-name="uniFEC3" unicode="&#x637;" horiz-adv-x="732" arabic-form="initial" 
d="M421 333q-56 0 -110 -17t-96 -37v-136q0 -12 -1 -23t-3 -21h218q42 0 68.5 1.5t41 11t19.5 30t5 57.5q0 32 -6.5 57t-23 42t-43.5 26t-69 9zM215 377q48 23 104.5 39.5t117.5 16.5q66 0 112 -17t75.5 -48t43 -75.5t13.5 -98.5q0 -62 -11 -100t-35.5 -59t-63 -28t-93.5 -7
h-263q-32 0 -45 17q-16 -11 -36.5 -14t-48.5 -3h-85q-20 0 -30 9.5t-10 37.5q0 32 9.5 42t30.5 10h52q17 0 27 5t15 19.5t6.5 39t1.5 63.5v444q0 10 10 10h93q10 0 10 -10v-293z" />
    <glyph glyph-name="uniFEC4" unicode="&#x637;" horiz-adv-x="780" arabic-form="medial" 
d="M421 333q-56 0 -110 -17t-96 -37v-136q0 -12 -1 -23t-3 -21h218q42 0 68.5 1.5t41 11t19.5 30t5 57.5q0 32 -6.5 57t-23 42t-43.5 26t-69 9zM215 377q48 23 104.5 39.5t117.5 16.5q66 0 112 -17t75.5 -48t43 -75.5t13.5 -98.5q0 -10 -0.5 -18.5t-0.5 -14.5q1 -30 23 -46
t60 -16h17q20 0 30 -11t10 -37q0 -29 -9.5 -40t-30.5 -11q-43 0 -75.5 12.5t-47.5 50.5q-11 -21 -26.5 -33.5t-37 -19t-49.5 -8.5t-62 -2h-267q-32 0 -45 17q-17 -12 -40 -14.5t-52 -2.5h-78q-20 0 -30 9.5t-10 37.5q0 32 9.5 42t30.5 10h50q18 0 28.5 5.5t15.5 19t6.5 37
t1.5 59.5v450q0 10 10 10h93q10 0 10 -10v-293z" />
    <glyph glyph-name="uniFEC2" unicode="&#x637;" horiz-adv-x="794" arabic-form="final" 
d="M64 99q18 0 28.5 5.5t15.5 19t6.5 37t1.5 59.5v450q0 10 10 10h93q10 0 10 -10v-293q48 23 104.5 39.5t117.5 16.5q66 0 112 -17t75.5 -48t43 -75.5t13.5 -98.5q0 -10 -0.5 -18.5t-0.5 -14.5q2 -30 23.5 -46t59.5 -16h16q20 0 30 -11t10 -37q0 -29 -9.5 -40t-30.5 -11
q-43 0 -74.5 12.5t-47.5 50.5q-11 -21 -26.5 -33.5t-37 -19t-49 -8.5t-62.5 -2h-266q-32 0 -46 17q-17 -12 -39.5 -14.5t-51.5 -2.5h-60q-10 0 -10 10v79q0 10 10 10h31zM435 333q-56 0 -110 -17t-96 -37v-136q0 -12 -1 -23t-3 -21h218q42 0 68.5 1.5t41 11t19.5 30t5 57.5
q0 32 -6.5 57t-23 42t-43.5 26t-69 9z" />
    <glyph glyph-name="afii57432" unicode="&#x638;" horiz-adv-x="746" arabic-form="isolated" 
d="M63 99q19 0 29.5 5.5t16 19t6.5 37t1 59.5v450q0 10 10 10h93q10 0 10 -10v-293q48 23 104.5 39.5t117.5 16.5q66 0 112 -17t75.5 -48t43 -75.5t13.5 -98.5q0 -61 -10.5 -99t-34.5 -59t-62 -28.5t-92 -7.5h-266q-32 0 -46 17q-17 -12 -39.5 -14.5t-51.5 -2.5h-60
q-10 0 -10 10v79q0 10 10 10h30zM435 333q-56 0 -110 -17t-96 -37v-136q0 -12 -1 -23t-3 -21h218q42 0 68.5 1.5t41 11t19.5 30t5 57.5q0 32 -6.5 57t-23 42t-43.5 26t-69 9zM404 515q-10 0 -10 10v86q0 10 10 10h96q10 0 10 -10v-86q0 -10 -10 -10h-96z" />
    <glyph glyph-name="uniFEC7" unicode="&#x638;" horiz-adv-x="732" arabic-form="initial" 
d="M392 515q-10 0 -10 10v86q0 10 10 10h96q10 0 10 -10v-86q0 -10 -10 -10h-96zM421 333q-56 0 -110 -17t-96 -37v-136q0 -12 -1 -23t-3 -21h218q42 0 68.5 1.5t41 11t19.5 30t5 57.5q0 32 -6.5 57t-23 42t-43.5 26t-69 9zM215 377q48 23 104.5 39.5t117.5 16.5
q66 0 112 -17t75.5 -48t43 -75.5t13.5 -98.5q0 -62 -11 -100t-35.5 -59t-63 -28t-93.5 -7h-263q-32 0 -45 17q-16 -11 -36.5 -14t-48.5 -3h-85q-20 0 -30 9.5t-10 37.5q0 32 9.5 42t30.5 10h52q17 0 27 5t15 19.5t6.5 39t1.5 63.5v444q0 10 10 10h93q10 0 10 -10v-293z" />
    <glyph glyph-name="uniFEC8" unicode="&#x638;" horiz-adv-x="780" arabic-form="medial" 
d="M396 515q-10 0 -10 10v86q0 10 10 10h96q10 0 10 -10v-86q0 -10 -10 -10h-96zM426 333q-56 0 -110 -17t-96 -37v-136q0 -12 -1 -23t-3 -21h218q42 0 68.5 1.5t41 11t19.5 30t5 57.5q0 32 -6.5 57t-23 42t-43.5 26t-69 9zM220 377q48 23 104.5 39.5t117.5 16.5
q66 0 112 -17t75.5 -48t43 -75.5t13.5 -98.5q0 -10 -0.5 -18.5t-0.5 -14.5q1 -30 23 -46t60 -16h17q20 0 30 -11t10 -37q0 -29 -9.5 -40t-30.5 -11q-43 0 -75.5 12.5t-47.5 50.5q-11 -21 -26.5 -33.5t-37 -19t-49.5 -8.5t-62 -2h-267q-32 0 -45 17q-17 -12 -40 -14.5
t-52 -2.5h-78q-20 0 -30 9.5t-10 37.5q0 32 9.5 42t30.5 10h50q18 0 28.5 5.5t15.5 19t6.5 37t1.5 59.5v450q0 10 10 10h93q10 0 10 -10v-293z" />
    <glyph glyph-name="uniFEC6" unicode="&#x638;" horiz-adv-x="794" arabic-form="final" 
d="M408 515q-10 0 -10 10v86q0 10 10 10h96q10 0 10 -10v-86q0 -10 -10 -10h-96zM69 99q18 0 28.5 5.5t15.5 19t6.5 37t1.5 59.5v450q0 10 10 10h93q10 0 10 -10v-293q48 23 104.5 39.5t117.5 16.5q66 0 112 -17t75.5 -48t43 -75.5t13.5 -98.5q0 -10 -0.5 -18.5t-0.5 -14.5
q2 -30 23.5 -46t59.5 -16h16q20 0 30 -11t10 -37q0 -29 -9.5 -40t-30.5 -11q-43 0 -74.5 12.5t-47.5 50.5q-11 -21 -26.5 -33.5t-37 -19t-49 -8.5t-62.5 -2h-266q-32 0 -46 17q-17 -12 -39.5 -14.5t-51.5 -2.5h-60q-10 0 -10 10v79q0 10 10 10h31zM440 333q-56 0 -110 -17
t-96 -37v-136q0 -12 -1 -23t-3 -21h218q42 0 68.5 1.5t41 11t19.5 30t5 57.5q0 32 -6.5 57t-23 42t-43.5 26t-69 9z" />
    <glyph glyph-name="afii57433" unicode="&#x639;" horiz-adv-x="550" arabic-form="isolated" 
d="M33 -53q0 34 8.5 59t23 42t33 28t39.5 16q-22 23 -36.5 56t-14.5 80q0 35 11 71.5t36.5 66t67 48.5t102.5 19q66 0 112 -22.5t72 -56.5q5 -8 -3 -14l-54 -56q-7 -7 -14 1q-44 48 -106 48q-51 0 -78.5 -30t-27.5 -81q0 -30 9.5 -51.5t22 -36.5t26 -23.5t21.5 -11.5h215
q10 0 10 -10v-79q0 -10 -10 -10h-302q-28 0 -38.5 -15t-10.5 -35q0 -27 15 -39.5t58 -12.5h99q10 0 10 -10v-80q0 -10 -10 -10h-109q-85 0 -131 35.5t-46 113.5z" />
    <glyph glyph-name="uniFECB" unicode="&#x639;" horiz-adv-x="518" arabic-form="initial" 
d="M97 99q-20 23 -33 54t-13 75q0 35 11 71.5t36.5 66t67 48.5t102.5 19q66 0 112 -22.5t72 -56.5q5 -8 -3 -14l-54 -56q-7 -7 -14 1q-44 48 -106 48q-51 0 -78.5 -30t-27.5 -81q0 -30 9.5 -51.5t22 -36.5t26 -23.5t21.5 -11.5h217q10 0 10 -10v-79q0 -10 -10 -10h-465
q-20 0 -30 11.5t-10 38.5q0 29 9.5 39t30.5 10h97z" />
    <glyph glyph-name="uniFECC" unicode="&#x639;" horiz-adv-x="559" arabic-form="medial" 
d="M280 433q115 0 168 -43t53 -113q0 -30 -9.5 -56.5t-24.5 -49t-34 -40.5t-37 -30q8 -2 17.5 -2h20.5h125q23 0 31 -12t8 -40t-9.5 -37.5t-29.5 -9.5h-149q-36 0 -68.5 6.5t-61.5 24.5q-33 -18 -70 -24.5t-66 -6.5h-144q-19 0 -29 10t-10 37q0 26 6.5 39t32.5 13h117
q16 0 36 1.5t47 7.5q-8 33 -21.5 57t-30.5 42.5t-36.5 33l-39.5 28.5q-11 8 -12.5 14.5t-1.5 14.5v63q0 11 19 24t50 23.5t71 17.5t82 7zM295 131q16 10 32.5 24t29 30.5t20.5 35.5t8 39q0 41 -29.5 57t-75.5 16q-40 0 -69.5 -8t-40.5 -14q46 -29 78.5 -75.5t46.5 -104.5z
" />
    <glyph glyph-name="uniFECA" unicode="&#x639;" horiz-adv-x="579" arabic-form="final" 
d="M307 131q16 10 32 24t29 30.5t20.5 35.5t7.5 39q0 41 -29 57t-76 16q-40 0 -69.5 -8t-39.5 -14q46 -29 78.5 -75.5t46.5 -104.5zM236 -202q-49 0 -86.5 6.5t-63.5 22.5t-39.5 42.5t-13.5 66.5q0 42 17 70t43 46.5t58.5 29t63.5 18.5q-8 34 -21.5 59t-31 44.5t-37.5 35
l-41 30.5q-10 7 -12 14t-2 15v63q0 13 19.5 26t51 23.5t72.5 16.5t84 6q38 0 76.5 -8t69.5 -26t50.5 -48t19.5 -74q0 -29 -9 -55t-23.5 -48t-33 -40t-36.5 -31q10 -1 20.5 -2.5t20.5 -1.5h126q20 0 30 -10t10 -36q0 -29 -9.5 -41t-30.5 -12h-154q-29 0 -62 7t-59 24
q-28 -11 -55.5 -18t-50 -16t-36.5 -21.5t-14 -33.5q0 -26 22 -35t81 -9h69q10 0 10 -10v-80q0 -10 -10 -10h-83z" />
    <glyph glyph-name="afii57434" unicode="&#x63a;" horiz-adv-x="550" arabic-form="isolated" 
d="M33 -53q0 34 8.5 59t23 42t33 28t39.5 16q-22 23 -36.5 56t-14.5 80q0 35 11 71.5t36.5 66t67 48.5t102.5 19q66 0 112 -22.5t72 -56.5q5 -8 -3 -14l-54 -56q-7 -7 -14 1q-44 48 -106 48q-51 0 -78.5 -30t-27.5 -81q0 -30 9.5 -51.5t22 -36.5t26 -23.5t21.5 -11.5h215
q10 0 10 -10v-79q0 -10 -10 -10h-302q-28 0 -38.5 -15t-10.5 -35q0 -27 15 -39.5t58 -12.5h99q10 0 10 -10v-80q0 -10 -10 -10h-109q-85 0 -131 35.5t-46 113.5zM252 514q-10 0 -10 10v86q0 10 10 10h96q10 0 10 -10v-86q0 -10 -10 -10h-96z" />
    <glyph glyph-name="uniFECF" unicode="&#x63a;" horiz-adv-x="518" arabic-form="initial" 
d="M217 515q-10 0 -10 10v86q0 10 10 10h96q10 0 10 -10v-86q0 -10 -10 -10h-96zM97 99q-20 23 -33 54t-13 75q0 35 11 71.5t36.5 66t67 48.5t102.5 19q66 0 112 -22.5t72 -56.5q5 -8 -3 -14l-54 -56q-7 -7 -14 1q-44 48 -106 48q-51 0 -78.5 -30t-27.5 -81q0 -30 9.5 -51.5
t22 -36.5t26 -23.5t21.5 -11.5h217q10 0 10 -10v-79q0 -10 -10 -10h-465q-20 0 -30 11.5t-10 38.5q0 29 9.5 39t30.5 10h97z" />
    <glyph glyph-name="uniFED0" unicode="&#x63a;" horiz-adv-x="559" arabic-form="medial" 
d="M232 515q-10 0 -10 10v86q0 10 10 10h96q10 0 10 -10v-86q0 -10 -10 -10h-96zM280 433q115 0 168 -43t53 -113q0 -30 -9.5 -56.5t-24.5 -49t-34 -40.5t-37 -30q8 -2 17.5 -2h20.5h125q23 0 31 -12t8 -40t-9.5 -37.5t-29.5 -9.5h-149q-36 0 -68.5 6.5t-61.5 24.5
q-33 -18 -70 -24.5t-66 -6.5h-144q-19 0 -29 10t-10 37q0 26 6.5 39t32.5 13h117q16 0 36 1.5t47 7.5q-8 33 -21.5 57t-30.5 42.5t-36.5 33l-39.5 28.5q-11 8 -12.5 14.5t-1.5 14.5v63q0 11 19 24t50 23.5t71 17.5t82 7zM295 131q16 10 32.5 24t29 30.5t20.5 35.5t8 39
q0 41 -29.5 57t-75.5 16q-40 0 -69.5 -8t-40.5 -14q46 -29 78.5 -75.5t46.5 -104.5z" />
    <glyph glyph-name="uniFECE" unicode="&#x63a;" horiz-adv-x="579" arabic-form="final" 
d="M262 515q-10 0 -10 10v86q0 10 10 10h96q10 0 10 -10v-86q0 -10 -10 -10h-96zM312 131q16 10 32 24t29 30.5t20.5 35.5t7.5 39q0 41 -29 57t-76 16q-40 0 -69.5 -8t-39.5 -14q46 -29 78.5 -75.5t46.5 -104.5zM241 -202q-49 0 -86.5 6.5t-63.5 22.5t-39.5 42.5t-13.5 66.5
q0 42 17 70t43 46.5t58.5 29t63.5 18.5q-8 34 -21.5 59t-31 44.5t-37.5 35l-41 30.5q-10 7 -12 14t-2 15v63q0 13 19.5 26t51 23.5t72.5 16.5t84 6q38 0 76.5 -8t69.5 -26t50.5 -48t19.5 -74q0 -29 -9 -55t-23.5 -48t-33 -40t-36.5 -31q10 -1 20.5 -2.5t20.5 -1.5h126
q20 0 30 -10t10 -36q0 -29 -9.5 -41t-30.5 -12h-154q-29 0 -62 7t-59 24q-28 -11 -55.5 -18t-50 -16t-36.5 -21.5t-14 -33.5q0 -26 22 -35t81 -9h69q10 0 10 -10v-80q0 -10 -10 -10h-83z" />
    <glyph glyph-name="afii57441" unicode="&#x641;" horiz-adv-x="961" arabic-form="isolated" 
d="M165 0q-63 0 -90 30.5t-27 95.5v215q0 10 10 10h92q10 0 10 -10v-189q0 -30 11.5 -41.5t36.5 -11.5h311q-23 43 -23 111q0 61 16.5 104t45 69t65.5 38t79 12q44 0 82 -12t65.5 -38t43 -69t15.5 -104q0 -59 -15 -99t-42.5 -65t-65.5 -35.5t-83 -10.5h-537zM702 333
q-46 0 -70.5 -30.5t-24.5 -85.5q0 -66 23.5 -92.5t71.5 -26.5t71 25.5t23 88.5q0 121 -94 121zM659 515q-10 0 -10 10v86q0 10 10 10h96q10 0 10 -10v-86q0 -10 -10 -10h-96z" />
    <glyph glyph-name="uniFED3" unicode="&#x641;" horiz-adv-x="542" arabic-form="initial" 
d="M235 515q-10 0 -10 10v86q0 10 10 10h96q10 0 10 -10v-86q0 -10 -10 -10h-96zM5 0q-21 0 -30.5 10t-9.5 41q0 26 10 37t30 11h95q-23 43 -23 111q0 61 16.5 104t45 69t66 38t78.5 12q44 0 82 -12t65.5 -38t43 -69t15.5 -104q0 -59 -15 -99t-42 -65t-65 -35.5t-84 -10.5
h-278zM283 333q-46 0 -70 -30.5t-24 -85.5q0 -66 23 -92.5t71 -26.5q49 0 72 25.5t23 88.5q0 121 -95 121z" />
    <glyph glyph-name="uniFED4" unicode="&#x641;" horiz-adv-x="538" arabic-form="medial" 
d="M269 433q102 0 156 -48.5t54 -129.5q0 -49 -22.5 -89.5t-60.5 -66.5h142q20 0 30 -9.5t10 -37.5q0 -29 -9.5 -40.5t-30.5 -11.5h-139q-36 0 -68 3t-61 21q-33 -18 -70.5 -21t-66.5 -3h-133q-20 0 -30 12t-10 39q0 29 9.5 38.5t30.5 9.5h141q-37 26 -59.5 66.5t-22.5 89.5
q0 81 54 129.5t156 48.5zM269 344q-39 0 -67.5 -24.5t-28.5 -72.5q0 -51 28 -82.5t68 -48.5q39 17 67 48.5t28 82.5q0 48 -28 72.5t-67 24.5zM222 515q-10 0 -10 10v86q0 10 10 10h96q10 0 10 -10v-86q0 -10 -10 -10h-96z" />
    <glyph glyph-name="uniFED2" unicode="&#x641;" horiz-adv-x="964" arabic-form="final" 
d="M695 344q-39 0 -67 -24.5t-28 -73.5q0 -50 28 -81.5t67 -48.5q40 17 68 48.5t28 81.5q0 49 -28.5 73.5t-67.5 24.5zM568 99q-38 26 -60.5 66.5t-22.5 88.5q0 82 54 130.5t156 48.5t156 -48.5t54 -130.5q0 -48 -22.5 -88.5t-60.5 -66.5h142q20 0 30 -9.5t10 -37.5
q0 -29 -9.5 -40.5t-30.5 -11.5h-127q-46 0 -80.5 4t-60.5 20q-36 -17 -77 -20.5t-97 -3.5h-357q-63 0 -90 30.5t-27 95.5v217q0 10 10 10h92q10 0 10 -10v-191q0 -30 11.5 -41.5t36.5 -11.5h360zM645 515q-10 0 -10 10v86q0 10 10 10h96q10 0 10 -10v-86q0 -10 -10 -10h-96z
" />
    <glyph glyph-name="afii57442" unicode="&#x642;" horiz-adv-x="797" arabic-form="isolated" 
d="M735 -55q0 -31 -11.5 -58t-35.5 -46.5t-62 -31t-92 -11.5h-243q-130 0 -193.5 60t-63.5 163q0 28 5.5 56.5t14.5 55t20.5 50t24.5 41.5q5 8 14 2l79 -41q8 -5 3 -13q-17 -28 -31.5 -65t-14.5 -76q0 -38 13.5 -63t35.5 -40t50 -21.5t57 -6.5h215q60 0 82 15t22 40v45h-102
q-93 0 -145 48t-52 162q0 61 16.5 103.5t44.5 69t65 38.5t78 12q44 0 82 -12t65.5 -38t43 -68.5t15.5 -103.5v-266zM530 333q-45 0 -70 -32t-25 -89q0 -63 26 -88t73 -25h89v114q0 59 -23 89.5t-70 30.5zM554 515q-10 0 -10 10v86q0 10 10 10h84q10 0 10 -10v-86
q0 -10 -10 -10h-84zM424 515q-10 0 -10 10v86q0 10 10 10h84q10 0 10 -10v-86q0 -10 -10 -10h-84z" />
    <glyph glyph-name="uniFED7" unicode="&#x642;" horiz-adv-x="550" arabic-form="initial" 
d="M313 515q-10 0 -10 10v86q0 10 10 10h84q10 0 10 -10v-86q0 -10 -10 -10h-84zM183 515q-10 0 -10 10v86q0 10 10 10h84q10 0 10 -10v-86q0 -10 -10 -10h-84zM10 0q-21 0 -30.5 10t-9.5 41q0 26 10 37t30 11h95q-23 43 -23 111q0 61 16.5 104t45 69t66 38t78.5 12
q44 0 82 -12t65.5 -38t43 -69t15.5 -104q0 -59 -15 -99t-42 -65t-65 -35.5t-84 -10.5h-278zM288 333q-46 0 -70 -30.5t-24 -85.5q0 -66 23 -92.5t71 -26.5q49 0 72 25.5t23 88.5q0 121 -95 121z" />
    <glyph glyph-name="uniFED8" unicode="&#x642;" horiz-adv-x="538" arabic-form="medial" 
d="M269 433q102 0 156 -48.5t54 -129.5q0 -49 -22.5 -89.5t-60.5 -66.5h142q20 0 30 -9.5t10 -37.5q0 -29 -9.5 -40.5t-30.5 -11.5h-139q-36 0 -68 3t-61 21q-33 -18 -70.5 -21t-66.5 -3h-133q-20 0 -30 12t-10 39q0 29 9.5 38.5t30.5 9.5h141q-37 26 -59.5 66.5t-22.5 89.5
q0 81 54 129.5t156 48.5zM269 344q-39 0 -67.5 -24.5t-28.5 -72.5q0 -51 28 -82.5t68 -48.5q39 17 67 48.5t28 82.5q0 48 -28 72.5t-67 24.5zM296 515q-10 0 -10 10v86q0 10 10 10h84q10 0 10 -10v-86q0 -10 -10 -10h-84zM166 515q-10 0 -10 10v86q0 10 10 10h84
q10 0 10 -10v-86q0 -10 -10 -10h-84z" />
    <glyph glyph-name="uniFED6" unicode="&#x642;" horiz-adv-x="804" arabic-form="final" 
d="M559 515q-10 0 -10 10v86q0 10 10 10h84q10 0 10 -10v-86q0 -10 -10 -10h-84zM429 515q-10 0 -10 10v86q0 10 10 10h84q10 0 10 -10v-86q0 -10 -10 -10h-84zM525 -100q60 0 82 15t22 40v45h-102q-93 0 -145 48t-52 162q0 61 16.5 103.5t44.5 69t65 38.5t78 12
q44 0 82 -12t65.5 -38t43 -68.5t15.5 -103.5v-112h69q20 0 30 -10.5t10 -38.5q0 -29 -9.5 -39.5t-30.5 -10.5h-69v-55q0 -31 -11.5 -58t-35.5 -46.5t-62 -31t-92 -11.5h-243q-130 0 -193.5 60t-63.5 163q0 28 5.5 56.5t14.5 55t20.5 50t24.5 41.5q5 8 14 2l79 -41
q8 -5 3 -13q-17 -28 -31.5 -65t-14.5 -76q0 -38 13.5 -63t35.5 -40t50 -21.5t57 -6.5h215zM535 333q-45 0 -70 -32t-25 -89q0 -63 26 -88t73 -25h89v114q0 59 -23 89.5t-70 30.5z" />
    <glyph glyph-name="afii57443" unicode="&#x643;" horiz-adv-x="848" arabic-form="isolated" 
d="M429 444h17q33 0 47.5 -18t14.5 -56v-19q0 -40 -14 -54t-45 -14h-118q-10 0 -10 10v30q0 10 10 10h101q13 0 16.5 5t3.5 16q0 27 -6.5 33.5t-31.5 6.5h-47q-14 0 -14 14v23q0 5 2.5 9t4.5 6l77 91q8 10 16 2l25 -22q5 -5 4 -8t-4 -8zM784 126q0 -65 -27.5 -95.5
t-92.5 -30.5h-499q-63 0 -90 30.5t-27 95.5v215q0 10 10 10h92q10 0 10 -10v-189q0 -35 20 -44t71 -9h371q18 0 28 5.5t14.5 17.5t5.5 30.5t1 44.5v473q0 10 10 10h93q10 0 10 -10v-544z" />
    <glyph glyph-name="uniFEDB" unicode="&#x643;" horiz-adv-x="494" arabic-form="initial" 
d="M205 419q53 -1 97 -7.5t75 -26t48 -56.5t17 -98v-60q0 -50 -9 -82.5t-27 -52.5t-46 -28t-66 -8h-294q-20 0 -30 11.5t-10 40.5t9.5 38t30.5 9h248q27 0 43 4t24.5 13t11 24t2.5 38v54q0 45 -24.5 66.5t-77.5 21.5h-161q-10 0 -10 10v69q0 7 6 13t10 11l216 254q6 7 13 3
l65 -54q8 -6 4 -14z" />
    <glyph glyph-name="uniFEDC" unicode="&#x643;" horiz-adv-x="541" arabic-form="medial" 
d="M56 399q0 7 6 13t10 11l216 254q6 7 13 3l65 -54q8 -6 4 -14l-165 -193q51 -1 94.5 -7t75 -24.5t49.5 -54t18 -95.5v-83q0 -27 22.5 -41.5t59.5 -14.5h17q20 0 30 -11t10 -37q0 -29 -9.5 -40t-30.5 -11q-42 0 -73 11t-48 46q-17 -32 -48 -44.5t-78 -12.5h-294
q-20 0 -30 11.5t-10 40.5t9.5 38t30.5 9h248q27 0 43 4t24.5 13t11 24t2.5 38v54q0 88 -102 88h-161q-10 0 -10 10v69z" />
    <glyph glyph-name="uniFEDA" unicode="&#x643;" horiz-adv-x="883" arabic-form="final" 
d="M429 444h17q33 0 47.5 -18t14.5 -56v-19q0 -40 -14 -54t-45 -14h-118q-10 0 -10 10v30q0 10 10 10h101q13 0 16.5 5t3.5 16q0 27 -6.5 33.5t-31.5 6.5h-47q-14 0 -14 14v23q0 5 2.5 9t4.5 6l77 91q8 10 16 2l25 -22q5 -5 4 -8t-4 -8zM784 161q0 -30 22 -46t60 -16h17
q20 0 30 -11t10 -37q0 -29 -9.5 -40t-30.5 -11q-38 0 -67 9.5t-46 41.5q-14 -29 -42 -40t-76 -11h-487q-63 0 -90 30.5t-27 95.5v215q0 10 10 10h92q10 0 10 -10v-189q0 -36 19 -44.5t67 -8.5h376q18 0 27.5 5t14.5 16t6 29t1 44v477q0 10 10 10h93q10 0 10 -10v-509z" />
    <glyph glyph-name="afii57444" unicode="&#x644;" horiz-adv-x="599" arabic-form="isolated" 
d="M103 223q4 7 15 2l81 -32q5 -2 5.5 -5.5t-1.5 -7.5q-16 -28 -30.5 -65.5t-14.5 -82.5q0 -39 12.5 -65.5t32 -42.5t43.5 -22.5t47 -6.5q58 0 93 30.5t35 98.5v646q0 10 10 10h93q10 0 10 -10v-649q0 -57 -17.5 -100t-50 -71.5t-77.5 -42.5t-100 -14q-53 0 -97.5 14
t-77.5 42.5t-51.5 71.5t-18.5 101q0 54 17 108t42 93z" />
    <glyph glyph-name="uniFEDF" unicode="&#x644;" horiz-adv-x="275" arabic-form="initial" 
d="M0 0q-20 0 -30 9.5t-10 38.5q0 28 9.5 39.5t30.5 11.5h49q25 0 36.5 11.5t11.5 41.5v518q0 10 10 10h93q10 0 10 -10v-544q0 -65 -27 -95.5t-90 -30.5h-93z" />
    <glyph glyph-name="uniFEE0" unicode="&#x644;" horiz-adv-x="310" arabic-form="medial" 
d="M49 99q25 0 36.5 11.5t11.5 41.5v518q0 10 10 10h93q10 0 10 -10v-509q0 -30 22.5 -46t60.5 -16h17q20 0 30 -11t10 -37q0 -29 -9.5 -40t-30.5 -11q-39 0 -68 9.5t-46 41.5q-14 -28 -40.5 -39.5t-71.5 -11.5h-84q-20 0 -30 9.5t-10 41.5q0 27 9.5 37.5t30.5 10.5h49z" />
    <glyph glyph-name="uniFEDE" unicode="&#x644;" horiz-adv-x="633" arabic-form="final" 
d="M44 22q0 54 17 108t42 93q4 7 15 2l81 -32q5 -2 5.5 -5.5t-1.5 -7.5q-16 -28 -30.5 -65.5t-14.5 -82.5q0 -39 12.5 -65.5t32 -42.5t43.5 -22.5t47 -6.5q58 0 93 30.5t35 98.5v646q0 10 10 10h93q10 0 10 -10v-509q0 -30 22.5 -46t60.5 -16h16q20 0 30 -11t10 -37
q0 -29 -9.5 -40t-30.5 -11q-32 0 -56.5 5.5t-42.5 26.5v-11q0 -57 -17.5 -100t-50 -71.5t-77.5 -42.5t-100 -14q-53 0 -97.5 14t-77.5 42.5t-51.5 71.5t-18.5 101z" />
    <glyph glyph-name="afii57445" unicode="&#x645;" horiz-adv-x="611" arabic-form="isolated" 
d="M354 -7q-49 0 -87.5 14t-64.5 45q-8 -13 -19 -19.5t-21 -14t-17 -19.5t-7 -35v-166h-113v187q0 32 8.5 53t22 35t29 23.5t29 19t24 21t12.5 30.5q-1 10 -1.5 20.5t-0.5 22.5q0 61 15.5 104t43 69t65.5 38t82 12t82 -12t65.5 -38t43 -69t15.5 -104q0 -59 -15 -100
t-42.5 -67t-65.5 -38t-83 -12zM354 333q-48 0 -71.5 -31t-23.5 -90q0 -64 23.5 -92t71.5 -28t71 28.5t23 91.5q0 121 -94 121z" />
    <glyph glyph-name="uniFEE3" unicode="&#x645;" horiz-adv-x="564" arabic-form="initial" 
d="M306 -7q-50 0 -90 13.5t-67 44.5q-10 -16 -24 -26t-29 -15.5t-31 -7.5t-30 -2h-35q-20 0 -30 11.5t-10 38.5q0 29 9.5 39t30.5 10h39q11 0 22 4.5t20 15t15 28t6 43.5q-1 8 -1 15v15q1 58 16.5 98.5t43 66t64.5 37t81 11.5t82 -12t65.5 -38t43 -69t15.5 -104
q0 -59 -15 -100t-42 -67t-65 -38t-84 -12zM306 333q-48 0 -71 -31t-23 -90q0 -64 23 -92t71 -28q49 0 72 28.5t23 91.5q0 121 -95 121z" />
    <glyph glyph-name="uniFEE4" unicode="&#x645;" horiz-adv-x="601" arabic-form="medial" 
d="M306 333q-48 0 -71 -31t-23 -90q0 -64 23 -92t71 -28q49 0 72 28.5t23 91.5q0 121 -95 121zM101 220q1 58 16.5 98.5t43 66t64.5 37t81 11.5t82 -12t65.5 -38t43 -69t15.5 -104v-17.5t-1 -16.5q1 -42 19.5 -59.5t42.5 -17.5h29q20 0 30 -11t10 -37q0 -29 -9.5 -40
t-30.5 -11q-17 0 -35.5 1t-37 6.5t-35 16t-29.5 29.5q-27 -32 -67.5 -46t-91.5 -14q-50 0 -90 13.5t-67 44.5q-10 -16 -24 -26t-29 -15.5t-31 -7.5t-30 -2h-35q-20 0 -30 11.5t-10 38.5q0 29 9.5 39t30.5 10h39q24 0 43 19.5t20 71.5q-1 8 -1 15v15z" />
    <glyph glyph-name="uniFEE2" unicode="&#x645;" horiz-adv-x="648" arabic-form="final" 
d="M354 -7q-49 0 -87.5 14t-64.5 45q-8 -13 -19 -19.5t-21 -14t-17 -19.5t-7 -35v-166h-113v187q0 32 8.5 53t22 35t29 23.5t29 19t24 21t12.5 30.5q-1 10 -1.5 20.5t-0.5 22.5q0 61 15.5 104t43 69t65.5 38t82 12t82 -12t65.5 -38t43 -69t15.5 -104q0 -9 -0.5 -17.5
t-1.5 -16.5q2 -42 20.5 -59.5t41.5 -17.5h29q20 0 30 -11t10 -37q0 -29 -9.5 -40t-30.5 -11q-17 0 -35.5 1t-36.5 6t-34.5 15.5t-29.5 30.5q-27 -32 -68 -46t-91 -14zM354 333q-48 0 -71.5 -31t-23.5 -90q0 -64 23.5 -92t71.5 -28t71 28.5t23 91.5q0 121 -94 121z" />
    <glyph glyph-name="afii57446" unicode="&#x646;" horiz-adv-x="595" arabic-form="isolated" 
d="M269 381q-10 0 -10 10v86q0 10 10 10h96q10 0 10 -10v-86q0 -10 -10 -10h-96zM103 223q5 9 15 2l81 -32q5 -2 5.5 -5.5t-1.5 -7.5q-16 -28 -30.5 -65.5t-14.5 -82.5q0 -39 12.5 -65.5t32 -42.5t43.5 -22.5t47 -6.5q58 0 93 30.5t35 98.5v297q0 10 10 10h93q10 0 10 -10
v-300q0 -57 -17.5 -100t-50 -71.5t-77.5 -42.5t-100 -14q-53 0 -97.5 14t-77.5 42.5t-51.5 71.5t-18.5 101q0 54 17 108t42 93z" />
    <glyph glyph-name="uniFEE7" unicode="&#x646;" horiz-adv-x="265" arabic-form="initial" 
d="M111 515q-10 0 -10 10v86q0 10 10 10h96q10 0 10 -10v-86q0 -10 -10 -10h-96zM5 0q-20 0 -30 7t-10 28q0 25 9.5 44.5t30.5 19.5h49q25 0 36.5 11.5t11.5 41.5v253q0 10 10 10h93q10 0 10 -10v-279q0 -65 -27 -95.5t-90 -30.5h-93z" />
    <glyph glyph-name="uniFEE8" unicode="&#x646;" horiz-adv-x="310" arabic-form="medial" 
d="M111 515q-10 0 -10 10v86q0 10 10 10h96q10 0 10 -10v-86q0 -10 -10 -10h-96zM215 161q0 -30 22.5 -46t60.5 -16h17q20 0 30 -11t10 -37q0 -29 -9.5 -40t-30.5 -11q-39 0 -68 9.5t-46 41.5q-14 -29 -41.5 -40t-75.5 -11h-79q-20 0 -30 6.5t-10 28.5q0 25 9.5 44.5
t31.5 19.5h48q17 0 27 5t14.5 16t5.5 29t1 44v212q0 10 10 10h93q10 0 10 -10v-244z" />
    <glyph glyph-name="uniFEE6" unicode="&#x646;" horiz-adv-x="628" arabic-form="final" 
d="M269 381q-10 0 -10 10v86q0 10 10 10h96q10 0 10 -10v-86q0 -10 -10 -10h-96zM421 321q0 10 10 10h93q10 0 10 -10v-160q0 -30 22.5 -46t60.5 -16h11q20 0 30 -11t10 -37q0 -29 -9.5 -40t-30.5 -11q-30 0 -53.5 6t-40.5 26v-11q0 -57 -17.5 -100t-50 -71.5t-77.5 -42.5
t-100 -14q-53 0 -97.5 14t-77.5 42.5t-51.5 71.5t-18.5 101q0 54 17 108t42 93q5 9 15 2l81 -32q5 -2 5.5 -5.5t-1.5 -7.5q-16 -28 -30.5 -65.5t-14.5 -82.5q0 -39 12.5 -65.5t32 -42.5t43.5 -22.5t47 -6.5q57 0 92.5 30.5t35.5 98.5v297z" />
    <glyph glyph-name="uniFEE9" unicode="&#x647;" horiz-adv-x="698" arabic-form="isolated" 
d="M158 0q-23 0 -29.5 -6.5t-6.5 -27.5v-37q0 -10 -10 -10h-93q-10 0 -10 10v93q0 23 7.5 38t20 23.5t28 12t32.5 3.5h86q-14 30 -14 70q0 39 11.5 67t31.5 46t46 26.5t55 8.5q63 0 104.5 -36t41.5 -112q0 -16 -2.5 -35t-7.5 -35q25 0 41 6t25 18.5t12 32t3 45.5
q0 74 -42 118t-129 44q-34 0 -71.5 -7t-75.5 -24q-6 -4 -10 -4q-5 0 -6 4l-24 61q-2 6 -2 9q0 5 5 8q94 49 204 49q79 0 131 -23t82.5 -59.5t42.5 -82t12 -91.5q0 -56 -9 -94.5t-29.5 -62.5t-53.5 -35t-80 -11h-317zM313 238q-28 0 -43.5 -18.5t-15.5 -52.5q0 -35 14 -51.5
t39 -18.5h11q26 2 39 18.5t13 51.5q0 34 -14.5 52.5t-42.5 18.5z" />
    <glyph glyph-name="uniFEEB" unicode="&#x647;" horiz-adv-x="626" arabic-form="initial" 
d="M0 0q-20 0 -30 11.5t-10 37.5q0 29 9.5 39.5t30.5 10.5h111q-14 30 -14 70q0 39 11.5 67t31.5 46t46 26.5t55 8.5q63 0 104.5 -36t41.5 -112q0 -16 -2.5 -35t-7.5 -35q25 0 41 6t25 18.5t12 32t3 45.5q0 74 -42 118t-129 44q-34 0 -71.5 -7t-75.5 -24q-6 -4 -10 -4
q-5 0 -6 4l-24 61q-2 6 -2 9q0 5 5 8q94 49 204 49q79 0 131 -23t82.5 -59.5t42.5 -82t12 -91.5q0 -56 -9 -94.5t-29.5 -62.5t-53.5 -35t-80 -11h-403zM241 238q-28 0 -43.5 -18.5t-15.5 -52.5q0 -35 14 -51.5t39 -18.5h11q26 2 39 18.5t13 51.5q0 34 -14.5 52.5t-42.5 18.5
z" />
    <glyph glyph-name="uniFEEC" unicode="&#x647;" horiz-adv-x="572" arabic-form="medial" 
d="M-40 50q0 29 9.5 39t30.5 10h98v114q0 61 17 103t44.5 68t64 37.5t75.5 11.5q45 0 83 -11.5t65.5 -35.5t43 -62.5t15.5 -92.5q0 -38 -11 -75t-24 -57h102q21 0 30.5 -10t9.5 -39q0 -27 -10 -38.5t-30 -11.5h-97q21 -29 21 -70q0 -69 -52.5 -106t-142.5 -37
q-46 0 -83.5 8.5t-64.5 27t-41.5 48t-14.5 71.5v58h-98q-40 0 -40 50zM300 333q-42 0 -66.5 -28t-24.5 -82v-125h99q23 0 39.5 10.5t27 27t15.5 38t5 44.5q0 57 -24.5 86t-70.5 29zM300 -116q47 0 66.5 15t19.5 43q0 15 -3.5 26.5t-14 19.5t-29 12t-47.5 4h-83v-53
q0 -67 91 -67z" />
    <glyph glyph-name="uniFEEA" unicode="&#x647;" horiz-adv-x="529" arabic-form="final" 
d="M331 433v43q0 10 10 10h92q10 0 10 -10v-324q0 -30 11.5 -41.5t36.5 -11.5h38q40 0 40 -50q0 -30 -9.5 -39.5t-30.5 -9.5h-81q-49 0 -76.5 17t-36.5 60q-21 -18 -50 -27t-61 -9q-39 0 -73.5 11t-60 34t-40.5 58.5t-15 85.5q0 58 16.5 97t44 62.5t62.5 33.5t73 10h100z
M237 140q48 0 71 27.5t23 80.5v85h-89q-43 0 -69 -22t-26 -81q0 -46 24 -68t66 -22z" />
    <glyph glyph-name="afii57448" unicode="&#x648;" horiz-adv-x="521" arabic-form="isolated" 
d="M247 0q-47 0 -83.5 10.5t-61.5 35t-38.5 63.5t-13.5 96q0 61 16.5 104.5t45 71t65.5 40t78 12.5q45 0 82.5 -12t64.5 -38t42 -68t15 -103v-234q0 -94 -47 -137t-137 -43h-135q-10 0 -10 10v80q0 10 10 10h117q20 0 37 3.5t29 14.5t18.5 31t6.5 53h-101zM256 333
q-46 0 -71 -34t-25 -91q0 -63 25.5 -86t73.5 -23h89v114q0 59 -22 89.5t-70 30.5z" />
    <glyph glyph-name="uniFEEE" unicode="&#x648;" horiz-adv-x="528" arabic-form="final" 
d="M140 -202q-10 0 -10 10v80q0 10 10 10h117q23 0 40 4.5t28 15.5t17 31t6 51h-101q-47 0 -83.5 10.5t-61.5 35t-38.5 63.5t-13.5 96q0 61 17 104.5t45 71t65 40t78 12.5q45 0 82.5 -12t64.5 -38t42 -68t15 -103v-113h69q20 0 30 -11t10 -37q0 -32 -9.5 -41.5t-30.5 -9.5
h-69v-22q0 -94 -47 -137t-137 -43h-135zM256 333q-45 0 -70.5 -34t-25.5 -91q0 -63 25.5 -86t73.5 -23h89v114q0 59 -22 89.5t-70 30.5z" />
    <glyph glyph-name="afii57449" unicode="&#x649;" horiz-adv-x="792" arabic-form="isolated" 
d="M148 31q0 -38 14 -63.5t36 -40.5t50 -21t57 -6h199q58 0 79.5 15.5t21.5 38.5q0 15 -16.5 30t-42 31.5l-54.5 35.5t-54.5 43.5t-42 55t-16.5 70.5q0 36 14 67.5t39.5 55t61.5 37t81 13.5q69 0 110.5 -21.5t70.5 -56.5q6 -7 -3 -14l-54 -53q-8 -6 -14 1q-21 21 -45 32.5
t-59 11.5q-34 0 -60.5 -18.5t-26.5 -54.5q0 -24 17 -44t42.5 -39t55 -39t55 -42.5t42.5 -49t17 -60.5q0 -30 -11 -57t-35 -47.5t-62 -32t-91 -11.5h-233q-130 0 -193.5 60t-63.5 163q0 54 17 108t42 93q5 9 15 2l81 -32q5 -2 5.5 -5.5t-1.5 -7.5q-16 -28 -30.5 -65.5
t-14.5 -82.5z" />
    <glyph glyph-name="uniFBE8" unicode="&#x649;" horiz-adv-x="275" arabic-form="initial" 
d="M0 0q-20 0 -30 7t-10 28q0 25 9.5 44.5t30.5 19.5h49q25 0 36.5 11.5t11.5 41.5v253q0 10 10 10h93q10 0 10 -10v-279q0 -65 -27 -95.5t-90 -30.5h-93z" />
    <glyph glyph-name="uniFBE9" unicode="&#x649;" horiz-adv-x="310" arabic-form="medial" 
d="M210 161q0 -30 22.5 -46t60.5 -16h17q20 0 30 -11t10 -37q0 -29 -9.5 -40t-30.5 -11q-39 0 -68 9.5t-46 41.5q-14 -29 -41.5 -40t-75.5 -11h-79q-20 0 -30 6.5t-10 28.5q0 25 9.5 44.5t31.5 19.5h48q17 0 27 5t14.5 16t5.5 29t1 44v212q0 10 10 10h93q10 0 10 -10v-244z
" />
    <glyph glyph-name="uniFEF0" unicode="&#x649;" horiz-adv-x="767" arabic-form="final" 
d="M500 -100q60 0 82 15t22 38q0 19 -11.5 32.5t-36 26t-62 26l-88.5 32.5q-9 3 -6 12l27 79q3 10 12 7q32 -12 61 -24.5t57 -22t55 -16t56 -6.5h100q20 0 30 -10t10 -36q0 -29 -9.5 -41t-30.5 -12h-69q5 -8 11.5 -25.5t6.5 -37.5q0 -28 -11 -53t-34.5 -44t-61 -30.5
t-91.5 -11.5h-228q-130 0 -193.5 60t-63.5 163q0 28 5.5 56.5t14.5 55t20.5 50t24.5 41.5q5 8 14 2l79 -41q8 -5 3 -13q-17 -28 -31.5 -65t-14.5 -76q0 -38 13.5 -63t35.5 -40t50 -21.5t57 -6.5h195z" />
    <glyph glyph-name="afii57450" unicode="&#x64a;" horiz-adv-x="792" arabic-form="isolated" 
d="M148 106q0 -38 14 -63.5t36 -40.5t50 -21t57 -6h199q58 0 79.5 15.5t21.5 38.5q0 15 -16.5 30t-42 31.5l-54.5 35.5t-54.5 43.5t-42 55t-16.5 70.5q0 36 14 67.5t39.5 55t61.5 37t81 13.5q69 0 110.5 -21.5t70.5 -56.5q6 -7 -3 -14l-54 -53q-8 -6 -14 1q-21 21 -45 32.5
t-59 11.5q-34 0 -60.5 -18.5t-26.5 -54.5q0 -24 17 -44t42.5 -39t55 -39t55 -42.5t42.5 -49t17 -60.5q0 -30 -11 -57t-35 -47.5t-62 -32t-91 -11.5h-233q-130 0 -193.5 60t-63.5 163q0 54 17 108t42 93q5 9 15 2l81 -32q5 -2 5.5 -5.5t-1.5 -7.5q-16 -28 -30.5 -65.5
t-14.5 -82.5zM410 -298q-10 0 -10 10v86q0 10 10 10h84q10 0 10 -10v-86q0 -10 -10 -10h-84zM280 -298q-10 0 -10 10v86q0 10 10 10h84q10 0 10 -10v-86q0 -10 -10 -10h-84z" />
    <glyph glyph-name="uniFEF3" unicode="&#x64a;" horiz-adv-x="297" arabic-form="initial" 
d="M0 0q-20 0 -30 9.5t-10 36.5q0 29 9.5 41t30.5 12h65q25 0 36.5 11.5t11.5 41.5v253q0 10 10 10h93q10 0 10 -10v-279q0 -65 -27 -95.5t-90 -30.5h-109zM168 -192q-10 0 -10 10v86q0 10 10 10h84q10 0 10 -10v-86q0 -10 -10 -10h-84zM38 -192q-10 0 -10 10v86q0 10 10 10
h84q10 0 10 -10v-86q0 -10 -10 -10h-84z" />
    <glyph glyph-name="uniFEF4" unicode="&#x64a;" horiz-adv-x="331" arabic-form="medial" 
d="M191 -192q-10 0 -10 10v86q0 10 10 10h84q10 0 10 -10v-86q0 -10 -10 -10h-84zM61 -192q-10 0 -10 10v86q0 10 10 10h84q10 0 10 -10v-86q0 -10 -10 -10h-84zM217 51q-14 -29 -42.5 -40t-76.5 -11h-93q-20 0 -30 9.5t-10 37.5q0 29 9.5 40.5t30.5 11.5h65q18 0 27.5 5.5
t14 17t5.5 30t1 45.5v208q0 6 5.5 8t11.5 2h86q10 0 10 -10v-244q0 -30 22.5 -46t60.5 -16h17q20 0 30 -11t10 -37q0 -29 -9.5 -40t-30.5 -11q-39 0 -68 9.5t-46 41.5z" />
    <glyph glyph-name="uniFEF2" unicode="&#x64a;" horiz-adv-x="773" arabic-form="final" 
d="M411 -378q-10 0 -10 10v86q0 10 10 10h84q10 0 10 -10v-86q0 -10 -10 -10h-84zM281 -378q-10 0 -10 10v86q0 10 10 10h84q10 0 10 -10v-86q0 -10 -10 -10h-84zM505 -100q60 0 82 15t22 38q0 19 -11.5 32.5t-36 26t-62 26l-88.5 32.5q-9 3 -6 12l27 79q3 10 12 7
q32 -12 61 -24.5t57 -22t55 -16t56 -6.5h100q20 0 30 -10t10 -36q0 -29 -9.5 -41t-30.5 -12h-69q5 -8 11.5 -25.5t6.5 -37.5q0 -28 -11 -53t-34.5 -44t-61 -30.5t-91.5 -11.5h-228q-130 0 -193.5 60t-63.5 163q0 28 5.5 56.5t14.5 55t20.5 50t24.5 41.5q5 8 14 2l79 -41
q8 -5 3 -13q-17 -28 -31.5 -65t-14.5 -76q0 -38 13.5 -63t35.5 -40t50 -21.5t57 -6.5h195z" />
    <glyph glyph-name="uni0671" unicode="&#x671;" horiz-adv-x="243" arabic-form="isolated" 
d="M178 10q0 -10 -10 -10h-93q-10 0 -10 10v660q0 10 10 10h93q10 0 10 -10v-660zM25 802q10 0 10 11v91q0 7 8 7h33q8 0 8 -7v-10q15 7 32.5 11.5t34.5 4.5q45 0 62.5 -23.5t17.5 -58.5q0 -37 -13 -53t-41 -16h-164q-7 0 -7 7v29q0 7 7 7h12zM144 867q-14 0 -30 -5t-30 -10
v-50h76q14 0 18 5.5t4 22.5q0 18 -8.5 27.5t-29.5 9.5z" />
    <glyph glyph-name="uniFB51" unicode="&#x671;" horiz-adv-x="261" arabic-form="final" 
d="M29 802q10 0 10 11v91q0 7 8 7h33q8 0 8 -7v-10q15 7 32.5 11.5t34.5 4.5q45 0 62.5 -23.5t17.5 -58.5q0 -37 -13 -53t-41 -16h-164q-7 0 -7 7v29q0 7 7 7h12zM148 867q-14 0 -30 -5t-30 -10v-50h76q14 0 18 5.5t4 22.5q0 18 -8.5 27.5t-29.5 9.5zM65 670q0 10 10 10h93
q10 0 10 -10v-518q0 -30 11.5 -41.5t36.5 -11.5h35q20 0 30 -11.5t10 -39.5q0 -31 -9.5 -39.5t-30.5 -8.5h-79q-63 0 -90 30.5t-27 95.5v544z" />
    <glyph glyph-name="afii57511" unicode="&#x679;" horiz-adv-x="839" arabic-form="isolated" 
d="M627 99q26 0 37.5 11.5t11.5 41.5v253q0 10 10 10h92q10 0 10 -10v-279q0 -65 -27 -95.5t-92 -30.5h-499q-63 0 -90 30.5t-27 95.5v215q0 10 10 10h92q10 0 10 -10v-189q0 -30 11.5 -41.5t36.5 -11.5h414v0zM317 480q10 0 12 6.5t2 29.5v135q0 7 8 7h33q8 0 8 -7v-78
q15 7 32.5 11t34.5 4q45 0 62.5 -23t17.5 -57q0 -38 -13 -54t-41 -16h-164q-7 0 -7 7v28q0 7 7 7h8zM439 546q-14 0 -29.5 -5t-29.5 -11v-50h75q15 0 19 6t4 23q0 18 -8.5 27.5t-30.5 9.5z" />
    <glyph glyph-name="uniFB68" unicode="&#x679;" horiz-adv-x="275" arabic-form="initial" 
d="M54 546q10 0 12 6.5t2 29.5v135q0 7 8 7h33q8 0 8 -7v-78q15 7 32.5 11t34.5 4q45 0 62.5 -23t17.5 -57q0 -38 -13 -54t-41 -16h-164q-7 0 -7 7v28q0 7 7 7h8zM176 612q-14 0 -29.5 -5t-29.5 -11v-50h75q15 0 19 6t4 23q0 18 -8.5 27.5t-30.5 9.5zM0 0q-20 0 -30 7
t-10 28q0 25 9.5 44.5t30.5 19.5h49q25 0 36.5 11.5t11.5 41.5v253q0 10 10 10h93q10 0 10 -10v-279q0 -65 -27 -95.5t-90 -30.5h-93z" />
    <glyph glyph-name="uniFB69" unicode="&#x679;" horiz-adv-x="310" arabic-form="medial" 
d="M61 546q10 0 12 6.5t2 29.5v135q0 7 8 7h33q8 0 8 -7v-78q15 7 32.5 11t34.5 4q45 0 62.5 -23t17.5 -57q0 -38 -13 -54t-41 -16h-164q-7 0 -7 7v28q0 7 7 7h8zM183 612q-14 0 -29.5 -5t-29.5 -11v-50h75q15 0 19 6t4 23q0 18 -8.5 27.5t-30.5 9.5zM215 161
q0 -30 22.5 -46t60.5 -16h17q20 0 30 -11t10 -37q0 -29 -9.5 -40t-30.5 -11q-39 0 -68 9.5t-46 41.5q-14 -29 -41.5 -40t-75.5 -11h-79q-20 0 -30 6.5t-10 28.5q0 25 9.5 44.5t31.5 19.5h48q17 0 27 5t14.5 16t5.5 29t1 44v212q0 10 10 10h93q10 0 10 -10v-244z" />
    <glyph glyph-name="uniFB67" unicode="&#x679;" horiz-adv-x="883" arabic-form="final" 
d="M317 480q10 0 12 6.5t2 29.5v135q0 7 8 7h33q8 0 8 -7v-78q15 7 32.5 11t34.5 4q45 0 62.5 -23t17.5 -57q0 -38 -13 -54t-41 -16h-164q-7 0 -7 7v28q0 7 7 7h8zM439 546q-14 0 -29.5 -5t-29.5 -11v-50h75q15 0 19 6t4 23q0 18 -8.5 27.5t-30.5 9.5zM788 158q2 -29 24 -44
t59 -15h17q20 0 30 -11t10 -37q0 -29 -9.5 -40t-30.5 -11q-38 0 -67 9.5t-46 41.5q-14 -28 -41.5 -39.5t-74.5 -11.5h-489q-63 0 -90 30.5t-27 95.5v215q0 10 10 10h92q10 0 10 -10v-189q0 -30 11.5 -41.5t36.5 -11.5h414q17 0 26.5 4.5t14.5 14.5t6.5 27t1.5 41v219
q0 10 10 10h92q10 0 10 -10v-247z" />
    <glyph glyph-name="afii57506" unicode="&#x67e;" horiz-adv-x="839" arabic-form="isolated" 
d="M627 99q26 0 37.5 11.5t11.5 41.5v253q0 10 10 10h92q10 0 10 -10v-279q0 -65 -27 -95.5t-92 -30.5h-499q-63 0 -90 30.5t-27 95.5v215q0 10 10 10h92q10 0 10 -10v-189q0 -30 11.5 -41.5t36.5 -11.5h414v0zM445 -192q-10 0 -10 10v86q0 10 10 10h84q10 0 10 -10v-86
q0 -10 -10 -10h-84zM315 -192q-10 0 -10 10v86q0 10 10 10h84q10 0 10 -10v-86q0 -10 -10 -10h-84zM383 -316q-10 0 -10 10v86q0 10 10 10h84q10 0 10 -10v-86q0 -10 -10 -10h-84z" />
    <glyph glyph-name="uniFB58" unicode="&#x67e;" horiz-adv-x="297" arabic-form="initial" 
d="M0 0q-20 0 -30 9.5t-10 36.5q0 29 9.5 41t30.5 12h65q25 0 36.5 11.5t11.5 41.5v253q0 10 10 10h93q10 0 10 -10v-279q0 -65 -27 -95.5t-90 -30.5h-109zM163 -192q-10 0 -10 10v86q0 10 10 10h84q10 0 10 -10v-86q0 -10 -10 -10h-84zM33 -192q-10 0 -10 10v86q0 10 10 10
h84q10 0 10 -10v-86q0 -10 -10 -10h-84zM101 -316q-10 0 -10 10v86q0 10 10 10h84q10 0 10 -10v-86q0 -10 -10 -10h-84z" />
    <glyph glyph-name="uniFB59" unicode="&#x67e;" horiz-adv-x="331" arabic-form="medial" 
d="M196 -192q-10 0 -10 10v86q0 10 10 10h84q10 0 10 -10v-86q0 -10 -10 -10h-84zM66 -192q-10 0 -10 10v86q0 10 10 10h84q10 0 10 -10v-86q0 -10 -10 -10h-84zM134 -316q-10 0 -10 10v86q0 10 10 10h84q10 0 10 -10v-86q0 -10 -10 -10h-84zM217 51q-14 -29 -42.5 -40
t-76.5 -11h-93q-20 0 -30 9.5t-10 37.5q0 29 9.5 40.5t30.5 11.5h65q18 0 27.5 5.5t14 17t5.5 30t1 45.5v208q0 6 5.5 8t11.5 2h86q10 0 10 -10v-244q0 -30 22.5 -46t60.5 -16h17q20 0 30 -11t10 -37q0 -29 -9.5 -40t-30.5 -11q-39 0 -68 9.5t-46 41.5z" />
    <glyph glyph-name="uniFB57" unicode="&#x67e;" horiz-adv-x="883" arabic-form="final" 
d="M788 158q2 -29 24 -44t59 -15h17q20 0 30 -11t10 -37q0 -29 -9.5 -40t-30.5 -11q-38 0 -67 9.5t-46 41.5q-14 -28 -41.5 -39.5t-74.5 -11.5h-489q-63 0 -90 30.5t-27 95.5v215q0 10 10 10h92q10 0 10 -10v-189q0 -30 11.5 -41.5t36.5 -11.5h414q17 0 26.5 4.5t14.5 14.5
t6.5 27t1.5 41v219q0 10 10 10h92q10 0 10 -10v-247zM444 -192q-10 0 -10 10v86q0 10 10 10h84q10 0 10 -10v-86q0 -10 -10 -10h-84zM314 -192q-10 0 -10 10v86q0 10 10 10h84q10 0 10 -10v-86q0 -10 -10 -10h-84zM382 -316q-10 0 -10 10v86q0 10 10 10h84q10 0 10 -10v-86
q0 -10 -10 -10h-84z" />
    <glyph glyph-name="afii57507" unicode="&#x686;" horiz-adv-x="563" arabic-form="isolated" 
d="M193 0q-29 0 -40 -14.5t-11 -36.5q0 -27 15 -39t60 -12h27q10 0 10 -10v-80q0 -10 -10 -10h-39q-84 0 -131 34t-47 117q0 44 13.5 73t35 46t49 24t55.5 7h139q26 0 42 4t25 14t12 26.5t3 40.5q0 32 -6 59.5t-20 47.5t-36.5 31t-56.5 11q-32 0 -59 -13t-49 -35
q-7 -7 -14 -1l-51 54q-9 7 -3 14q32 35 74.5 58t104.5 23q67 0 112 -20.5t72 -55t38.5 -80t11.5 -96.5q0 -54 -10 -89t-29.5 -55.5t-48.5 -28.5t-68 -8h-170zM368 -126q-6 0 -6 7v58q0 7 6 7h57q7 0 7 -7v-58q0 -7 -7 -7h-57zM281 -126q-7 0 -7 7v58q0 7 7 7h56q7 0 7 -7
v-58q0 -7 -7 -7h-56zM327 -209q-7 0 -7 6v59q0 6 7 6h56q7 0 7 -6v-59q0 -6 -7 -6h-56z" />
    <glyph glyph-name="uniFB7C" unicode="&#x686;" horiz-adv-x="517" arabic-form="initial" 
d="M0 0q-20 0 -30 11.5t-10 38.5q0 29 9.5 39t30.5 10h266q26 0 42 4t25 14t12 26.5t3 40.5q0 32 -6 59.5t-20 47.5t-36.5 31t-56.5 11q-33 0 -60 -13t-48 -35q-7 -7 -14 -1l-52 54q-8 8 -2 14q31 35 74 58t105 23q67 0 112 -20.5t72 -55t38.5 -80t11.5 -96.5q0 -54 -10 -89
t-29.5 -55.5t-49 -28.5t-68.5 -8h-309zM277 -192q-10 0 -10 10v86q0 10 10 10h84q10 0 10 -10v-86q0 -10 -10 -10h-84zM147 -192q-10 0 -10 10v86q0 10 10 10h84q10 0 10 -10v-86q0 -10 -10 -10h-84zM215 -316q-10 0 -10 10v86q0 10 10 10h84q10 0 10 -10v-86q0 -10 -10 -10
h-84z" />
    <glyph glyph-name="uniFB7D" unicode="&#x686;" horiz-adv-x="565" arabic-form="medial" 
d="M53 352q31 35 74 58t105 23q67 0 112 -20.5t72 -55t38.5 -80t11.5 -96.5q0 -7 -0.5 -13t-0.5 -12q3 -27 24.5 -42t58.5 -15h17q20 0 30 -11t10 -37q0 -29 -9.5 -40t-30.5 -11q-42 0 -73.5 11t-48.5 48q-19 -34 -52.5 -46.5t-81.5 -12.5h-309q-20 0 -30 11.5t-10 38.5
q0 29 9.5 39t30.5 10h266q26 0 42 4t25 14t12 26.5t3 40.5q0 32 -6 59t-20 47t-36.5 31.5t-56.5 11.5q-33 0 -60 -13t-48 -35q-7 -7 -14 -1l-52 54q-8 8 -2 14zM277 -192q-10 0 -10 10v86q0 10 10 10h84q10 0 10 -10v-86q0 -10 -10 -10h-84zM147 -192q-10 0 -10 10v86
q0 10 10 10h84q10 0 10 -10v-86q0 -10 -10 -10h-84zM215 -316q-10 0 -10 10v86q0 10 10 10h84q10 0 10 -10v-86q0 -10 -10 -10h-84z" />
    <glyph glyph-name="uniFB7B" unicode="&#x686;" horiz-adv-x="618" arabic-form="final" 
d="M193 0q-29 0 -40 -14.5t-11 -36.5q0 -27 15 -39t60 -12h27q10 0 10 -10v-80q0 -10 -10 -10h-39q-84 0 -131 34t-47 117q0 44 13.5 73t35 46t49 24t55.5 7h144q26 0 42 4t25 14t12 26.5t3 40.5q0 32 -5.5 59.5t-19 47.5t-36 31t-56.5 11q-32 0 -59 -13t-49 -35
q-7 -7 -14 -1l-51 54q-9 7 -3 14q32 35 74.5 58t104.5 23q67 0 111.5 -20.5t71.5 -55t38 -80t11 -96.5q0 -7 -0.5 -13t-0.5 -12q3 -27 24.5 -42t58.5 -15h17q20 0 30 -11t10 -37q0 -29 -9.5 -40t-30.5 -11q-42 0 -73.5 11t-48.5 48q-19 -34 -52.5 -46.5t-81.5 -12.5h-174z
M368 -126q-6 0 -6 7v58q0 7 6 7h57q7 0 7 -7v-58q0 -7 -7 -7h-57zM281 -126q-7 0 -7 7v58q0 7 7 7h56q7 0 7 -7v-58q0 -7 -7 -7h-56zM327 -209q-7 0 -7 6v59q0 6 7 6h56q7 0 7 -6v-59q0 -6 -7 -6h-56z" />
    <glyph glyph-name="afii57512" unicode="&#x688;" horiz-adv-x="492" arabic-form="isolated" 
d="M440 171q0 -50 -9 -82.5t-27 -52.5t-46 -28t-66 -8h-232q-10 0 -10 10v79q0 10 10 10h186q27 0 43 4t24.5 13.5t11 24.5t2.5 37v67q0 88 -102 88h-120q-10 0 -10 10v80q0 10 10 10h160q80 0 127.5 -43.5t47.5 -135.5v-83zM131 546q10 0 12 6.5t2 29.5v135q0 7 8 7h33
q8 0 8 -7v-78q15 7 32.5 11t34.5 4q45 0 62.5 -23t17.5 -57q0 -38 -13 -54t-41 -16h-164q-7 0 -7 7v28q0 7 7 7h8zM253 612q-14 0 -29.5 -5t-29.5 -11v-50h75q15 0 19 6t4 23q0 18 -8.5 27.5t-30.5 9.5z" />
    <glyph glyph-name="uniFB89" unicode="&#x688;" horiz-adv-x="539" arabic-form="final" 
d="M105 333q-10 0 -10 10v80q0 10 10 10h152q84 0 133.5 -42t49.5 -137v-94q0 -29 22 -45t60 -16h17q20 0 30 -11t10 -37q0 -29 -9.5 -40t-30.5 -11q-42 0 -72.5 11t-47.5 46q-19 -34 -51.5 -45.5t-83.5 -11.5h-224q-10 0 -10 10v79q0 10 10 10h186q27 0 43 4t24.5 13.5
t11 24.5t2.5 37v67q0 46 -25.5 67t-76.5 21h-120zM131 546q10 0 12 6.5t2 29.5v135q0 7 8 7h33q8 0 8 -7v-78q15 7 32.5 11t34.5 4q45 0 62.5 -23t17.5 -57q0 -38 -13 -54t-41 -16h-164q-7 0 -7 7v28q0 7 7 7h8zM253 612q-14 0 -29.5 -5t-29.5 -11v-50h75q15 0 19 6t4 23
q0 18 -8.5 27.5t-30.5 9.5z" />
    <glyph glyph-name="afii57513" unicode="&#x691;" horiz-adv-x="286" arabic-form="isolated" 
d="M11 -202q-10 0 -10 10v80q0 10 10 10h22q42 0 60.5 21t18.5 64v422q0 10 10 10h93q10 0 10 -10v-424q0 -183 -177 -183h-37zM69 546q10 0 12 6.5t2 29.5v135q0 7 8 7h33q8 0 8 -7v-78q15 7 32.5 11t34.5 4q45 0 62.5 -23t17.5 -57q0 -38 -13 -54t-41 -16h-164q-7 0 -7 7
v28q0 7 7 7h8zM191 612q-14 0 -29.5 -5t-29.5 -11v-50h75q15 0 19 6t4 23q0 18 -8.5 27.5t-30.5 9.5z" />
    <glyph glyph-name="uniFB8D" unicode="&#x691;" horiz-adv-x="325" arabic-form="final" 
d="M112 405q0 10 10 10h93q10 0 10 -10v-244q0 -30 22.5 -46t60.5 -16h17q20 0 30 -11t10 -37q0 -29 -9.5 -40t-30.5 -11q-34 0 -58.5 6t-41.5 27v-19q0 -54 -9 -94.5t-29.5 -67.5t-54.5 -40.5t-84 -13.5h-37q-10 0 -10 10v80q0 10 10 10h22q29 0 45 10t23.5 29.5t9 47
t1.5 63.5v357zM70 546q10 0 12 6.5t2 29.5v135q0 7 8 7h33q8 0 8 -7v-78q15 7 32.5 11t34.5 4q45 0 62.5 -23t17.5 -57q0 -38 -13 -54t-41 -16h-164q-7 0 -7 7v28q0 7 7 7h8zM192 612q-14 0 -29.5 -5t-29.5 -11v-50h75q15 0 19 6t4 23q0 18 -8.5 27.5t-30.5 9.5z" />
    <glyph glyph-name="afii57508" unicode="&#x698;" horiz-adv-x="286" arabic-form="isolated" 
d="M11 -202q-10 0 -10 10v80q0 10 10 10h22q42 0 60.5 21t18.5 64v422q0 10 10 10h93q10 0 10 -10v-424q0 -183 -177 -183h-37zM192 515q-10 0 -10 10v86q0 10 10 10h84q10 0 10 -10v-86q0 -10 -10 -10h-84zM62 515q-10 0 -10 10v86q0 10 10 10h84q10 0 10 -10v-86
q0 -10 -10 -10h-84zM126 644q-10 0 -10 10v86q0 10 10 10h84q10 0 10 -10v-86q0 -10 -10 -10h-84z" />
    <glyph glyph-name="uniFB8B" unicode="&#x698;" horiz-adv-x="325" arabic-form="final" 
d="M112 405q0 10 10 10h93q10 0 10 -10v-244q0 -30 22.5 -46t60.5 -16h17q20 0 30 -11t10 -37q0 -29 -9.5 -40t-30.5 -11q-34 0 -58.5 6t-41.5 27v-19q0 -54 -9 -94.5t-29.5 -67.5t-54.5 -40.5t-84 -13.5h-37q-10 0 -10 10v80q0 10 10 10h22q29 0 45 10t23.5 29.5t9 47
t1.5 63.5v357zM194 515q-10 0 -10 10v86q0 10 10 10h84q10 0 10 -10v-86q0 -10 -10 -10h-84zM64 515q-10 0 -10 10v86q0 10 10 10h84q10 0 10 -10v-86q0 -10 -10 -10h-84zM128 644q-10 0 -10 10v86q0 10 10 10h84q10 0 10 -10v-86q0 -10 -10 -10h-84z" />
    <glyph glyph-name="afii57505" unicode="&#x6a4;" horiz-adv-x="961" arabic-form="isolated" 
d="M165 0q-63 0 -90 30.5t-27 95.5v215q0 10 10 10h92q10 0 10 -10v-189q0 -30 11.5 -41.5t36.5 -11.5h311q-23 43 -23 111q0 61 16.5 104t45 69t65.5 38t79 12q44 0 82 -12t65.5 -38t43 -69t15.5 -104q0 -59 -15 -99t-42.5 -65t-65.5 -35.5t-83 -10.5h-537zM702 333
q-46 0 -70.5 -30.5t-24.5 -85.5q0 -66 23.5 -92.5t71.5 -26.5t71 25.5t23 88.5q0 121 -94 121zM725 515q-10 0 -10 10v86q0 10 10 10h84q10 0 10 -10v-86q0 -10 -10 -10h-84zM595 515q-10 0 -10 10v86q0 10 10 10h84q10 0 10 -10v-86q0 -10 -10 -10h-84zM659 644
q-10 0 -10 10v86q0 10 10 10h84q10 0 10 -10v-86q0 -10 -10 -10h-84z" />
    <glyph glyph-name="uniFB6C" unicode="&#x6a4;" horiz-adv-x="542" arabic-form="initial" 
d="M5 0q-21 0 -30.5 10t-9.5 41q0 26 10 37t30 11h95q-23 43 -23 111q0 61 16.5 104t45 69t66 38t78.5 12q44 0 82 -12t65.5 -38t43 -69t15.5 -104q0 -59 -15 -99t-42 -65t-65 -35.5t-84 -10.5h-278zM283 333q-46 0 -70 -30.5t-24 -85.5q0 -66 23 -92.5t71 -26.5
q49 0 72 25.5t23 88.5q0 121 -95 121zM308 515q-10 0 -10 10v86q0 10 10 10h84q10 0 10 -10v-86q0 -10 -10 -10h-84zM178 515q-10 0 -10 10v86q0 10 10 10h84q10 0 10 -10v-86q0 -10 -10 -10h-84zM242 644q-10 0 -10 10v86q0 10 10 10h84q10 0 10 -10v-86q0 -10 -10 -10h-84
z" />
    <glyph glyph-name="uniFB6D" unicode="&#x6a4;" horiz-adv-x="538" arabic-form="medial" 
d="M269 433q102 0 156 -48.5t54 -129.5q0 -49 -22.5 -89.5t-60.5 -66.5h142q20 0 30 -9.5t10 -37.5q0 -29 -9.5 -40.5t-30.5 -11.5h-139q-36 0 -68 3t-61 21q-33 -18 -70.5 -21t-66.5 -3h-133q-20 0 -30 12t-10 39q0 29 9.5 38.5t30.5 9.5h141q-37 26 -59.5 66.5t-22.5 89.5
q0 81 54 129.5t156 48.5zM269 344q-39 0 -67.5 -24.5t-28.5 -72.5q0 -51 28 -82.5t68 -48.5q39 17 67 48.5t28 82.5q0 48 -28 72.5t-67 24.5zM296 515q-10 0 -10 10v86q0 10 10 10h84q10 0 10 -10v-86q0 -10 -10 -10h-84zM166 515q-10 0 -10 10v86q0 10 10 10h84
q10 0 10 -10v-86q0 -10 -10 -10h-84zM230 644q-10 0 -10 10v86q0 10 10 10h84q10 0 10 -10v-86q0 -10 -10 -10h-84z" />
    <glyph glyph-name="uniFB6B" unicode="&#x6a4;" horiz-adv-x="964" arabic-form="final" 
d="M695 344q-39 0 -67 -24.5t-28 -73.5q0 -50 28 -81.5t67 -48.5q40 17 68 48.5t28 81.5q0 49 -28.5 73.5t-67.5 24.5zM568 99q-38 26 -60.5 66.5t-22.5 88.5q0 82 54 130.5t156 48.5t156 -48.5t54 -130.5q0 -48 -22.5 -88.5t-60.5 -66.5h142q20 0 30 -9.5t10 -37.5
q0 -29 -9.5 -40.5t-30.5 -11.5h-127q-46 0 -80.5 4t-60.5 20q-36 -17 -77 -20.5t-97 -3.5h-357q-63 0 -90 30.5t-27 95.5v217q0 10 10 10h92q10 0 10 -10v-191q0 -30 11.5 -41.5t36.5 -11.5h360zM722 515q-10 0 -10 10v86q0 10 10 10h84q10 0 10 -10v-86q0 -10 -10 -10h-84z
M592 515q-10 0 -10 10v86q0 10 10 10h84q10 0 10 -10v-86q0 -10 -10 -10h-84zM656 644q-10 0 -10 10v86q0 10 10 10h84q10 0 10 -10v-86q0 -10 -10 -10h-84z" />
    <glyph glyph-name="uni06A9" unicode="&#x6a9;" horiz-adv-x="862" arabic-form="isolated" 
d="M618 99q26 0 41.5 4t24 13t11 24t2.5 38v54q0 29 -8.5 46.5t-25 26.5t-41 12t-56.5 3h-131q-7 0 -8.5 6.5t-1.5 12.5v60q0 5 3.5 9.5t5.5 6.5l222 262q6 7 13 3l65 -54q8 -6 4 -14l-165 -193q52 -1 95.5 -7t75 -24.5t49 -54t17.5 -95.5v-67q0 -50 -9 -82.5t-27 -52.5
t-46 -28t-66 -8h-497q-63 0 -90 30.5t-27 95.5v215q0 10 10 10h92q10 0 10 -10v-189q0 -30 11.5 -41.5t36.5 -11.5h410z" />
    <glyph glyph-name="uniFB90" unicode="&#x6a9;" horiz-adv-x="494" arabic-form="initial" 
d="M205 419q53 -1 97 -7.5t75 -26t48 -56.5t17 -98v-60q0 -50 -9 -82.5t-27 -52.5t-46 -28t-66 -8h-294q-20 0 -30 11.5t-10 40.5t9.5 38t30.5 9h248q27 0 43 4t24.5 13t11 24t2.5 38v54q0 45 -24.5 66.5t-77.5 21.5h-161q-10 0 -10 10v69q0 7 6 13t10 11l216 254q6 7 13 3
l65 -54q8 -6 4 -14z" />
    <glyph glyph-name="uniFB91" unicode="&#x6a9;" horiz-adv-x="541" arabic-form="medial" 
d="M56 399q0 7 6 13t10 11l216 254q6 7 13 3l65 -54q8 -6 4 -14l-165 -193q51 -1 94.5 -7t75 -24.5t49.5 -54t18 -95.5v-83q0 -27 22.5 -41.5t59.5 -14.5h17q20 0 30 -11t10 -37q0 -29 -9.5 -40t-30.5 -11q-42 0 -73 11t-48 46q-17 -32 -48 -44.5t-78 -12.5h-294
q-20 0 -30 11.5t-10 40.5t9.5 38t30.5 9h248q27 0 43 4t24.5 13t11 24t2.5 38v54q0 88 -102 88h-161q-10 0 -10 10v69z" />
    <glyph glyph-name="uniFB8F" unicode="&#x6a9;" horiz-adv-x="908" arabic-form="final" 
d="M165 0q-63 0 -90 30.5t-27 95.5v215q0 10 10 10h92q10 0 10 -10v-189q0 -30 11.5 -41.5t36.5 -11.5h409q26 0 42 4t24.5 13t11 24t2.5 38v54q0 88 -102 88h-160q-7 0 -8.5 6.5t-1.5 12.5v60q0 5 3.5 9.5t5.5 6.5l222 262q6 7 13 3l65 -54q8 -6 4 -14l-165 -193
q52 -1 95.5 -7t75 -24.5t49 -54t17.5 -95.5v-86q0 -26 23 -39.5t58 -13.5h17q20 0 30 -11t10 -37q0 -29 -9.5 -40t-30.5 -11q-41 0 -72 11t-48 45q-18 -32 -48.5 -44t-77.5 -12h-497z" />
    <glyph glyph-name="afii57509" unicode="&#x6af;" horiz-adv-x="862" arabic-form="isolated" 
d="M618 99q26 0 41.5 4t24 13t11 24t2.5 38v54q0 29 -8.5 46.5t-25 26.5t-41 12t-56.5 3h-131q-7 0 -8.5 6.5t-1.5 12.5v60q0 5 3.5 9.5t5.5 6.5l222 262q6 7 13 3l65 -54q8 -6 4 -14l-165 -193q52 -1 95.5 -7t75 -24.5t49 -54t17.5 -95.5v-67q0 -50 -9 -82.5t-27 -52.5
t-46 -28t-66 -8h-497q-63 0 -90 30.5t-27 95.5v215q0 10 10 10h92q10 0 10 -10v-189q0 -30 11.5 -41.5t36.5 -11.5h410zM394 453q-6 -7 -13 -3l-60 49q-8 5 -4 14l221 259q6 7 13 3l59 -49q8 -6 4 -14z" />
    <glyph glyph-name="uniFB94" unicode="&#x6af;" horiz-adv-x="527" arabic-form="initial" 
d="M238 419q53 -1 97 -7.5t75 -26t48 -56.5t17 -98v-60q0 -50 -9 -82.5t-27 -52.5t-46 -28t-66 -8h-327q-20 0 -30 11.5t-10 40.5t9.5 38t30.5 9h276q27 0 43 4t24.5 13t11 24t2.5 38v54q0 45 -24.5 66.5t-77.5 21.5h-156q-10 0 -10 10v69q0 7 6 13t10 11l216 254q6 7 13 3
l65 -54q8 -6 4 -14zM63 453q-6 -7 -13 -3l-60 49q-8 5 -4 14l221 259q6 7 13 3l59 -49q8 -6 4 -14z" />
    <glyph glyph-name="uniFB95" unicode="&#x6af;" horiz-adv-x="574" arabic-form="medial" 
d="M238 419q51 -1 94.5 -7t75 -24.5t49.5 -54t18 -95.5v-59q0 -6 -0.5 -12t-0.5 -12q2 -27 24 -41.5t59 -14.5h17q20 0 30 -11t10 -37q0 -29 -9.5 -40t-30.5 -11q-42 0 -73 11t-48 46q-17 -32 -48 -44.5t-78 -12.5h-327q-20 0 -30 11.5t-10 40.5t9.5 38t30.5 9h276
q27 0 43 4t24.5 13t11 24t2.5 38v54q0 88 -102 88h-156q-10 0 -10 10v69q0 7 5.5 13t9.5 10l217 255q6 7 13 3l65 -54q8 -6 4 -14zM63 453q-6 -7 -13 -3l-60 49q-8 5 -4 14l221 259q6 7 13 3l59 -49q8 -6 4 -14z" />
    <glyph glyph-name="uniFB93" unicode="&#x6af;" horiz-adv-x="923" arabic-form="final" 
d="M401 453q-6 -7 -13 -3l-60 49q-8 5 -4 14l221 259q6 7 13 3l59 -49q8 -6 4 -14zM172 0q-63 0 -90 30.5t-27 95.5v215q0 10 10 10h92q10 0 10 -10v-189q0 -30 11.5 -41.5t36.5 -11.5h409q26 0 42 4t24.5 13t11 24t2.5 38v54q0 88 -102 88h-160q-7 0 -8.5 6.5t-1.5 12.5v60
q0 5 3.5 9.5t5.5 6.5l222 262q6 7 13 3l65 -54q8 -6 4 -14l-165 -193q52 -1 95.5 -7t75 -24.5t49 -54t17.5 -95.5v-86q0 -26 23 -39.5t58 -13.5h17q20 0 30 -11t10 -37q0 -29 -9.5 -40t-30.5 -11q-41 0 -72 11t-48 45q-18 -32 -48.5 -44t-77.5 -12h-497z" />
    <glyph glyph-name="afii57514" unicode="&#x6ba;" horiz-adv-x="595" arabic-form="isolated" 
d="M103 223q5 9 15 2l81 -32q5 -2 5.5 -5.5t-1.5 -7.5q-16 -28 -30.5 -65.5t-14.5 -82.5q0 -39 12.5 -65.5t32 -42.5t43.5 -22.5t47 -6.5q58 0 93 30.5t35 98.5v297q0 10 10 10h93q10 0 10 -10v-300q0 -57 -17.5 -100t-50 -71.5t-77.5 -42.5t-100 -14q-53 0 -97.5 14
t-77.5 42.5t-51.5 71.5t-18.5 101q0 54 17 108t42 93z" />
    <glyph glyph-name="uniFB9F" unicode="&#x6ba;" horiz-adv-x="628" arabic-form="final" 
d="M421 321q0 10 10 10h93q10 0 10 -10v-160q0 -30 22.5 -46t60.5 -16h11q20 0 30 -11t10 -37q0 -29 -9.5 -40t-30.5 -11q-30 0 -53.5 6t-40.5 26v-11q0 -57 -17.5 -100t-50 -71.5t-77.5 -42.5t-100 -14q-53 0 -97.5 14t-77.5 42.5t-51.5 71.5t-18.5 101q0 54 17 108t42 93
q5 9 15 2l81 -32q5 -2 5.5 -5.5t-1.5 -7.5q-16 -28 -30.5 -65.5t-14.5 -82.5q0 -39 12.5 -65.5t32 -42.5t43.5 -22.5t47 -6.5q57 0 92.5 30.5t35.5 98.5v297z" />
    <glyph glyph-name="uni06BE" unicode="&#x6be;" horiz-adv-x="698" arabic-form="isolated" 
d="M158 0q-23 0 -29.5 -6.5t-6.5 -27.5v-37q0 -10 -10 -10h-93q-10 0 -10 10v93q0 23 7.5 38t20 23.5t28 12t32.5 3.5h86q-14 30 -14 70q0 39 11.5 67t31.5 46t46 26.5t55 8.5q63 0 104.5 -36t41.5 -112q0 -16 -2.5 -35t-7.5 -35q25 0 41 6t25 18.5t12 32t3 45.5
q0 74 -42 118t-129 44q-34 0 -71.5 -7t-75.5 -24q-6 -4 -10 -4q-5 0 -6 4l-24 61q-2 6 -2 9q0 5 5 8q94 49 204 49q79 0 131 -23t82.5 -59.5t42.5 -82t12 -91.5q0 -56 -9 -94.5t-29.5 -62.5t-53.5 -35t-80 -11h-317zM313 238q-28 0 -43.5 -18.5t-15.5 -52.5q0 -35 14 -51.5
t39 -18.5h11q26 2 39 18.5t13 51.5q0 34 -14.5 52.5t-42.5 18.5z" />
    <glyph glyph-name="uniFBAC" unicode="&#x6be;" horiz-adv-x="626" arabic-form="initial" 
d="M0 0q-20 0 -30 11.5t-10 37.5q0 29 9.5 39.5t30.5 10.5h111q-14 30 -14 70q0 39 11.5 67t31.5 46t46 26.5t55 8.5q63 0 104.5 -36t41.5 -112q0 -16 -2.5 -35t-7.5 -35q25 0 41 6t25 18.5t12 32t3 45.5q0 74 -42 118t-129 44q-34 0 -71.5 -7t-75.5 -24q-6 -4 -10 -4
q-5 0 -6 4l-24 61q-2 6 -2 9q0 5 5 8q94 49 204 49q79 0 131 -23t82.5 -59.5t42.5 -82t12 -91.5q0 -56 -9 -94.5t-29.5 -62.5t-53.5 -35t-80 -11h-403zM241 238q-28 0 -43.5 -18.5t-15.5 -52.5q0 -35 14 -51.5t39 -18.5h11q26 2 39 18.5t13 51.5q0 34 -14.5 52.5t-42.5 18.5
z" />
    <glyph glyph-name="uniFBAD" unicode="&#x6be;" horiz-adv-x="572" arabic-form="medial" 
d="M-40 50q0 29 9.5 39t30.5 10h98v114q0 61 17 103t44.5 68t64 37.5t75.5 11.5q45 0 83 -11.5t65.5 -35.5t43 -62.5t15.5 -92.5q0 -38 -11 -75t-24 -57h102q21 0 30.5 -10t9.5 -39q0 -27 -10 -38.5t-30 -11.5h-97q21 -29 21 -70q0 -69 -52.5 -106t-142.5 -37
q-46 0 -83.5 8.5t-64.5 27t-41.5 48t-14.5 71.5v58h-98q-40 0 -40 50zM300 333q-42 0 -66.5 -28t-24.5 -82v-125h99q23 0 39.5 10.5t27 27t15.5 38t5 44.5q0 57 -24.5 86t-70.5 29zM300 -116q47 0 66.5 15t19.5 43q0 15 -3.5 26.5t-14 19.5t-29 12t-47.5 4h-83v-53
q0 -67 91 -67z" />
    <glyph glyph-name="uniFBAB" unicode="&#x6be;" horiz-adv-x="658" arabic-form="final" 
d="M184 99v112q0 61 17.5 103t47 68.5t67 38.5t76.5 12q42 0 78.5 -11t63.5 -35.5t42.5 -63.5t15.5 -94q0 -38 -11 -74t-24 -56h102q21 0 30.5 -10t9.5 -39q0 -27 -10 -38.5t-30 -11.5h-97q21 -29 21 -69q0 -69 -52.5 -106.5t-142.5 -37.5q-46 0 -83.5 8.5t-64.5 27.5
t-41.5 48.5t-14.5 71.5v57h-26q-23 0 -29.5 -6.5t-6.5 -27.5v-37q0 -10 -10 -10h-93q-10 0 -10 10v93q0 23 7.5 38t20 23.5t28 12t32.5 3.5h87zM389 333q-42 0 -68 -30.5t-26 -90.5v-114h99q23 0 39.5 10t27 26.5t15.5 37.5t5 44q0 58 -24 87.5t-68 29.5zM386 -117
q47 0 66.5 15.5t19.5 43.5q0 11 -3 22t-10.5 19.5t-21.5 14t-35 5.5h-107v-52q0 -68 91 -68z" />
    <glyph glyph-name="uniFBA5" unicode="&#x6c0;" horiz-adv-x="534" arabic-form="final" 
d="M336 433v43q0 10 10 10h93q10 0 10 -10v-324q0 -30 11.5 -41.5t36.5 -11.5h37q40 0 40 -50q0 -30 -9.5 -39.5t-30.5 -9.5h-81q-49 0 -76.5 17t-36.5 60q-21 -18 -50 -27t-61 -9q-39 0 -73.5 11t-60 34t-40.5 58.5t-15 85.5q0 58 16.5 97t44 62.5t63 33.5t73.5 10h99z
M242 140q48 0 71 27.5t23 80.5v85h-89q-43 0 -69 -22t-26 -81q0 -46 24 -68t66 -22zM181 593q-7 11 -11.5 25.5t-4.5 31.5t5.5 34.5t18.5 32t33 24t49 9.5t51 -10.5t34 -27.5q3 -6 0 -9l-26 -25q-6 -5 -10 -1q-10 10 -21.5 16.5t-26.5 6.5q-23 0 -36 -14.5t-13 -36.5
q0 -20 10.5 -34.5t21.5 -21.5h102q6 0 6 -7v-37q0 -7 -6 -7h-213q-6 0 -6 7v37q0 7 6 7h37z" />
    <glyph glyph-name="uni06C1" unicode="&#x6c1;" horiz-adv-x="507" arabic-form="isolated" 
d="M250 -7q-46 0 -84 12t-65 38t-42 67t-15 100q0 61 15.5 104t43 69t65.5 38t82 12t82 -12t65.5 -38t43 -69t15.5 -104q0 -59 -15 -100t-42.5 -67t-65.5 -38t-83 -12zM250 333q-49 0 -72 -31t-23 -90q0 -64 23.5 -92t71.5 -28t71 28.5t23 91.5q0 121 -94 121z" />
    <glyph glyph-name="uniFBA8" unicode="&#x6c1;" horiz-adv-x="285" arabic-form="initial" 
d="M193 -158q-7 -1 -14.5 -1h-14.5q-24 0 -47 5.5t-41.5 18.5t-30 35t-11.5 55q0 22 4 45h-38q-20 0 -30 7t-10 28q0 25 9.5 44.5t30.5 19.5h49q25 0 36.5 11.5t11.5 41.5v253q0 10 10 10h93q10 0 10 -10v-279q0 -55 -19 -85t-62 -38q-4 -15 -4 -29q0 -28 20 -38.5t48 -10.5
q10 0 10 -10v-63q0 -8 -10 -10z" />
    <glyph glyph-name="uniFBA9" unicode="&#x6c1;" horiz-adv-x="464" arabic-form="medial" 
d="M158 99q10 0 10 -10v-79q0 -50 16.5 -71t63.5 -21v31q0 78 40 114t103 36h73q20 0 30 -10.5t10 -36.5q0 -30 -9.5 -41t-30.5 -11h-45q-32 0 -47 -14.5t-15 -52.5v-111q0 -10 -10 -10h-84q-97 0 -150.5 39t-53.5 117v32h-59q-20 0 -30 11t-10 38q0 29 9.5 39.5t30.5 10.5
h158z" />
    <glyph glyph-name="uniFBA7" unicode="&#x6c1;" horiz-adv-x="514" arabic-form="final" 
d="M416 171q0 -35 12 -53.5t54 -18.5h32q21 0 30.5 -11t9.5 -41q0 -26 -10 -36.5t-30 -10.5h-67q-144 0 -144 141v169h-58q-53 0 -72.5 -28t-19.5 -88v-184q0 -10 -10 -10h-93q-10 0 -10 10v218q0 58 17.5 94.5t45.5 57t63 28t71 7.5h169q10 0 10 -10v-234z" />
    <glyph glyph-name="uni06C2.fina" unicode="&#x6c2;" horiz-adv-x="514" 
d="M164 547q-7 11 -11.5 25.5t-4.5 31.5t5.5 34.5t18.5 32t33 24t49 9.5q28 0 50 -10.5t35 -27.5q3 -6 0 -9l-26 -25q-6 -5 -10 -1q-10 10 -22 16.5t-26 6.5q-23 0 -36 -14.5t-13 -36.5q0 -20 10.5 -34.5t21.5 -21.5h101q6 0 6 -7v-37q0 -7 -6 -7h-212q-6 0 -6 7v37q0 7 6 7
h37zM416 171q0 -35 12 -53.5t54 -18.5h32q21 0 30.5 -11t9.5 -41q0 -26 -10 -36.5t-30 -10.5h-67q-144 0 -144 141v169h-58q-53 0 -72.5 -28t-19.5 -88v-184q0 -10 -10 -10h-93q-10 0 -10 10v218q0 58 17.5 94.5t45.5 57t63 28t71 7.5h169q10 0 10 -10v-234z" />
    <glyph glyph-name="uni06C3.fina" unicode="&#x6c3;" horiz-adv-x="529" 
d="M331 433v43q0 10 10 10h92q10 0 10 -10v-324q0 -30 11.5 -41.5t36.5 -11.5h38q40 0 40 -50q0 -30 -9.5 -39.5t-30.5 -9.5h-81q-49 0 -76.5 17t-36.5 60q-21 -18 -50 -27t-61 -9q-39 0 -73.5 11t-60 34t-40.5 58.5t-15 85.5q0 58 16.5 97t44 62.5t62.5 33.5t73 10h100z
M237 140q48 0 71 27.5t23 80.5v85h-89q-43 0 -69 -22t-26 -81q0 -46 24 -68t66 -22zM265 549q-10 0 -10 10v86q0 10 10 10h84q10 0 10 -10v-86q0 -10 -10 -10h-84zM135 549q-10 0 -10 10v86q0 10 10 10h84q10 0 10 -10v-86q0 -10 -10 -10h-84z" />
    <glyph glyph-name="uni06CC" unicode="&#x6cc;" horiz-adv-x="792" arabic-form="isolated" 
d="M148 31q0 -38 14 -63.5t36 -40.5t50 -21t57 -6h199q58 0 79.5 15.5t21.5 38.5q0 15 -16.5 30t-42 31.5l-54.5 35.5t-54.5 43.5t-42 55t-16.5 70.5q0 36 14 67.5t39.5 55t61.5 37t81 13.5q69 0 110.5 -21.5t70.5 -56.5q6 -7 -3 -14l-54 -53q-8 -6 -14 1q-21 21 -45 32.5
t-59 11.5q-34 0 -60.5 -18.5t-26.5 -54.5q0 -24 17 -44t42.5 -39t55 -39t55 -42.5t42.5 -49t17 -60.5q0 -30 -11 -57t-35 -47.5t-62 -32t-91 -11.5h-233q-130 0 -193.5 60t-63.5 163q0 54 17 108t42 93q5 9 15 2l81 -32q5 -2 5.5 -5.5t-1.5 -7.5q-16 -28 -30.5 -65.5
t-14.5 -82.5z" />
    <glyph glyph-name="uniFBFE" unicode="&#x6cc;" horiz-adv-x="297" arabic-form="initial" 
d="M0 0q-20 0 -30 9.5t-10 36.5q0 29 9.5 41t30.5 12h65q25 0 36.5 11.5t11.5 41.5v253q0 10 10 10h93q10 0 10 -10v-279q0 -65 -27 -95.5t-90 -30.5h-109zM165 -192q-10 0 -10 10v86q0 10 10 10h84q10 0 10 -10v-86q0 -10 -10 -10h-84zM35 -192q-10 0 -10 10v86q0 10 10 10
h84q10 0 10 -10v-86q0 -10 -10 -10h-84z" />
    <glyph glyph-name="uniFBFF" unicode="&#x6cc;" horiz-adv-x="331" arabic-form="medial" 
d="M197 -192q-10 0 -10 10v86q0 10 10 10h84q10 0 10 -10v-86q0 -10 -10 -10h-84zM67 -192q-10 0 -10 10v86q0 10 10 10h84q10 0 10 -10v-86q0 -10 -10 -10h-84zM217 51q-14 -29 -42.5 -40t-76.5 -11h-93q-20 0 -30 9.5t-10 37.5q0 29 9.5 40.5t30.5 11.5h65q18 0 27.5 5.5
t14 17t5.5 30t1 45.5v208q0 6 5.5 8t11.5 2h86q10 0 10 -10v-244q0 -30 22.5 -46t60.5 -16h17q20 0 30 -11t10 -37q0 -29 -9.5 -40t-30.5 -11q-39 0 -68 9.5t-46 41.5z" />
    <glyph glyph-name="uniFBFD" unicode="&#x6cc;" horiz-adv-x="773" arabic-form="final" 
d="M505 -100q60 0 82 15t22 38q0 19 -11.5 32.5t-36 26t-62 26l-88.5 32.5q-9 3 -6 12l27 79q3 10 12 7q32 -12 61 -24.5t57 -22t55 -16t56 -6.5h100q20 0 30 -10t10 -36q0 -29 -9.5 -41t-30.5 -12h-69q5 -8 11.5 -25.5t6.5 -37.5q0 -28 -11 -53t-34.5 -44t-61 -30.5
t-91.5 -11.5h-228q-130 0 -193.5 60t-63.5 163q0 28 5.5 56.5t14.5 55t20.5 50t24.5 41.5q5 8 14 2l79 -41q8 -5 3 -13q-17 -28 -31.5 -65t-14.5 -76q0 -38 13.5 -63t35.5 -40t50 -21.5t57 -6.5h195z" />
    <glyph glyph-name="afii57519" unicode="&#x6d2;" horiz-adv-x="766" arabic-form="isolated" 
d="M344 346q-23 -34 -57 -59.5l-65.5 -47t-53.5 -42t-22 -44.5q0 -22 20 -38t70 -16h500q10 0 10 -10v-79q0 -10 -10 -10h-503q-53 0 -90.5 10.5t-61 28.5t-34.5 43t-11 54q0 46 25 81.5t61 66.5l74.5 61.5t65.5 66.5q2 2 6.5 3t8.5 -2l66 -53q6 -6 1 -14z" />
    <glyph glyph-name="uniFBAF" unicode="&#x6d2;" horiz-adv-x="341" arabic-form="final" 
d="M571 -103q10 0 10 -10v-79q0 -10 -10 -10h-374q-48 0 -81 11t-53.5 30t-30 45t-9.5 57q0 39 13.5 68.5t37 49.5t55.5 30t70 10h142q20 0 30 -9.5t10 -37.5q0 -30 -9 -41t-31 -11h-139q-37 0 -52 -14.5t-15 -40.5q0 -31 19 -39.5t58 -8.5h359z" />
    <glyph glyph-name="uni06D3" unicode="&#x6d3;" horiz-adv-x="819" arabic-form="isolated" 
d="M351 346q-23 -34 -57 -59.5l-65.5 -47t-53.5 -42t-22 -44.5q0 -22 20 -38t70 -16h500q10 0 10 -10v-79q0 -10 -10 -10h-503q-53 0 -90.5 10.5t-61 28.5t-34.5 43t-11 54q0 46 25 81.5t61 66.5l74.5 61.5t65.5 66.5q2 2 6.5 3t8.5 -2l66 -53q6 -6 1 -14zM91 488
q-7 11 -11.5 25.5t-4.5 31.5t5.5 34.5t18.5 32t33 24t49 9.5q28 0 50 -10.5t35 -27.5q3 -6 0 -9l-26 -25q-6 -5 -10 -1q-10 10 -22 16.5t-26 6.5q-23 0 -36 -14.5t-13 -36.5q0 -20 10.5 -34.5t21.5 -21.5h101q6 0 6 -7v-37q0 -7 -6 -7h-212q-6 0 -6 7v37q0 7 6 7h37z" />
    <glyph glyph-name="uniFBB1" unicode="&#x6d3;" horiz-adv-x="341" arabic-form="final" 
d="M92 209q-7 11 -11.5 25.5t-4.5 31.5t5.5 34.5t18.5 32t33 24t49 9.5q28 0 50 -10.5t35 -27.5q3 -6 0 -9l-26 -25q-6 -5 -10 -1q-10 10 -22 16.5t-26 6.5q-23 0 -36 -14.5t-13 -36.5q0 -20 10.5 -34.5t21.5 -21.5h101q6 0 6 -7v-37q0 -7 -6 -7h-212q-6 0 -6 7v37q0 7 6 7
h37zM571 -103q10 0 10 -10v-79q0 -10 -10 -10h-374q-48 0 -81 11t-53.5 30t-30 45t-9.5 57q0 39 13.5 68.5t37 49.5t55.5 30t70 10h142q20 0 30 -9.5t10 -37.5q0 -30 -9 -41t-31 -11h-139q-37 0 -52 -14.5t-15 -40.5q0 -31 19 -39.5t58 -8.5h359z" />
    <glyph glyph-name="afii57534.fina" unicode="&#x6d5;" horiz-adv-x="529" 
d="M331 433v43q0 10 10 10h92q10 0 10 -10v-324q0 -30 11.5 -41.5t36.5 -11.5h38q40 0 40 -50q0 -30 -9.5 -39.5t-30.5 -9.5h-81q-49 0 -76.5 17t-36.5 60q-21 -18 -50 -27t-61 -9q-39 0 -73.5 11t-60 34t-40.5 58.5t-15 85.5q0 58 16.5 97t44 62.5t62.5 33.5t73 10h100z
M237 140q48 0 71 27.5t23 80.5v85h-89q-43 0 -69 -22t-26 -81q0 -46 24 -68t66 -22z" />
    <glyph glyph-name="uniFC5E" unicode="&#xfc5e;" horiz-adv-x="0" arabic-form="isolated" 
d="M-127 900q0 10 10 10h20q10 0 10 -10v-74q0 -40 34 -40t34 36v78q0 10 10 10h20q10 0 10 -10v-78q0 -36 34 -36t34 40v74q0 10 10 10h20q10 0 10 -10v-71q0 -35 -19 -58t-55 -23t-55 22q-19 -22 -54 -22q-36 0 -54.5 23t-18.5 58v71zM-147 1081q-10 0 -10 10v17
q0 10 10 10h8q32 0 54 -21.5t22 -68.5q0 -25 14.5 -30.5t43.5 -5.5q21 0 35 4t23 10t14 13t7 13h-30q-35 0 -54.5 18t-19.5 49q0 32 21.5 54t53.5 22t53.5 -21.5t21.5 -69.5q0 -37 -9.5 -61.5t-26 -39.5t-39.5 -21t-50 -6q-20 0 -37.5 2t-30.5 9.5t-20.5 22t-7.5 38.5
q0 53 -35 53h-11zM82 1067q1 4 1 8.5v8.5q0 27 -10.5 41t-27.5 14q-20 0 -29 -13t-9 -27q0 -9 4.5 -15.5t11 -10t13.5 -5t13 -1.5h33z" />
    <glyph glyph-name="uniFC5F" unicode="&#xfc5f;" horiz-adv-x="0" arabic-form="isolated" 
d="M-127 1050q0 10 10 10h20q10 0 10 -10v-74q0 -40 34 -40t34 36v78q0 10 10 10h20q10 0 10 -10v-78q0 -36 34 -36t34 40v74q0 10 10 10h20q10 0 10 -10v-71q0 -35 -19 -58t-55 -23t-55 22q-19 -22 -54 -22q-36 0 -54.5 23t-18.5 58v71zM-125 750q-10 0 -10 10v17
q0 10 10 10h254q10 0 10 -10v-17q0 -10 -10 -10h-254zM-125 815q-10 0 -10 10v17q0 10 10 10h254q10 0 10 -10v-17q0 -10 -10 -10h-254z" />
    <glyph glyph-name="uniFC60" unicode="&#xfc60;" horiz-adv-x="0" arabic-form="isolated" 
d="M-131 960q-10 0 -10 10v17q0 10 10 10h254q10 0 10 -10v-17q0 -10 -10 -10h-254zM-127 900q0 10 10 10h20q10 0 10 -10v-74q0 -40 34 -40t34 36v78q0 10 10 10h20q10 0 10 -10v-78q0 -36 34 -36t34 40v74q0 10 10 10h20q10 0 10 -10v-71q0 -35 -19 -58t-55 -23t-55 22
q-19 -22 -54 -22q-36 0 -54.5 23t-18.5 58v71z" />
    <glyph glyph-name="uniFC61" unicode="&#xfc61;" horiz-adv-x="0" arabic-form="isolated" 
d="M43 1065v17q0 27 -10.5 41t-27.5 14q-19 0 -28.5 -12.5t-9.5 -26.5q0 -10 4.5 -16.5t11 -10t13.5 -5t13 -1.5h34zM-45 991q41 0 58 14t22 25h-31q-35 0 -54.5 18t-19.5 50t21.5 54t53.5 22t54 -21.5t22 -70.5q0 -36 -9.5 -60.5t-26.5 -39.5t-40 -21.5t-50 -6.5h-29
q-10 0 -10 10v17q0 10 10 10h29zM-127 900q0 10 10 10h20q10 0 10 -10v-74q0 -40 34 -40t34 36v78q0 10 10 10h20q10 0 10 -10v-78q0 -36 34 -36t34 40v74q0 10 10 10h20q10 0 10 -10v-71q0 -35 -19 -58t-55 -23t-55 22q-19 -22 -54 -22q-36 0 -54.5 23t-18.5 58v71z" />
    <glyph glyph-name="uniFC62" unicode="&#xfc62;" horiz-adv-x="0" arabic-form="isolated" 
d="M-131 752q-10 0 -10 10v17q0 10 10 10h254q10 0 10 -10v-17q0 -10 -10 -10h-254zM-127 990q0 10 10 10h20q10 0 10 -10v-74q0 -40 34 -40t34 36v78q0 10 10 10h20q10 0 10 -10v-78q0 -36 34 -36t34 40v74q0 10 10 10h20q10 0 10 -10v-71q0 -35 -19 -58t-55 -23t-55 22
q-19 -22 -54 -22q-36 0 -54.5 23t-18.5 58v71z" />
    <glyph glyph-name="uniFC63" unicode="&#xfc63;" horiz-adv-x="0" arabic-form="isolated" 
d="M-127 900q0 10 10 10h20q10 0 10 -10v-74q0 -40 34 -40t34 36v78q0 10 10 10h20q10 0 10 -10v-78q0 -36 34 -36t34 40v74q0 10 10 10h20q10 0 10 -10v-71q0 -35 -19 -58t-55 -23t-55 22q-19 -22 -54 -22q-36 0 -54.5 23t-18.5 58v71zM21 970q0 -10 -10 -10h-22
q-10 0 -10 10v124q0 10 10 10h22q10 0 10 -10v-124z" />
    <glyph glyph-name="uniFDF2" unicode="&#xfdf2;" horiz-adv-x="1411" arabic-form="isolated" 
d="M833 0q-37 0 -64 9.5t-44 41.5q-14 -28 -40.5 -39.5t-71.5 -11.5h-165q-49 0 -76.5 17t-36.5 60q-21 -18 -50 -27t-61 -9q-39 0 -73.5 11t-60 34t-40.5 58.5t-15 85.5q0 58 16.5 97t44 62.5t62.5 33.5t73 10h100v43q0 10 10 10h92q10 0 10 -10v-324q0 -30 11.5 -41.5
t36.5 -11.5h87q25 0 36.5 11.5t11.5 41.5v518q0 10 10 10h93q10 0 10 -10v-509q0 -30 22.5 -46t60.5 -16h66q25 0 36.5 11.5t11.5 41.5v518q0 10 10 10h93q10 0 10 -10v-544q0 -65 -27 -95.5t-90 -30.5h-99zM237 140q48 0 71 27.5t23 80.5v85h-89q-43 0 -69 -22t-26 -81
q0 -46 24 -68t66 -22zM1346 10q0 -10 -10 -10h-93q-10 0 -10 10v660q0 10 10 10h93q10 0 10 -10v-660z" />
    <glyph glyph-name="uniFDFA" unicode="&#xfdfa;" horiz-adv-x="1057" arabic-form="isolated" 
d="M1017 437q0 -14 -16 -39q-15 -24 -31 -31q-47 -21 -116 -21h-23t-25 2q-24 -47 -38 -47q-4 0 -4 6q0 16 22 47q-43 17 -48 26q-40 -26 -50 -26q8 -141 25 -176q19 -38 87 -39q-22 17 -22 44q0 33 32 76q24 32 61 32q28 0 53 -17q24 -17 24 -31q-26 9 -52 9q-35 0 -65 -14
q-26 -14 -26 -27q0 -14 25 -39q24 -25 44 -29q19 2 68 18q25 8 42 14t25 11l-17 -37q-101 -53 -191 -53q-97 0 -119 73q-30 -65 -57 -65q-26 0 -67 44q-65 -56 -197 -56q-20 0 -37.5 1.5t-32.5 3.5q4 -32 9 -52q9 -36 23 -50q44 -44 176 -44q113 0 165 32q15 37 28 37
q4 0 4 -8q0 -14 -12 -44q6 -13 27 -13q26 0 49 12q21 66 33 66q4 0 4 -11q0 -19 -10 -43q30 -13 44 -13q1 0 4.5 0.5t3.5 3.5q0 4 -8 38l17 36q12 -36 12 -52q0 -67 -44 -67q-23 0 -48 19q-15 -26 -59 -26q-48 0 -48 26q-20 -14 -64 -24q-53 -11 -121 -11q-97 0 -143 28
q-59 34 -60 126l-22 -32q-16 -24 -26 -26q12 -21 12 -41q0 -26 -16 -42q-8 -8 -21 -8q-20 0 -61 23q-13 -30 -42 -47q-3 -2 -9.5 -3t-13.5 -1.5t-13 -1t-9 -1.5l-11 -4q-6 0 -6 5q0 4 24 15q31 12 39 19l34 26q-10 17 -10 40q0 21 18 41q18 21 34 21q2 0 6 -2q17 -10 29 -10
q18 0 36 23l23 42q-39 12 -55 27q-29 26 -41 85q-29 -50 -79 -50q-18 0 -39 8q-16 7 -16 12q0 25 43 58q20 16 41.5 26.5t43.5 17.5l-2 17l20 33q7 -108 21 -141q13 -31 56 -45l-13 132l19 43l17 -180q52 -6 95 -6q104 0 177 40q14 38 19 38q4 0 4 -9q0 -10 -4 -25
q37 -35 59 -35q26 0 42 43l-13 161q-73 0 -90 74q-7 -28 -14 -42q-11 -26 -27 -30l3 -3q35 0 52 -8t17 -30q0 -30 -25 -46q-86 -59 -160 -59q-46 0 -74 23.5t-28 65.5q0 32 16 67q-27 7 -38 43q-18 -51 -57 -51q-47 0 -47 77l-27 -24q-7 -7 -39 -7q-49 0 -49 18q0 11 13 31
q13 22 25 27l76 37v10l17 36l4 -120q1 -42 32 -42q15 0 29.5 10.5t16.5 22.5l-16 114l18 39l28 -161q9 -21 33 -21q23 0 23 13q0 22 -16 74l-10 32l-10 33l13 33q40 -124 40 -157q0 -21 -10 -44q-10 -28 -25 -28q-5 0 -9 3q-7 -20 -7 -39q0 -75 91 -75q71 0 142 48q2 2 2 3
q0 6 -38 12q-59 9 -61 10q-4 3 -4 8q0 10 17 32q60 25 64 53q1 3 1 14q0 49 -5 106.5t-15 124.5l17 56q24 -211 38 -256q18 -57 72 -66l-5 96l21 45l8 -140q28 10 60 36l30 -21q19 -12 39 -15q23 24 65 55q52 38 70 38t41 -14q26 -15 26 -33zM1008 2q0 -50 -39 -108
q-42 -64 -89 -64q-23 0 -59 16q-37 16 -37 23q0 4 5 4q6 0 27 -7q8 -3 18.5 -5.5t18.5 -2.5q68 0 138 106l-7 22q-18 -26 -37 -26q-15 0 -25.5 14t-10.5 31q0 21 15 50q16 31 28 31t32 -24q22 -26 22 -60zM970 639q-36 -13 -116 -51q-96 -47 -96 -61q0 -11 26 -25l-9 -24
q-33 10 -33 40t26 44q128 74 211 102zM476 447q-3 -66 -13 -73l-25 242l22 57zM602 37l-26 -31l-48 35l-28 -36l-50 36l29 35l47 -35l27 33zM989 420q0 7 -18 16q-17 9 -26 9q-21 0 -60 -24q-30 -19 -47 -34q4 -1 20 -1q39 0 82 8q49 10 49 26zM632 -121q0 -20 -2 -30
q-6 -13 -25 -13q-10 0 -14 4q-15 -16 -30 -16q-8 0 -16.5 8.5t-12.5 8.5q-8 0 -37 -17q-29 -18 -70 -18q-44 0 -44 8q0 7 32 7q17 0 29 0.5t17 1.5q15 3 35 16q29 19 40 19q8 0 19 -8t13 -8q15 0 18 17q1 13 11 13q4 0 4 -6t-1 -9q1 -4 11 -6q12 0 12 12q0 16 11 16z
M815 705l-6 -22l-195 -96l4 25zM169 263q-88 -34 -88 -52q0 -10 31 -10q33 0 59 24zM324 665q0 -32 -21 -32q-13 0 -21 8q-18 -15 -30 -15q-21 0 -21 27q0 19 3 27l6 6q0 -37 17 -37q12 0 19 16l-2 23l9 14l4 -30q1 -16 15 -16q11 0 11 12q0 1 -0.5 4.5t-2.5 20.5l7 10
q7 -18 7 -38zM189 487q-10 -5 -20 -9l-21 -8q-34 -17 -34 -25q0 -10 25 -10q29 0 51 13zM214 -39q0 8 -7.5 18.5t-16.5 16.5q-19 14 -34 14q-14 0 -14 -12q0 -13 26 -27q24 -15 39 -15q7 0 7 5zM979 10q-6 32 -26 32q-16 0 -20 -25q4 -18 31 -18q13 0 15 11z" />
    <glyph glyph-name=".notdef" horiz-adv-x="483" 
d="M0 670q0 10 10 10h463q10 0 10 -10v-660q0 -10 -10 -10h-463q-10 0 -10 10v660zM59 61q0 -6 6 -6h353q6 0 6 6v558q0 6 -6 6h-353q-6 0 -6 -6v-558zM202 237q-10 0 -10 10v24q0 20 4.5 31.5t12.5 23.5l51 70q11 15 16 27t5 26q0 21 -13 35t-35 14q-24 0 -37 -12.5
t-18 -32.5q-2 -11 -11 -9l-52 9q-10 2 -8 11q10 45 42 72t87 27q26 0 48 -9t37.5 -24t24.5 -36t9 -45q0 -42 -26 -74l-50 -71q-6 -8 -9.5 -17.5t-3.5 -23.5v-16q0 -10 -10 -10h-54zM190 183q0 10 10 10h58q10 0 10 -10v-59q0 -10 -10 -10h-58q-10 0 -10 10v59z" />
    <glyph glyph-name="glyph1" horiz-adv-x="500" 
 />
    <glyph glyph-name="glyph1" horiz-adv-x="500" 
 />
    <glyph glyph-name="glyph2" horiz-adv-x="0" 
 />
    <glyph glyph-name="space" unicode=" " horiz-adv-x="236" 
 />
    <glyph glyph-name="space" unicode="&#xa0;" horiz-adv-x="236" 
 />
    <glyph glyph-name="exclam" unicode="!" horiz-adv-x="307" 
d="M124 190q-10 0 -10 10l-23 470q0 10 10 10h105q10 0 10 -10l-23 -470q0 -10 -10 -10h-59zM93 112q0 10 10 10h100q10 0 10 -10v-102q0 -10 -10 -10h-100q-10 0 -10 10v102z" />
    <glyph glyph-name="quotedbl" unicode="&#x22;" horiz-adv-x="345" 
d="M212 488q-10 0 -10 10v172q0 10 10 10h62q10 0 10 -10v-172q0 -10 -10 -10h-62zM71 488q-10 0 -10 10v172q0 10 10 10h61q10 0 10 -10v-172q0 -10 -10 -10h-61z" />
    <glyph glyph-name="numbersign" unicode="#" horiz-adv-x="514" 
d="M96 210h-66q-10 0 -10 10v58q0 10 10 10h77l16 116h-67q-10 0 -10 10v58q0 10 10 10h77l26 188q2 10 11 10h63q11 0 9 -10l-26 -188h116l26 188q2 10 11 10h63q11 0 9 -10l-26 -188h69q10 0 10 -10v-58q0 -10 -10 -10h-79l-16 -116h69q10 0 10 -10v-58q0 -10 -10 -10h-80
l-27 -200q-2 -10 -11 -10h-63q-11 0 -9 10l27 200h-116l-27 -200q-2 -10 -11 -10h-63q-11 0 -9 10zM306 288l16 116h-116l-16 -116h116z" />
    <glyph glyph-name="dollar" unicode="$" 
d="M60 61q-9 7 -2 15l53 67q7 8 14 1q22 -18 55 -34t73 -20v205q-86 14 -134.5 64.5t-48.5 127.5q0 42 13.5 77t38 61.5t58 43t73.5 20.5v52q0 10 10 10h39q10 0 10 -10v-52q44 -4 82.5 -18t70.5 -35q7 -6 2 -14l-46 -68q-6 -7 -14 -2q-22 14 -45.5 23t-49.5 13v-195
q91 -15 137.5 -65t46.5 -128q0 -85 -49 -140.5t-135 -67.5v-53q0 -10 -10 -10h-39q-10 0 -10 10v51q-57 2 -105.5 21t-87.5 50zM253 588q-34 -7 -54 -32t-20 -61q0 -32 15.5 -55t58.5 -35v183zM312 93q75 18 75 103q0 29 -16 52t-59 36v-191z" />
    <glyph glyph-name="percent" unicode="%" horiz-adv-x="782" 
d="M546 681q6 10 16 10h65q5 0 6 -3t-1 -7l-395 -682q-6 -10 -15 -10h-66q-5 0 -6 3t1 7zM192 330q-45 0 -77.5 22t-44.5 58q-3 8 -4.5 14.5t-2 17t-1 26t-0.5 41.5t0.5 41.5t1 26t2 17t4.5 14.5q12 36 44.5 58t77.5 22t77.5 -22t44.5 -58q3 -8 4.5 -14.5t2 -17t1 -26
t0.5 -41.5t-0.5 -41.5t-1 -26t-2 -17t-4.5 -14.5q-12 -36 -44.5 -58t-77.5 -22zM192 402q15 0 26.5 7.5t16.5 21.5q1 3 2 7t1.5 12t0.5 22v37v37t-0.5 22.5t-1.5 12.5t-2 7q-5 14 -16.5 21t-26.5 7q-33 0 -44 -28q-1 -3 -2 -7t-1.5 -12.5t-0.5 -22.5v-37v-37t0.5 -22
t1.5 -12t2 -7q11 -29 44 -29zM467 71l-3.5 14.5t-2.5 17t-1.5 26t-0.5 41.5t0.5 41.5t1.5 26t2.5 17l3.5 14.5q12 36 45 58t78 22t77.5 -22t44.5 -58q3 -8 4.5 -14.5t2 -17t1 -26t0.5 -41.5t-0.5 -41.5t-1 -26t-2 -17t-4.5 -14.5q-12 -36 -44.5 -58t-77.5 -22t-78 22t-45 58
zM546 92q11 -29 44 -29q15 0 26.5 7.5t16.5 21.5q1 3 2 7t1.5 12t0.5 22v37v37t-0.5 22.5t-1.5 12.5t-2 7q-5 14 -16.5 21t-26.5 7q-33 0 -44 -28q-1 -3 -2 -7t-1.5 -12.5t-0.5 -22.5v-37v-37t0.5 -22t1.5 -12t2 -7z" />
    <glyph glyph-name="ampersand" unicode="&#x26;" horiz-adv-x="646" 
d="M63 171q0 54 28.5 103t100.5 105q-21 27 -35.5 47.5t-23.5 38.5t-13 34.5t-4 35.5q0 34 13 62.5t36 49.5t54 32.5t66 11.5q37 0 68 -12.5t52.5 -33.5t33.5 -49t12 -58q0 -23 -6 -43.5t-20 -41t-36.5 -42.5t-55.5 -47l106 -136l68 81q6 7 14 1l55 -47q8 -6 2 -14l-80 -97
l24 -30q9 -12 19 -17t22 -5h15q10 0 10 -10v-80q0 -10 -10 -10h-33q-17 0 -30 2.5t-24 8.5t-22 16t-23 26l-17 21q-43 -45 -84 -65t-93 -20q-47 0 -82.5 13.5t-59 38t-35.5 58t-12 72.5zM274 440q24 18 38.5 32t22.5 25t11 21t3 21q0 25 -18 42.5t-45 17.5q-29 0 -47 -17.5
t-18 -43.5q0 -9 2 -17t7.5 -18.5t16 -25.5t27.5 -37zM167 177q0 -41 24.5 -66t68.5 -25q28 0 52.5 13.5t58.5 49.5l-120 154q-49 -38 -66.5 -68t-17.5 -58z" />
    <glyph glyph-name="quotesingle" unicode="'" horiz-adv-x="203" 
d="M71 488q-10 0 -10 10v172q0 10 10 10h61q10 0 10 -10v-172q0 -10 -10 -10h-61v0z" />
    <glyph glyph-name="parenleft" unicode="(" horiz-adv-x="293" 
d="M179 -74q-66 92 -97 195.5t-31 206.5t31.5 207t96.5 195q7 10 17 10h49q11 0 6 -10q-45 -91 -69 -195t-24 -207t24 -208.5t69 -193.5q5 -10 -6 -10h-49q-10 0 -17 10z" />
    <glyph glyph-name="parenright" unicode=")" horiz-adv-x="293" 
d="M42 -74q45 88 69 193.5t24 208.5t-24 207t-69 195q-5 10 6 10h49q10 0 17 -10q65 -91 96.5 -195t31.5 -207t-31 -206.5t-97 -195.5q-7 -10 -17 -10h-49q-11 0 -6 10z" />
    <glyph glyph-name="asterisk" unicode="*" horiz-adv-x="335" 
d="M146 392q-10 0 -10 10l1 81l-70 -42q-9 -5 -14 4l-21 38q-5 9 4 14l70 39l-70 39q-9 5 -4 14l21 38q5 9 14 4l70 -42l-1 81q0 10 10 10h43q10 0 10 -10l-1 -81l70 42q9 5 14 -4l21 -38q5 -9 -4 -14l-70 -39l70 -39q9 -5 4 -14l-21 -38q-5 -9 -14 -4l-70 42l1 -81
q0 -10 -10 -10h-43v0z" />
    <glyph glyph-name="plus" unicode="+" 
d="M224 221q0 6 -6 6h-153q-10 0 -10 10v78q0 10 10 10h153q6 0 6 6v154q0 10 10 10h81q10 0 10 -10v-154q0 -6 6 -6h153q10 0 10 -10v-78q0 -10 -10 -10h-153q-6 0 -6 -6v-154q0 -10 -10 -10h-81q-10 0 -10 10v154z" />
    <glyph glyph-name="comma" unicode="," horiz-adv-x="246" 
d="M66 112q0 10 10 10h94q10 0 10 -10v-109q0 -8 -1 -12t-6 -9l-83 -86q-7 -7 -14 -7q-10 0 -10 10v213z" />
    <glyph glyph-name="hyphen" unicode="-" horiz-adv-x="385" 
d="M55 216q-10 0 -10 10v79q0 10 10 10h275q10 0 10 -10v-79q0 -10 -10 -10h-275v0z" />
    <glyph glyph-name="hyphen" unicode="&#x2010;" horiz-adv-x="385" 
d="M55 216q-10 0 -10 10v79q0 10 10 10h275q10 0 10 -10v-79q0 -10 -10 -10h-275v0z" />
    <glyph glyph-name="hyphen" unicode="&#xad;" horiz-adv-x="385" 
d="M55 216q-10 0 -10 10v79q0 10 10 10h275q10 0 10 -10v-79q0 -10 -10 -10h-275v0z" />
    <glyph glyph-name="period" unicode="." horiz-adv-x="252" 
d="M66 112q0 10 10 10h100q10 0 10 -10v-102q0 -10 -10 -10h-100q-10 0 -10 10v102z" />
    <glyph glyph-name="slash" unicode="/" horiz-adv-x="425" 
d="M276 681q3 10 13 10h75q10 0 7 -10l-222 -682q-3 -10 -13 -10h-75q-10 0 -7 10z" />
    <glyph glyph-name="zero" unicode="0" 
d="M81 122q-3 10 -6 23.5t-4.5 37t-2.5 61t-1 96.5t1 96.5t2.5 61t4.5 36.5t6 24q20 64 68.5 98.5t124.5 34.5t124.5 -34.5t69.5 -98.5q3 -11 6 -24t4.5 -36.5t2.5 -61t1 -96.5t-1 -96.5t-2.5 -61t-4.5 -37t-6 -23.5q-21 -64 -69.5 -98.5t-124.5 -34.5t-124.5 34.5
t-68.5 98.5zM191 143q19 -54 83 -54t84 54q3 8 4.5 18t2.5 31t1.5 56t0.5 92t-0.5 92t-1.5 56t-2.5 31t-4.5 18q-20 54 -84 54t-83 -54q-3 -8 -4.5 -18t-2.5 -31t-1.5 -56t-0.5 -92t0.5 -92t1.5 -56t2.5 -31t4.5 -18z" />
    <glyph glyph-name="one" unicode="1" 
d="M247 546h-2l-104 -73q-11 -7 -11 6v102q0 8 7 14l109 79q7 6 18 6h85q10 0 10 -10v-660q0 -10 -10 -10h-92q-10 0 -10 10v536z" />
    <glyph glyph-name="two" unicode="2" 
d="M72 85q0 8 5 13l240 299q20 25 32 50t12 54q0 38 -23.5 64t-66.5 26q-41 0 -64 -23t-28 -62q-2 -10 -11 -8l-88 18q-10 2 -8 12q3 30 17 59t39 52.5t61.5 37.5t84.5 14t85 -15t62.5 -40.5t39 -60t13.5 -74.5q0 -46 -17 -84.5t-47 -74.5l-198 -240v-2h252q10 0 10 -10v-80
q0 -10 -10 -10h-382q-10 0 -10 10v75z" />
    <glyph glyph-name="three" unicode="3" 
d="M61 135q-2 10 8 13l87 20q9 2 12 -7q11 -30 36 -51t67 -21q48 0 74 28.5t26 72.5q0 52 -30 81.5t-81 29.5h-29q-10 0 -10 10v79q0 10 10 10h27q45 0 72 27t27 72q0 41 -24 66.5t-67 25.5q-38 0 -60 -19t-31 -51q-3 -9 -12 -7l-85 20q-10 2 -8 12q6 31 22.5 57.5t42 46
t60 30.5t75.5 11q48 0 85 -14t62.5 -39t39 -59.5t13.5 -75.5q0 -43 -19 -79.5t-57 -61.5v-2q15 -6 31 -20.5t29 -35.5t21.5 -48.5t8.5 -60.5q0 -47 -16 -85t-44.5 -65t-67.5 -41.5t-85 -14.5q-80 0 -137 38t-73 108z" />
    <glyph glyph-name="four" unicode="4" 
d="M56 104q-10 0 -10 10v77q0 7 3 12l220 469q4 8 14 8h95q11 0 7 -9l-216 -465v-2h154q6 0 6 6v170q0 10 10 10h92q10 0 10 -10v-170q0 -6 6 -6h50q10 0 10 -10v-80q0 -10 -10 -10h-50q-6 0 -6 -6v-88q0 -10 -10 -10h-92q-10 0 -10 10v88q0 6 -6 6h-267v0z" />
    <glyph glyph-name="five" unicode="5" 
d="M81 129q-2 9 8 12l85 21q9 1 12 -8q10 -29 33 -47t61 -18q29 0 52 14.5t32 41.5q5 14 7 31.5t2 43.5q0 28 -2 45t-7 30q-10 30 -33 43t-52 13q-34 0 -54.5 -15t-28.5 -32q-4 -10 -12 -10h-84q-10 0 -10 10v366q0 10 10 10h362q10 0 10 -10v-80q0 -10 -10 -10h-263
q-6 0 -6 -6v-153h3q12 10 37.5 20t62.5 10q66 0 111.5 -29.5t63.5 -85.5q7 -22 11 -48t4 -68q0 -65 -14 -107q-20 -60 -72 -92t-120 -32q-39 0 -73 10t-60 28.5t-43 44t-23 57.5z" />
    <glyph glyph-name="six" unicode="6" 
d="M58 199q0 41 12.5 80.5t32.5 75.5l178 319q4 6 12 6h96q11 0 6 -10l-150 -272l2 -2q8 4 21.5 6.5t29.5 2.5q39 0 74.5 -14t62 -40t42 -63t15.5 -84q0 -52 -17 -92t-46 -67.5t-69 -41.5t-85 -14t-85 14t-69 41t-46 66t-17 89zM172 197q0 -48 27.5 -78t75.5 -30t76 30
t28 78t-28 78t-76 30t-75.5 -30t-27.5 -78z" />
    <glyph glyph-name="seven" unicode="7" 
d="M361 577v3h-169q-6 0 -6 -6v-78q0 -10 -10 -10h-86q-10 0 -10 10v174q0 10 10 10h381q10 0 10 -10v-78q0 -11 -3 -18l-225 -565q-2 -5 -4.5 -7t-8.5 -2h-95q-11 0 -6 11z" />
    <glyph glyph-name="eight" unicode="8" 
d="M55 193q0 58 25 99.5t60 63.5v2q-26 17 -48 53t-22 86q0 38 13.5 73t39.5 62t64 43t87 16t87.5 -16t64.5 -43t39.5 -62t13.5 -73q0 -50 -22 -86t-48 -53v-2q35 -22 60 -63.5t25 -99.5q0 -45 -16 -82.5t-45.5 -64.5t-70 -42t-88.5 -15t-88 15t-69.5 42t-45.5 64.5
t-16 82.5zM274 407q42 0 67 27.5t25 64.5q0 38 -25 65t-67 27t-66.5 -27t-24.5 -65q0 -37 24.5 -64.5t66.5 -27.5zM168 198q0 -48 29 -78.5t77 -30.5q49 0 78 30.5t29 78.5t-29 78.5t-78 30.5q-48 0 -77 -30.5t-29 -78.5z" />
    <glyph glyph-name="nine" unicode="9" 
d="M304 282l-2 2q-7 -4 -21 -6.5t-30 -2.5q-39 0 -74 14t-62 40t-42.5 63t-15.5 84q0 52 17 92t46.5 67.5t69 41.5t84.5 14q46 0 85.5 -14t68.5 -41t46 -66t17 -89q0 -41 -12.5 -80.5t-32.5 -75.5l-177 -319q-4 -6 -12 -6h-97q-11 0 -6 10zM274 375q48 0 76 30t28 78t-28 78
t-76 30t-75.5 -30t-27.5 -78t27.5 -78t75.5 -30z" />
    <glyph glyph-name="colon" unicode=":" horiz-adv-x="260" 
d="M80 360q-10 0 -10 10v102q0 10 10 10h100q10 0 10 -10v-102q0 -10 -10 -10h-100zM70 112q0 10 10 10h100q10 0 10 -10v-102q0 -10 -10 -10h-100q-10 0 -10 10v102z" />
    <glyph glyph-name="semicolon" unicode=";" horiz-adv-x="260" 
d="M80 360q-10 0 -10 10v102q0 10 10 10h100q10 0 10 -10v-102q0 -10 -10 -10h-100zM73 112q0 10 10 10h94q10 0 10 -10v-109q0 -13 -6 -20l-84 -87q-7 -7 -14 -7q-10 0 -10 10v213z" />
    <glyph glyph-name="less" unicode="&#x3c;" 
d="M65 229q-10 3 -10 14v66q0 11 10 14l419 172q10 3 10 -6v-89q0 -9 -10 -13l-286 -110v-2l286 -110q10 -4 10 -13v-89q0 -9 -10 -6l-419 172v0z" />
    <glyph glyph-name="equal" unicode="=" 
d="M65 327q-10 0 -10 10v78q0 10 10 10h419q10 0 10 -10v-78q0 -10 -10 -10h-419zM65 127q-10 0 -10 10v78q0 10 10 10h419q10 0 10 -10v-78q0 -10 -10 -10h-419z" />
    <glyph glyph-name="greater" unicode="&#x3e;" 
d="M55 152q0 9 10 13l286 110v2l-286 110q-10 4 -10 13v89q0 9 10 6l419 -172q10 -3 10 -14v-66q0 -11 -10 -14l-419 -172q-10 -3 -10 6v89z" />
    <glyph glyph-name="question" unicode="?" horiz-adv-x="464" 
d="M177 190q-10 0 -10 10v41q0 30 6 48t20 37l79 108q18 24 26 43t8 39q0 32 -21 53.5t-57 21.5q-35 0 -56.5 -21t-28.5 -59q-2 -10 -11 -8l-90 14q-10 1 -8 12q12 75 63.5 118.5t134.5 43.5q41 0 75.5 -13t59.5 -36t39 -55t14 -70q0 -63 -41 -117l-79 -108
q-11 -14 -15.5 -27t-4.5 -36v-29q0 -10 -10 -10h-93zM163 112q0 10 10 10h100q10 0 10 -10v-102q0 -10 -10 -10h-100q-10 0 -10 10v102z" />
    <glyph glyph-name="at" unicode="@" horiz-adv-x="900" 
d="M54 268q0 87 29 159t81.5 123.5t125 80.5t160.5 29t160.5 -29t125 -81t81.5 -124t29 -158q0 -55 -13.5 -95.5t-36 -66.5t-52.5 -39t-63 -13q-45 0 -74.5 17.5t-46.5 46.5h-1q-14 -28 -46 -45.5t-86 -17.5q-112 0 -144 98q-7 20 -10 44.5t-3 66.5t3 66.5t10 44.5
q16 49 52 73.5t88 24.5q40 0 68 -15.5t40 -35.5h2v31q0 9 8 9h74q8 0 8 -9v-247q0 -38 17.5 -54t40.5 -16q15 0 28 6.5t23 21.5t16 40.5t6 63.5q0 69 -21 126t-60.5 98t-96 63.5t-126.5 22.5q-71 0 -127 -22.5t-95.5 -63t-60.5 -98t-21 -126.5t21 -126.5t60.5 -98t95.5 -63
t127 -22.5q70 0 119.5 12t94.5 33q10 5 14 -5l23 -54q5 -8 -4 -13q-54 -29 -112 -42t-135 -13q-88 0 -160.5 29t-125 80.5t-81.5 123.5t-29 159zM369 193q19 -55 79 -55t78 55q4 12 5.5 27t1.5 44t-1.5 44t-5.5 26q-18 56 -78 56t-79 -56q-4 -11 -5.5 -26t-1.5 -44t1.5 -44
t5.5 -27z" />
    <glyph glyph-name="A" unicode="A" horiz-adv-x="617" 
d="M251 670q3 10 13 10h92q10 0 13 -10l230 -660q3 -10 -7 -10h-98q-10 0 -13 10l-45 132h-256l-45 -132q-3 -10 -13 -10h-97q-10 0 -7 10zM400 247l-90 264h-3l-91 -264h184z" />
    <glyph glyph-name="B" unicode="B" horiz-adv-x="607" 
d="M75 670q0 10 10 10h253q108 0 160 -49.5t52 -131.5q0 -58 -23.5 -92.5t-55.5 -51.5v-2q16 -6 32 -19t29 -32.5t21.5 -45t8.5 -56.5q0 -102 -61 -151t-173 -49h-243q-10 0 -10 10v660zM335 397q45 0 71 24.5t26 64.5q0 41 -26 65.5t-71 24.5h-136q-6 0 -6 -6v-167
q0 -6 6 -6h136zM193 110q0 -6 6 -6h142q50 0 76.5 26t26.5 69q0 42 -26.5 68t-76.5 26h-142q-6 0 -6 -6v-177z" />
    <glyph glyph-name="C" unicode="C" horiz-adv-x="575" 
d="M73 156q-5 16 -8.5 31.5t-5.5 36t-3 48t-1 68.5q0 40 1 68t3 48.5t5.5 36t8.5 31.5q26 84 87.5 125.5t148.5 41.5q82 0 141.5 -39t88.5 -107q3 -9 -5 -12l-85 -41q-9 -5 -13 5q-17 36 -46.5 62t-80.5 26q-49 0 -78.5 -24t-43.5 -66q-3 -11 -5.5 -22t-4 -28.5t-2 -42.5
t-0.5 -62q0 -38 0.5 -62.5t2 -42t4 -29t5.5 -21.5q14 -42 43.5 -66t78.5 -24q51 0 80.5 26t46.5 62q4 10 13 5l85 -41q8 -3 5 -12q-29 -68 -88.5 -107t-141.5 -39q-87 0 -148.5 41.5t-87.5 125.5z" />
    <glyph glyph-name="D" unicode="D" horiz-adv-x="625" 
d="M75 670q0 10 10 10h243q178 0 227 -151q4 -13 7 -27.5t5.5 -35.5t3.5 -51.5t1 -74.5t-1 -74.5t-3.5 -51.5t-5.5 -35.5t-7 -27.5q-49 -151 -227 -151h-243q-10 0 -10 10v660zM193 112q0 -6 6 -6h101q57 0 91.5 20t49.5 66q3 7 5 17.5t3.5 27t2.5 41.5t1 62t-1 62t-2.5 42
t-3.5 27t-5 17q-15 46 -49.5 66t-91.5 20h-101q-6 0 -6 -6v-456z" />
    <glyph glyph-name="E" unicode="E" horiz-adv-x="570" 
d="M75 670q0 10 10 10h426q10 0 10 -10v-86q0 -10 -10 -10h-312q-6 0 -6 -6v-166q0 -6 6 -6h263q10 0 10 -10v-86q0 -10 -10 -10h-263q-6 0 -6 -6v-172q0 -6 6 -6h312q10 0 10 -10v-86q0 -10 -10 -10h-426q-10 0 -10 10v660z" />
    <glyph glyph-name="F" unicode="F" horiz-adv-x="561" 
d="M75 670q0 10 10 10h426q10 0 10 -10v-86q0 -10 -10 -10h-312q-6 0 -6 -6v-173q0 -6 6 -6h263q10 0 10 -10v-86q0 -10 -10 -10h-263q-6 0 -6 -6v-267q0 -10 -10 -10h-98q-10 0 -10 10v660z" />
    <glyph glyph-name="G" unicode="G" horiz-adv-x="627" 
d="M73 153q-5 16 -8.5 32t-5.5 37t-3 49.5t-1 68.5t1 68.5t3 49.5t5.5 37t8.5 32q26 81 89 122.5t154 41.5q48 0 87 -12t69 -31.5t50 -46t31 -54.5q4 -9 -4 -14l-84 -37q-9 -3 -13 5q-23 41 -55 62.5t-82 21.5q-52 0 -83 -23.5t-45 -65.5q-3 -9 -5.5 -21t-4 -30t-2 -43.5
t-0.5 -61.5t0.5 -61.5t2 -43.5t4 -30t5.5 -21q14 -42 45 -65.5t83 -23.5q45 0 80 21.5t49 63.5q5 16 8 37.5t3 50.5q0 6 -6 6h-112q-10 0 -10 10v80q0 10 10 10h225q10 0 10 -10v-59q0 -42 -4 -82.5t-12 -66.5q-25 -80 -88.5 -123.5t-151.5 -43.5q-91 0 -154 41.5t-89 122.5
z" />
    <glyph glyph-name="H" unicode="H" horiz-adv-x="657" 
d="M75 670q0 10 10 10h98q10 0 10 -10v-268q0 -6 6 -6h259q6 0 6 6v268q0 10 10 10h98q10 0 10 -10v-660q0 -10 -10 -10h-98q-10 0 -10 10v274q0 6 -6 6h-259q-6 0 -6 -6v-274q0 -10 -10 -10h-98q-10 0 -10 10v660z" />
    <glyph glyph-name="I" unicode="I" horiz-adv-x="268" 
d="M75 670q0 10 10 10h98q10 0 10 -10v-660q0 -10 -10 -10h-98q-10 0 -10 10v660z" />
    <glyph glyph-name="J" unicode="J" horiz-adv-x="507" 
d="M24 71q-5 8 2 14l73 55q8 5 15 -3q13 -15 37 -28.5t54 -13.5q54 0 83.5 33.5t29.5 100.5v441q0 10 10 10h98q10 0 10 -10v-441q0 -116 -63.5 -178t-171.5 -62q-58 0 -106 24t-71 58z" />
    <glyph glyph-name="K" unicode="K" horiz-adv-x="633" 
d="M75 670q0 10 10 10h98q10 0 10 -10v-320l257 322q7 8 16 8h114q5 0 6.5 -4t-2.5 -9l-211 -254l235 -401q7 -12 -7 -12h-111q-10 0 -15 8l-178 314l-104 -126v-186q0 -10 -10 -10h-98q-10 0 -10 10v660z" />
    <glyph glyph-name="L" unicode="L" horiz-adv-x="545" 
d="M75 670q0 10 10 10h98q10 0 10 -10v-558q0 -6 6 -6h312q10 0 10 -10v-86q0 -10 -10 -10h-426q-10 0 -10 10v660z" />
    <glyph glyph-name="M" unicode="M" horiz-adv-x="756" 
d="M75 670q0 10 10 10h89q13 0 17 -10l187 -419h4l184 419q4 10 17 10h88q10 0 10 -10v-660q0 -10 -10 -10h-87q-10 0 -10 10v416h-4l-144 -320q-6 -13 -19 -13h-58q-13 0 -19 13l-144 320h-4v-416q0 -10 -10 -10h-87q-10 0 -10 10v660z" />
    <glyph glyph-name="N" unicode="N" horiz-adv-x="657" 
d="M75 670q0 10 10 10h92q11 0 17 -10l277 -469h4v469q0 10 10 10h87q10 0 10 -10v-660q0 -10 -10 -10h-91q-11 0 -17 10l-278 468h-4v-468q0 -10 -10 -10h-87q-10 0 -10 10v660z" />
    <glyph glyph-name="O" unicode="O" horiz-adv-x="627" 
d="M313 -11q-88 0 -151 41.5t-89 122.5q-5 16 -8.5 32t-5.5 37t-3 49.5t-1 68.5t1 68.5t3 49.5t5.5 37t8.5 32q26 81 89 122.5t151 41.5q89 0 152 -41.5t89 -122.5q5 -16 8.5 -32t5.5 -37t3 -49.5t1 -68.5t-1 -68.5t-3 -49.5t-5.5 -37t-8.5 -32q-26 -81 -89 -122.5
t-152 -41.5zM313 95q51 0 82 23.5t45 65.5q3 9 5 21t3.5 30t2.5 43.5t1 61.5t-1 61.5t-2.5 43.5t-3.5 30t-5 21q-14 42 -45 65.5t-82 23.5t-81.5 -23.5t-44.5 -65.5q-3 -9 -5.5 -21t-4 -30t-2 -43.5t-0.5 -61.5t0.5 -61.5t2 -43.5t4 -30t5.5 -21q14 -42 44.5 -65.5
t81.5 -23.5z" />
    <glyph glyph-name="P" unicode="P" horiz-adv-x="598" 
d="M85 0q-10 0 -10 10v660q0 10 10 10h255q49 0 90.5 -15.5t71 -43t46 -66.5t16.5 -86q0 -48 -16.5 -87t-46 -66.5t-71 -43t-90.5 -15.5h-141q-6 0 -6 -6v-241q0 -10 -10 -10h-98zM333 364q53 0 83 28.5t30 76.5q0 47 -30 76t-83 29h-134q-6 0 -6 -6v-198q0 -6 6 -6h134z
" />
    <glyph glyph-name="Q" unicode="Q" horiz-adv-x="627" 
d="M546 -44q-3 -3 -7 -3.5t-8 3.5l-74 70q-59 -37 -144 -37q-88 0 -151 41.5t-89 122.5q-5 16 -8.5 32t-5.5 37t-3 49.5t-1 68.5t1 68.5t3 49.5t5.5 37t8.5 32q26 81 89 122.5t151 41.5q89 0 152 -41.5t89 -122.5q5 -16 8.5 -32t5.5 -37t3 -49.5t1 -68.5t-1 -68.5t-3 -49.5
t-5.5 -37t-8.5 -32l-9.5 -24t-10.5 -22l74 -71q6 -6 0 -14zM313 94q17 0 32.5 2.5t28.5 8.5l-68 66q-7 5 0 14l63 66q7 7 14 1l61 -59q3 9 4.5 21t3 29.5t2 41t0.5 55.5q0 36 -1 61.5t-2.5 43.5t-3.5 30t-5 21q-14 42 -46 66t-83 24t-82.5 -24t-45.5 -66q-3 -9 -5.5 -21
t-4 -30t-2 -43.5t-0.5 -61.5t0.5 -61.5t2 -43.5t4 -30t5.5 -21q14 -42 45.5 -66t82.5 -24z" />
    <glyph glyph-name="R" unicode="R" horiz-adv-x="619" 
d="M461 0q-11 0 -15 10l-130 265h-117q-6 0 -6 -6v-259q0 -10 -10 -10h-98q-10 0 -10 10v660q0 10 10 10h263q47 0 86.5 -15t68.5 -41.5t45.5 -64t16.5 -82.5q0 -67 -35 -116t-94 -71l143 -277q3 -5 0.5 -9t-7.5 -4h-111zM344 381q47 0 75.5 26t28.5 70q0 45 -28.5 71
t-75.5 26h-145q-6 0 -6 -6v-181q0 -6 6 -6h145z" />
    <glyph glyph-name="S" unicode="S" horiz-adv-x="587" 
d="M289 -11q-38 0 -74 7t-68.5 19t-60 28.5t-47.5 35.5q-8 8 -2 15l62 72q7 8 14 1q16 -13 36.5 -26t44 -23t49.5 -16.5t55 -6.5q61 0 94.5 27.5t33.5 70.5q0 37 -27 60.5t-97 33.5l-36 5q-99 14 -152 61.5t-53 132.5q0 46 16 84t46 65t72.5 41.5t95.5 14.5
q64 0 121.5 -18.5t98.5 -49.5q7 -6 2 -14l-48 -74q-6 -8 -14 -3q-42 27 -81 40t-82 13q-52 0 -79.5 -25.5t-27.5 -65.5q0 -35 28 -58.5t97 -33.5l36 -5q99 -14 151 -61.5t52 -135.5q0 -45 -16 -84t-48.5 -67t-80.5 -44t-111 -16z" />
    <glyph glyph-name="T" unicode="T" horiz-adv-x="550" 
d="M226 0q-10 0 -10 10v558q0 6 -6 6h-178q-10 0 -10 10v86q0 10 10 10h486q10 0 10 -10v-86q0 -10 -10 -10h-178q-6 0 -6 -6v-558q0 -10 -10 -10h-98z" />
    <glyph glyph-name="U" unicode="U" horiz-adv-x="643" 
d="M321 95q59 0 96 37.5t37 108.5v429q0 10 10 10h98q10 0 10 -10v-431q0 -59 -19 -105.5t-52.5 -78.5t-79.5 -49t-100 -17t-99.5 17t-79 49t-52.5 78.5t-19 105.5v431q0 10 10 10h98q10 0 10 -10v-429q0 -71 37 -108.5t95 -37.5z" />
    <glyph glyph-name="V" unicode="V" horiz-adv-x="565" 
d="M241 0q-9 0 -12 10l-215 660q-3 10 8 10h97q10 0 13 -10l152 -482h3l146 482q3 10 13 10h97q11 0 8 -10l-216 -660q-3 -10 -12 -10h-82z" />
    <glyph glyph-name="W" unicode="W" horiz-adv-x="827" 
d="M557 0q-9 0 -12 10l-130 465h-2l-131 -465q-3 -10 -12 -10h-75q-9 0 -12 10l-167 660q-2 10 8 10h94q10 0 12 -10l108 -458h2l127 458q3 10 12 10h70q9 0 12 -10l130 -458h2l105 458q1 10 12 10h93q10 0 8 -10l-166 -660q-2 -10 -12 -10h-76z" />
    <glyph glyph-name="X" unicode="X" horiz-adv-x="572" 
d="M440 0q-10 0 -16 10l-137 231h-2l-138 -231q-6 -10 -16 -10h-108q-13 0 -6 13l203 339l-188 315q-7 13 6 13h108q10 0 16 -10l123 -206h2l123 206q6 10 16 10h108q13 0 6 -13l-188 -315l203 -339q7 -13 -6 -13h-109z" />
    <glyph glyph-name="Y" unicode="Y" horiz-adv-x="536" 
d="M219 0q-10 0 -10 10v268l-197 392q-4 10 8 10h101q10 0 14 -10l133 -264h3l134 264q4 10 14 10h97q12 0 8 -10l-197 -392v-268q0 -10 -10 -10h-98z" />
    <glyph glyph-name="Z" unicode="Z" horiz-adv-x="532" 
d="M55 0q-10 0 -10 10v86q0 5 3 11l307 465v2h-289q-10 0 -10 10v86q0 10 10 10h412q10 0 10 -10v-86q0 -6 -3 -10l-307 -466v-2h300q10 0 10 -10v-86q0 -10 -10 -10h-423z" />
    <glyph glyph-name="bracketleft" unicode="[" horiz-adv-x="280" 
d="M72 -84q-10 0 -10 10v804q0 10 10 10h167q10 0 10 -10v-66q0 -10 -10 -10h-68q-6 0 -6 -6v-640q0 -6 6 -6h68q10 0 10 -10v-66q0 -10 -10 -10h-167z" />
    <glyph glyph-name="backslash" unicode="\" horiz-adv-x="425" 
d="M289 -11q-10 0 -13 10l-222 682q-3 10 7 10h75q10 0 13 -10l222 -682q3 -10 -7 -10h-75z" />
    <glyph glyph-name="bracketright" unicode="]" horiz-adv-x="280" 
d="M41 -84q-10 0 -10 10v66q0 10 10 10h68q6 0 6 6v640q0 6 -6 6h-68q-10 0 -10 10v66q0 10 10 10h167q10 0 10 -10v-804q0 -10 -10 -10h-167z" />
    <glyph glyph-name="asciicircum" unicode="^" 
d="M404 263q-10 0 -14 10l-115 270h-2l-115 -270q-4 -10 -13 -10h-83q-11 0 -6 10l173 397q5 10 14 10h62q9 0 14 -10l174 -397q5 -10 -6 -10h-83z" />
    <glyph glyph-name="underscore" unicode="_" horiz-adv-x="492" 
d="M0 -136v66h492v-66h-492z" />
    <glyph glyph-name="grave" unicode="`" horiz-adv-x="422" 
d="M231 555q-11 0 -20 10l-95 125q-3 4 -1.5 7t6.5 3h91q12 0 18 -10l74 -125q5 -10 -6 -10h-67z" />
    <glyph glyph-name="a" unicode="a" horiz-adv-x="523" 
d="M360 0q-10 0 -10 10v35h-1q-17 -25 -51 -40.5t-85 -15.5q-33 0 -62.5 9t-51.5 27t-35 45.5t-13 65.5q0 79 51.5 116t141.5 37h98q6 0 6 6v23q0 42 -23 61t-84 19q-41 0 -67 -9.5t-43 -23.5q-9 -7 -14 2l-37 66q-5 8 2 13q29 21 70 34t101 13q110 0 155.5 -40t45.5 -128
v-315q0 -10 -10 -10h-84zM241 80q52 0 79.5 20t27.5 62v37q0 6 -6 6h-80q-54 0 -79 -15.5t-25 -49.5q0 -60 83 -60z" />
    <glyph glyph-name="b" unicode="b" horiz-adv-x="545" 
d="M314 -11q-49 0 -80 16t-48 41h-1v-36q0 -10 -10 -10h-92q-10 0 -10 10v660q0 10 10 10h92q10 0 10 -10v-234h1q17 25 48 41t80 16q62 0 105 -29t62 -87q9 -28 13 -57.5t4 -78.5t-4 -78.5t-13 -57.5q-19 -58 -62 -87t-105 -29zM285 89q69 0 89 62q5 17 7.5 37t2.5 53
t-2.5 53t-7.5 37q-20 62 -89 62q-70 0 -90 -62q-5 -17 -7.5 -37t-2.5 -53t2.5 -53t7.5 -37q20 -62 90 -62z" />
    <glyph glyph-name="c" unicode="c" horiz-adv-x="475" 
d="M261 -11q-73 0 -125.5 34t-73.5 99q-15 45 -15 119t15 119q21 65 73.5 99t125.5 34q54 0 96 -20t71 -55q6 -8 -1 -14l-63 -55q-8 -6 -14 2q-18 20 -38.5 31t-50.5 11q-32 0 -55.5 -15.5t-34.5 -47.5q-6 -18 -8 -39.5t-2 -49.5t2 -50t8 -40q11 -31 34.5 -46.5t55.5 -15.5
q30 0 50.5 11t38.5 31q6 7 14 1l63 -55q6 -5 1 -14q-29 -34 -71 -54t-96 -20z" />
    <glyph glyph-name="d" unicode="d" horiz-adv-x="545" 
d="M370 0q-10 0 -10 10v36h-1q-17 -25 -48 -41t-80 -16q-62 0 -105 29t-62 87q-9 28 -13 57.5t-4 78.5t4 78.5t13 57.5q19 58 62 87t105 29q49 0 80 -16t48 -41h1v234q0 10 10 10h92q10 0 10 -10v-660q0 -10 -10 -10h-92zM260 89q70 0 90 62q5 17 7.5 37t2.5 53t-2.5 53
t-7.5 37q-20 62 -90 62q-69 0 -89 -62q-5 -17 -7.5 -37t-2.5 -53t2.5 -53t7.5 -37q20 -62 89 -62z" />
    <glyph glyph-name="e" unicode="e" horiz-adv-x="521" 
d="M265 -11q-77 0 -129 35.5t-72 98.5q-8 23 -12.5 51.5t-4.5 66.5t4 67t12 52q20 63 72.5 98t124.5 35q75 0 126.5 -35.5t71.5 -97.5q4 -13 7 -26t5 -30t3 -38.5t1 -50.5q0 -10 -11 -10h-297q-6 0 -6 -6q0 -11 2 -20t5 -17q25 -73 108 -73q41 0 68 13t45 33q8 8 15 2
l59 -52q7 -6 1 -14q-31 -36 -81 -59t-117 -23zM361 295q0 23 -6 41q-10 29 -35 45.5t-59 16.5q-35 0 -60 -16.5t-35 -45.5q-6 -18 -6 -41q0 -6 6 -6h189q6 0 6 6z" />
    <glyph glyph-name="f" unicode="f" horiz-adv-x="328" 
d="M98 0q-10 0 -10 10v379q0 6 -6 6h-32q-10 0 -10 10v67q0 10 10 10h32q6 0 6 6v31q0 85 40.5 123t119.5 38h44q10 0 10 -10v-80q0 -10 -10 -10h-31q-19 0 -31 -2.5t-18.5 -9.5t-9 -18t-2.5 -29v-33q0 -6 6 -6h86q10 0 10 -10v-67q0 -10 -10 -10h-86q-6 0 -6 -6v-379
q0 -10 -10 -10h-92z" />
    <glyph glyph-name="g" unicode="g" horiz-adv-x="536" 
d="M238 -191q-51 0 -99 19.5t-76 52.5q-6 7 1 14l59 59q7 7 15 0q47 -45 105 -45q56 0 82 29t26 86v45h-1q-17 -26 -47.5 -41t-77.5 -15q-61 0 -103 30t-61 87q-9 28 -12.5 55.5t-3.5 67.5t3.5 67t12.5 55q19 58 61 88t103 30q47 0 77.5 -15.5t47.5 -41.5h1v36q0 10 10 10
h92q10 0 10 -10v-442q0 -104 -56.5 -162.5t-168.5 -58.5zM254 112q35 0 55.5 16t30.5 46q6 17 8.5 35.5t2.5 43.5q0 47 -11 79q-10 29 -30.5 45t-55.5 16q-65 0 -85 -61q-11 -32 -11 -79q0 -25 2.5 -43.5t8.5 -35.5q20 -62 85 -62z" />
    <glyph glyph-name="h" unicode="h" horiz-adv-x="548" 
d="M378 0q-10 0 -10 10v278q0 47 -23 76t-68 29q-44 0 -68 -29t-24 -76v-278q0 -10 -10 -10h-92q-10 0 -10 10v660q0 10 10 10h92q10 0 10 -10v-233h1q16 23 47.5 39.5t79.5 16.5q39 0 69.5 -13.5t52.5 -37.5t33.5 -56.5t11.5 -71.5v-304q0 -10 -10 -10h-92z" />
    <glyph glyph-name="i" unicode="i" horiz-adv-x="258" 
d="M83 573q-10 0 -10 10v87q0 10 10 10h92q10 0 10 -10v-87q0 -10 -10 -10h-92zM83 0q-10 0 -10 10v462q0 10 10 10h92q10 0 10 -10v-462q0 -10 -10 -10h-92z" />
    <glyph glyph-name="j" unicode="j" horiz-adv-x="258" 
d="M83 573q-10 0 -10 10v87q0 10 10 10h92q10 0 10 -10v-87q0 -10 -10 -10h-92zM-5 -180q-10 0 -10 10v80q0 10 10 10h22q30 0 43 12t13 45v495q0 10 10 10h92q10 0 10 -10v-493q0 -84 -41.5 -121.5t-120.5 -37.5h-28z" />
    <glyph glyph-name="k" unicode="k" horiz-adv-x="522" 
d="M388 0q-10 0 -16 10l-122 202l-65 -75v-127q0 -10 -10 -10h-92q-10 0 -10 10v660q0 10 10 10h92q10 0 10 -10v-392l165 194q9 10 19 10h102q5 0 6 -3.5t-2 -6.5l-153 -176l176 -286q2 -3 1 -6.5t-6 -3.5h-105z" />
    <glyph glyph-name="l" unicode="l" horiz-adv-x="291" 
d="M203 -6q-71 0 -101.5 34t-30.5 104v538q0 10 10 10h92q10 0 10 -10v-532q0 -25 10 -34.5t32 -9.5h22q10 0 10 -10v-80q0 -10 -10 -10h-44z" />
    <glyph glyph-name="m" unicode="m" horiz-adv-x="843" 
d="M673 0q-10 0 -10 10v278q0 47 -23 76t-68 29q-44 0 -68 -29t-24 -76v-278q0 -10 -10 -10h-92q-10 0 -10 10v278q0 47 -23 76t-68 29q-44 0 -68 -29t-24 -76v-278q0 -10 -10 -10h-92q-10 0 -10 10v462q0 10 10 10h92q10 0 10 -10v-35h1q16 23 47.5 39.5t79.5 16.5
q43 0 76.5 -16.5t55.5 -47.5h1q28 30 65 47t89 17q42 0 74.5 -13.5t55 -37.5t34 -56.5t11.5 -71.5v-304q0 -10 -10 -10h-92z" />
    <glyph glyph-name="n" unicode="n" horiz-adv-x="548" 
d="M378 0q-10 0 -10 10v278q0 47 -23 76t-68 29q-44 0 -68 -29t-24 -76v-278q0 -10 -10 -10h-92q-10 0 -10 10v462q0 10 10 10h92q10 0 10 -10v-35h1q16 23 47.5 39.5t79.5 16.5q39 0 69.5 -13.5t52.5 -37.5t33.5 -56.5t11.5 -71.5v-304q0 -10 -10 -10h-92z" />
    <glyph glyph-name="o" unicode="o" horiz-adv-x="523" 
d="M262 -11q-74 0 -126.5 35t-72.5 98q-8 26 -12 52.5t-4 66.5t4 66.5t12 52.5q20 63 72.5 98t126.5 35q73 0 125.5 -35t72.5 -98q8 -26 12 -52.5t4 -66.5t-4 -66.5t-12 -52.5q-20 -63 -72.5 -98t-125.5 -35zM262 89q34 0 56.5 16.5t33.5 46.5q6 19 8 38.5t2 50.5t-2 50
t-8 39q-11 30 -33.5 46.5t-56.5 16.5t-57 -16.5t-34 -46.5q-6 -20 -8 -39t-2 -50t2 -50.5t8 -38.5q11 -30 34 -46.5t57 -16.5z" />
    <glyph glyph-name="p" unicode="p" horiz-adv-x="545" 
d="M83 -180q-10 0 -10 10v642q0 10 10 10h92q10 0 10 -10v-36h1q17 25 48 41t80 16q62 0 105 -29t62 -87q9 -28 13 -57.5t4 -78.5t-4 -78.5t-13 -57.5q-19 -58 -62 -87t-105 -29q-49 0 -80 16t-48 41h-1v-216q0 -10 -10 -10h-92zM285 89q69 0 89 62q5 17 7.5 37t2.5 53
t-2.5 53t-7.5 37q-20 62 -89 62q-70 0 -90 -62q-5 -17 -7.5 -37t-2.5 -53t2.5 -53t7.5 -37q20 -62 90 -62z" />
    <glyph glyph-name="q" unicode="q" horiz-adv-x="545" 
d="M370 -180q-10 0 -10 10v216h-1q-17 -25 -48 -41t-80 -16q-62 0 -105 29t-62 87q-9 28 -13 57.5t-4 78.5t4 78.5t13 57.5q19 58 62 87t105 29q49 0 80 -16t48 -41h1v36q0 10 10 10h92q10 0 10 -10v-642q0 -10 -10 -10h-92zM260 89q70 0 90 62q5 17 7.5 37t2.5 53t-2.5 53
t-7.5 37q-20 62 -90 62q-69 0 -89 -62q-5 -17 -7.5 -37t-2.5 -53t2.5 -53t7.5 -37q20 -62 89 -62z" />
    <glyph glyph-name="r" unicode="r" horiz-adv-x="423" 
d="M83 0q-10 0 -10 10v462q0 10 10 10h92q10 0 10 -10v-41h1q17 28 48 45t77 17q29 0 55.5 -10.5t45.5 -29.5q7 -7 2 -14l-53 -67q-6 -8 -14 -2q-17 11 -34 17t-37 6q-48 0 -69.5 -32t-21.5 -90v-261q0 -10 -10 -10h-92z" />
    <glyph glyph-name="s" unicode="s" horiz-adv-x="498" 
d="M251 -11q-74 0 -125.5 24t-81.5 52q-7 7 0 14l57 60q7 7 14 0q26 -24 64.5 -39.5t76.5 -15.5q45 0 67 16t22 41q0 22 -16.5 35t-63.5 18l-52 5q-74 8 -111 44t-37 98q0 70 48 111t139 41q57 0 103 -16.5t78 -42.5q8 -6 2 -14l-49 -59q-6 -7 -14 -2q-23 16 -56.5 28
t-69.5 12t-54.5 -14t-18.5 -36q0 -21 16 -33.5t63 -17.5l52 -5q76 -8 112.5 -44.5t36.5 -96.5q0 -72 -51 -117.5t-151 -45.5z" />
    <glyph glyph-name="t" unicode="t" horiz-adv-x="321" 
d="M214 -6q-73 0 -103.5 35t-30.5 106v254q0 6 -6 6h-32q-10 0 -10 10v67q0 10 10 10h32q6 0 6 6v132q0 10 10 10h92q10 0 10 -10v-132q0 -6 6 -6h64q10 0 10 -10v-67q0 -10 -10 -10h-64q-6 0 -6 -6v-250q0 -26 11 -35.5t34 -9.5h25q10 0 10 -10v-80q0 -10 -10 -10h-48z" />
    <glyph glyph-name="u" unicode="u" horiz-adv-x="544" 
d="M369 0q-10 0 -10 10v35h-1q-20 -25 -49.5 -40.5t-75.5 -15.5q-39 0 -69.5 13.5t-52 37.5t-33 56.5t-11.5 71.5v304q0 10 10 10h92q10 0 10 -10v-278q0 -47 22 -76t68 -29q43 0 66.5 29t23.5 75v279q0 10 10 10h92q10 0 10 -10v-462q0 -10 -10 -10h-92z" />
    <glyph glyph-name="v" unicode="v" horiz-adv-x="486" 
d="M203 0q-10 0 -13 10l-170 462q-3 10 8 10h98q9 0 12 -10l106 -313h2l104 313q3 10 12 10h96q11 0 8 -10l-170 -462q-3 -10 -13 -10h-80z" />
    <glyph glyph-name="w" unicode="w" horiz-adv-x="753" 
d="M483 0q-9 0 -12 10l-93 308h-2l-94 -308q-3 -10 -12 -10h-82q-9 0 -12 10l-152 462q-3 10 7 10h96q10 0 13 -10l93 -318h2l92 318q3 10 13 10h72q10 0 13 -10l98 -318h2l88 318q3 10 13 10h96q10 0 7 -10l-152 -462q-3 -10 -12 -10h-82z" />
    <glyph glyph-name="x" unicode="x" horiz-adv-x="495" 
d="M364 0q-9 0 -16 10l-100 147h-1l-100 -147q-7 -10 -17 -10h-99q-7 0 -8.5 3t0.5 7l163 240l-151 222q-2 4 -0.5 7t8.5 3h100q11 0 17 -10l87 -130h1l88 130q7 10 16 10h100q7 0 8.5 -3t-0.5 -7l-151 -222l163 -240q2 -4 0.5 -7t-8.5 -3h-100z" />
    <glyph glyph-name="y" unicode="y" horiz-adv-x="485" 
d="M90 -180q-10 0 -10 10v80q0 10 10 10h18q29 0 45 13.5t27 43.5l14 41l-176 454q-3 10 8 10h99q9 0 12 -10l109 -315h2l104 315q3 10 12 10h95q11 0 8 -10l-184 -502q-16 -43 -32 -71.5t-35 -46t-42 -25t-53 -7.5h-31z" />
    <glyph glyph-name="z" unicode="z" horiz-adv-x="485" 
d="M62 0q-10 0 -10 10v73q0 5 3 10l246 289v2h-226q-10 0 -10 10v78q0 10 10 10h348q10 0 10 -10v-78q0 -6 -3 -10l-243 -284v-2h236q10 0 10 -10v-78q0 -10 -10 -10h-361z" />
    <glyph glyph-name="braceleft" unicode="{" horiz-adv-x="346" 
d="M248 -84q-57 0 -88 30.5t-31 89.5v168q0 77 -68 77q-10 0 -10 10v79q0 10 10 10q68 0 68 77v163q0 59 31 89.5t88 30.5h58q10 0 10 -10v-66q0 -10 -10 -10h-31q-43 0 -43 -42v-158q0 -56 -16 -83t-54 -40v-1q38 -13 54 -40t16 -83v-163q0 -42 43 -42h31q10 0 10 -10v-66
q0 -10 -10 -10h-58z" />
    <glyph glyph-name="bar" unicode="|" horiz-adv-x="330" 
d="M129 -84q-10 0 -10 10v804q0 10 10 10h72q10 0 10 -10v-804q0 -10 -10 -10h-72z" />
    <glyph glyph-name="braceright" unicode="}" horiz-adv-x="346" 
d="M41 -84q-10 0 -10 10v66q0 10 10 10h31q42 0 42 42v163q0 56 16.5 83t54.5 40v1q-38 13 -54.5 40t-16.5 83v158q0 42 -42 42h-31q-10 0 -10 10v66q0 10 10 10h57q57 0 88 -30.5t31 -89.5v-163q0 -77 68 -77q10 0 10 -10v-79q0 -10 -10 -10q-68 0 -68 -77v-168
q0 -59 -31 -89.5t-88 -30.5h-57z" />
    <glyph glyph-name="asciitilde" unicode="~" 
d="M359 200q-31 0 -57 11.5t-47 24.5q-17 11 -33.5 18t-33.5 7q-25 0 -40 -13t-29 -37q-5 -9 -15 -2l-52 31q-7 5 -3 14q20 45 57.5 71t82.5 26q31 0 57.5 -11t47.5 -24q17 -11 33 -18t33 -7q25 0 40.5 13t29.5 37q5 9 15 2l52 -31q7 -5 3 -14q-20 -45 -57.5 -71.5
t-83.5 -26.5z" />
    <glyph glyph-name="Adieresis" unicode="&#xc4;" horiz-adv-x="617" 
d="M251 670q3 10 13 10h92q10 0 13 -10l230 -660q3 -10 -7 -10h-98q-10 0 -13 10l-45 132h-256l-45 -132q-3 -10 -13 -10h-97q-10 0 -7 10zM400 247l-90 264h-3l-91 -264h184zM371 769q-10 0 -10 10v87q0 10 10 10h73q10 0 10 -10v-87q0 -10 -10 -10h-73zM171 769
q-10 0 -10 10v87q0 10 10 10h73q10 0 10 -10v-87q0 -10 -10 -10h-73z" />
    <glyph glyph-name="Aring" unicode="&#xc5;" horiz-adv-x="617" 
d="M251 670q3 10 13 10h92q10 0 13 -10l230 -660q3 -10 -7 -10h-98q-10 0 -13 10l-45 132h-256l-45 -132q-3 -10 -13 -10h-97q-10 0 -7 10zM400 247l-90 264h-3l-91 -264h184zM308 721q-43 0 -71 28t-28 71t28 71.5t71 28.5t71 -28.5t28 -71.5t-28 -71t-71 -28zM308 769
q21 0 35 14.5t14 36.5t-14 36.5t-35 14.5t-35 -14.5t-14 -36.5t14 -36.5t35 -14.5z" />
    <glyph glyph-name="Ccedilla" unicode="&#xc7;" horiz-adv-x="575" 
d="M210 -155q-10 0 -7 10l55 137q-67 13 -114.5 52.5t-70.5 111.5q-5 16 -8.5 31.5t-5.5 36t-3 48t-1 68.5q0 40 1 68t3 48.5t5.5 36t8.5 31.5q26 84 87.5 125.5t148.5 41.5q82 0 141.5 -39t88.5 -107q3 -9 -5 -12l-85 -41q-9 -5 -13 5q-17 36 -46.5 62t-80.5 26
q-49 0 -78.5 -24t-43.5 -66q-3 -11 -5.5 -22t-4 -28.5t-2 -42.5t-0.5 -62q0 -38 0.5 -62.5t2 -42t4 -29t5.5 -21.5q14 -42 43.5 -66t78.5 -24q51 0 80.5 26t46.5 62q4 10 13 5l85 -41q8 -3 5 -12q-26 -59 -74.5 -96.5t-117.5 -47.5l-43 -136q-3 -10 -16 -10h-78z" />
    <glyph glyph-name="Eacute" unicode="&#xc9;" horiz-adv-x="570" 
d="M233 761q-5 0 -6 3t2 7l88 107q8 10 19 10h98q5 0 7 -3t-2 -7l-117 -109q-5 -5 -9 -6.5t-9 -1.5h-71zM75 670q0 10 10 10h426q10 0 10 -10v-86q0 -10 -10 -10h-312q-6 0 -6 -6v-166q0 -6 6 -6h263q10 0 10 -10v-86q0 -10 -10 -10h-263q-6 0 -6 -6v-172q0 -6 6 -6h312
q10 0 10 -10v-86q0 -10 -10 -10h-426q-10 0 -10 10v660z" />
    <glyph glyph-name="Ntilde" unicode="&#xd1;" horiz-adv-x="657" 
d="M387 757q-20 0 -35 5.5t-32 14.5q-15 8 -28 13t-28 5q-22 0 -37.5 -9.5t-29.5 -21.5q-4 -3 -6.5 -2t-2.5 4v61q0 10 8 19q14 15 32.5 24.5t39.5 9.5q20 0 35 -5.5t32 -14.5q15 -8 28 -13t29 -5q21 0 36.5 9.5t29.5 21.5q4 3 6.5 2t2.5 -4v-61q0 -10 -8 -19
q-14 -15 -32.5 -24.5t-39.5 -9.5zM75 670q0 10 10 10h92q11 0 17 -10l277 -469h4v469q0 10 10 10h87q10 0 10 -10v-660q0 -10 -10 -10h-91q-11 0 -17 10l-278 468h-4v-468q0 -10 -10 -10h-87q-10 0 -10 10v660z" />
    <glyph glyph-name="Odieresis" unicode="&#xd6;" horiz-adv-x="627" 
d="M376 769q-10 0 -10 10v87q0 10 10 10h73q10 0 10 -10v-87q0 -10 -10 -10h-73zM176 769q-10 0 -10 10v87q0 10 10 10h73q10 0 10 -10v-87q0 -10 -10 -10h-73zM313 -11q-88 0 -151 41.5t-89 122.5q-5 16 -8.5 32t-5.5 37t-3 49.5t-1 68.5t1 68.5t3 49.5t5.5 37t8.5 32
q26 81 89 122.5t151 41.5q89 0 152 -41.5t89 -122.5q5 -16 8.5 -32t5.5 -37t3 -49.5t1 -68.5t-1 -68.5t-3 -49.5t-5.5 -37t-8.5 -32q-26 -81 -89 -122.5t-152 -41.5zM313 95q51 0 82 23.5t45 65.5q3 9 5 21t3.5 30t2.5 43.5t1 61.5t-1 61.5t-2.5 43.5t-3.5 30t-5 21
q-14 42 -45 65.5t-82 23.5t-81.5 -23.5t-44.5 -65.5q-3 -9 -5.5 -21t-4 -30t-2 -43.5t-0.5 -61.5t0.5 -61.5t2 -43.5t4 -30t5.5 -21q14 -42 44.5 -65.5t81.5 -23.5z" />
    <glyph glyph-name="Udieresis" unicode="&#xdc;" horiz-adv-x="643" 
d="M385 769q-10 0 -10 10v87q0 10 10 10h73q10 0 10 -10v-87q0 -10 -10 -10h-73zM185 769q-10 0 -10 10v87q0 10 10 10h73q10 0 10 -10v-87q0 -10 -10 -10h-73zM321 95q59 0 96 37.5t37 108.5v429q0 10 10 10h98q10 0 10 -10v-431q0 -59 -19 -105.5t-52.5 -78.5t-79.5 -49
t-100 -17t-99.5 17t-79 49t-52.5 78.5t-19 105.5v431q0 10 10 10h98q10 0 10 -10v-429q0 -71 37 -108.5t95 -37.5z" />
    <glyph glyph-name="aacute" unicode="&#xe1;" horiz-adv-x="523" 
d="M360 0q-10 0 -10 10v35h-1q-17 -25 -51 -40.5t-85 -15.5q-33 0 -62.5 9t-51.5 27t-35 45.5t-13 65.5q0 79 51.5 116t141.5 37h98q6 0 6 6v23q0 42 -23 61t-84 19q-41 0 -67 -9.5t-43 -23.5q-9 -7 -14 2l-37 66q-5 8 2 13q29 21 70 34t101 13q110 0 155.5 -40t45.5 -128
v-315q0 -10 -10 -10h-84zM241 80q52 0 79.5 20t27.5 62v37q0 6 -6 6h-80q-54 0 -79 -15.5t-25 -49.5q0 -60 83 -60zM213 555q-11 0 -6 10l75 125q6 10 18 10h91q5 0 6.5 -3t-1.5 -7l-95 -125q-9 -10 -20 -10h-68z" />
    <glyph glyph-name="agrave" unicode="&#xe0;" horiz-adv-x="523" 
d="M360 0q-10 0 -10 10v35h-1q-17 -25 -51 -40.5t-85 -15.5q-33 0 -62.5 9t-51.5 27t-35 45.5t-13 65.5q0 79 51.5 116t141.5 37h98q6 0 6 6v23q0 42 -23 61t-84 19q-41 0 -67 -9.5t-43 -23.5q-9 -7 -14 2l-37 66q-5 8 2 13q29 21 70 34t101 13q110 0 155.5 -40t45.5 -128
v-315q0 -10 -10 -10h-84zM241 80q52 0 79.5 20t27.5 62v37q0 6 -6 6h-80q-54 0 -79 -15.5t-25 -49.5q0 -60 83 -60zM259 555q-11 0 -20 10l-95 125q-3 4 -1.5 7t6.5 3h91q12 0 18 -10l74 -125q5 -10 -6 -10h-67z" />
    <glyph glyph-name="acircumflex" unicode="&#xe2;" horiz-adv-x="523" 
d="M360 0q-10 0 -10 10v35h-1q-17 -25 -51 -40.5t-85 -15.5q-33 0 -62.5 9t-51.5 27t-35 45.5t-13 65.5q0 79 51.5 116t141.5 37h98q6 0 6 6v23q0 42 -23 61t-84 19q-41 0 -67 -9.5t-43 -23.5q-9 -7 -14 2l-37 66q-5 8 2 13q29 21 70 34t101 13q110 0 155.5 -40t45.5 -128
v-315q0 -10 -10 -10h-84zM241 80q52 0 79.5 20t27.5 62v37q0 6 -6 6h-80q-54 0 -79 -15.5t-25 -49.5q0 -60 83 -60zM340 555q-11 0 -21 10l-57 59h-2l-57 -59q-10 -10 -21 -10h-63q-5 0 -6 3t2 7l98 125q7 10 18 10h60q11 0 18 -10l98 -125q3 -4 2 -7t-6 -3h-63z" />
    <glyph glyph-name="adieresis" unicode="&#xe4;" horiz-adv-x="523" 
d="M360 0q-10 0 -10 10v35h-1q-17 -25 -51 -40.5t-85 -15.5q-33 0 -62.5 9t-51.5 27t-35 45.5t-13 65.5q0 79 51.5 116t141.5 37h98q6 0 6 6v23q0 42 -23 61t-84 19q-41 0 -67 -9.5t-43 -23.5q-9 -7 -14 2l-37 66q-5 8 2 13q29 21 70 34t101 13q110 0 155.5 -40t45.5 -128
v-315q0 -10 -10 -10h-84zM241 80q52 0 79.5 20t27.5 62v37q0 6 -6 6h-80q-54 0 -79 -15.5t-25 -49.5q0 -60 83 -60zM320 573q-10 0 -10 10v87q0 10 10 10h77q10 0 10 -10v-87q0 -10 -10 -10h-77zM124 573q-10 0 -10 10v87q0 10 10 10h77q10 0 10 -10v-87q0 -10 -10 -10h-77z
" />
    <glyph glyph-name="atilde" unicode="&#xe3;" horiz-adv-x="523" 
d="M360 0q-10 0 -10 10v35h-1q-17 -25 -51 -40.5t-85 -15.5q-33 0 -62.5 9t-51.5 27t-35 45.5t-13 65.5q0 79 51.5 116t141.5 37h98q6 0 6 6v23q0 42 -23 61t-84 19q-41 0 -67 -9.5t-43 -23.5q-9 -7 -14 2l-37 66q-5 8 2 13q29 21 70 34t101 13q110 0 155.5 -40t45.5 -128
v-315q0 -10 -10 -10h-84zM241 80q52 0 79.5 20t27.5 62v37q0 6 -6 6h-80q-54 0 -79 -15.5t-25 -49.5q0 -60 83 -60zM320 561q-20 0 -35 5.5t-32 14.5q-15 8 -28 13t-28 5q-22 0 -37.5 -9.5t-29.5 -21.5q-4 -3 -6.5 -2t-2.5 4v61q0 10 8 19q14 15 32.5 24.5t39.5 9.5
q20 0 35 -5.5t32 -14.5q15 -8 28 -13t29 -5q21 0 36.5 9.5t29.5 21.5q4 3 6.5 2t2.5 -4v-61q0 -10 -8 -19q-14 -15 -32.5 -24.5t-39.5 -9.5z" />
    <glyph glyph-name="aring" unicode="&#xe5;" horiz-adv-x="523" 
d="M360 0q-10 0 -10 10v35h-1q-17 -25 -51 -40.5t-85 -15.5q-33 0 -62.5 9t-51.5 27t-35 45.5t-13 65.5q0 79 51.5 116t141.5 37h98q6 0 6 6v23q0 42 -23 61t-84 19q-41 0 -67 -9.5t-43 -23.5q-9 -7 -14 2l-37 66q-5 8 2 13q29 21 70 34t101 13q110 0 155.5 -40t45.5 -128
v-315q0 -10 -10 -10h-84zM241 80q52 0 79.5 20t27.5 62v37q0 6 -6 6h-80q-54 0 -79 -15.5t-25 -49.5q0 -60 83 -60zM266 529q-43 0 -71 28.5t-28 71.5t28 71.5t71 28.5t71 -28.5t28 -71.5t-28 -71.5t-71 -28.5zM266 578q21 0 35 14.5t14 36.5t-14 36.5t-35 14.5t-35 -14.5
t-14 -36.5t14 -36.5t35 -14.5z" />
    <glyph glyph-name="ccedilla" unicode="&#xe7;" horiz-adv-x="475" 
d="M159 -155q-10 0 -7 10l57 139q-52 11 -91 42.5t-56 85.5q-15 45 -15 119t15 119q21 65 73.5 99t125.5 34q54 0 96 -20t71 -55q6 -8 -1 -14l-63 -55q-8 -6 -14 2q-18 20 -38.5 31t-50.5 11q-32 0 -55.5 -15.5t-34.5 -47.5q-6 -18 -8 -39.5t-2 -49.5t2 -50t8 -40
q11 -31 34.5 -46.5t55.5 -15.5q30 0 50.5 11t38.5 31q6 7 14 1l63 -55q6 -5 1 -14q-23 -27 -56 -46t-76 -25l-43 -137q-3 -10 -16 -10h-78z" />
    <glyph glyph-name="eacute" unicode="&#xe9;" horiz-adv-x="521" 
d="M210 555q-11 0 -6 10l75 125q6 10 18 10h91q5 0 6.5 -3t-1.5 -7l-95 -125q-9 -10 -20 -10h-68zM265 -11q-77 0 -129 35.5t-72 98.5q-8 23 -12.5 51.5t-4.5 66.5t4 67t12 52q20 63 72.5 98t124.5 35q75 0 126.5 -35.5t71.5 -97.5q4 -13 7 -26t5 -30t3 -38.5t1 -50.5
q0 -10 -11 -10h-297q-6 0 -6 -6q0 -11 2 -20t5 -17q25 -73 108 -73q41 0 68 13t45 33q8 8 15 2l59 -52q7 -6 1 -14q-31 -36 -81 -59t-117 -23zM361 295q0 23 -6 41q-10 29 -35 45.5t-59 16.5q-35 0 -60 -16.5t-35 -45.5q-6 -18 -6 -41q0 -6 6 -6h189q6 0 6 6z" />
    <glyph glyph-name="egrave" unicode="&#xe8;" horiz-adv-x="521" 
d="M265 -11q-77 0 -129 35.5t-72 98.5q-8 23 -12.5 51.5t-4.5 66.5t4 67t12 52q20 63 72.5 98t124.5 35q75 0 126.5 -35.5t71.5 -97.5q4 -13 7 -26t5 -30t3 -38.5t1 -50.5q0 -10 -11 -10h-297q-6 0 -6 -6q0 -11 2 -20t5 -17q25 -73 108 -73q41 0 68 13t45 33q8 8 15 2
l59 -52q7 -6 1 -14q-31 -36 -81 -59t-117 -23zM361 295q0 23 -6 41q-10 29 -35 45.5t-59 16.5q-35 0 -60 -16.5t-35 -45.5q-6 -18 -6 -41q0 -6 6 -6h189q6 0 6 6zM245 555q-11 0 -20 10l-95 125q-3 4 -1.5 7t6.5 3h91q12 0 18 -10l74 -125q5 -10 -6 -10h-67z" />
    <glyph glyph-name="ecircumflex" unicode="&#xea;" horiz-adv-x="521" 
d="M339 555q-11 0 -21 10l-57 59h-2l-57 -59q-10 -10 -21 -10h-63q-5 0 -6 3t2 7l98 125q7 10 18 10h60q11 0 18 -10l98 -125q3 -4 2 -7t-6 -3h-63zM265 -11q-77 0 -129 35.5t-72 98.5q-8 23 -12.5 51.5t-4.5 66.5t4 67t12 52q20 63 72.5 98t124.5 35q75 0 126.5 -35.5
t71.5 -97.5q4 -13 7 -26t5 -30t3 -38.5t1 -50.5q0 -10 -11 -10h-297q-6 0 -6 -6q0 -11 2 -20t5 -17q25 -73 108 -73q41 0 68 13t45 33q8 8 15 2l59 -52q7 -6 1 -14q-31 -36 -81 -59t-117 -23zM361 295q0 23 -6 41q-10 29 -35 45.5t-59 16.5q-35 0 -60 -16.5t-35 -45.5
q-6 -18 -6 -41q0 -6 6 -6h189q6 0 6 6z" />
    <glyph glyph-name="edieresis" unicode="&#xeb;" horiz-adv-x="521" 
d="M319 573q-10 0 -10 10v87q0 10 10 10h77q10 0 10 -10v-87q0 -10 -10 -10h-77zM123 573q-10 0 -10 10v87q0 10 10 10h77q10 0 10 -10v-87q0 -10 -10 -10h-77zM265 -11q-77 0 -129 35.5t-72 98.5q-8 23 -12.5 51.5t-4.5 66.5t4 67t12 52q20 63 72.5 98t124.5 35
q75 0 126.5 -35.5t71.5 -97.5q4 -13 7 -26t5 -30t3 -38.5t1 -50.5q0 -10 -11 -10h-297q-6 0 -6 -6q0 -11 2 -20t5 -17q25 -73 108 -73q41 0 68 13t45 33q8 8 15 2l59 -52q7 -6 1 -14q-31 -36 -81 -59t-117 -23zM361 295q0 23 -6 41q-10 29 -35 45.5t-59 16.5
q-35 0 -60 -16.5t-35 -45.5q-6 -18 -6 -41q0 -6 6 -6h189q6 0 6 6z" />
    <glyph glyph-name="iacute" unicode="&#xed;" horiz-adv-x="258" 
d="M93 555q-11 0 -6 10l75 125q6 10 18 10h91q5 0 6.5 -3t-1.5 -7l-95 -125q-9 -10 -20 -10h-68zM83 0q-10 0 -10 10v462q0 10 10 10h92q10 0 10 -10v-462q0 -10 -10 -10h-92z" />
    <glyph glyph-name="igrave" unicode="&#xec;" horiz-adv-x="258" 
d="M83 0q-10 0 -10 10v462q0 10 10 10h92q10 0 10 -10v-462q0 -10 -10 -10h-92zM100 555q-11 0 -20 10l-95 125q-3 4 -1.5 7t6.5 3h91q12 0 18 -10l74 -125q5 -10 -6 -10h-67z" />
    <glyph glyph-name="icircumflex" unicode="&#xee;" horiz-adv-x="258" 
d="M208 555q-11 0 -21 10l-57 59h-2l-57 -59q-10 -10 -21 -10h-63q-5 0 -6 3t2 7l98 125q7 10 18 10h60q11 0 18 -10l98 -125q3 -4 2 -7t-6 -3h-63zM83 0q-10 0 -10 10v462q0 10 10 10h92q10 0 10 -10v-462q0 -10 -10 -10h-92z" />
    <glyph glyph-name="idieresis" unicode="&#xef;" horiz-adv-x="258" 
d="M189 573q-10 0 -10 10v87q0 10 10 10h77q10 0 10 -10v-87q0 -10 -10 -10h-77zM-7 573q-10 0 -10 10v87q0 10 10 10h77q10 0 10 -10v-87q0 -10 -10 -10h-77zM83 0q-10 0 -10 10v462q0 10 10 10h92q10 0 10 -10v-462q0 -10 -10 -10h-92z" />
    <glyph glyph-name="ntilde" unicode="&#xf1;" horiz-adv-x="548" 
d="M378 0q-10 0 -10 10v278q0 47 -23 76t-68 29q-44 0 -68 -29t-24 -76v-278q0 -10 -10 -10h-92q-10 0 -10 10v462q0 10 10 10h92q10 0 10 -10v-35h1q16 23 47.5 39.5t79.5 16.5q39 0 69.5 -13.5t52.5 -37.5t33.5 -56.5t11.5 -71.5v-304q0 -10 -10 -10h-92zM332 561
q-20 0 -35 5.5t-32 14.5q-15 8 -28 13t-28 5q-22 0 -37.5 -9.5t-29.5 -21.5q-4 -3 -6.5 -2t-2.5 4v61q0 10 8 19q14 15 32.5 24.5t39.5 9.5q20 0 35 -5.5t32 -14.5q15 -8 28 -13t29 -5q21 0 36.5 9.5t29.5 21.5q4 3 6.5 2t2.5 -4v-61q0 -10 -8 -19q-14 -15 -32.5 -24.5
t-39.5 -9.5z" />
    <glyph glyph-name="oacute" unicode="&#xf3;" horiz-adv-x="523" 
d="M216 555q-11 0 -6 10l75 125q6 10 18 10h91q5 0 6.5 -3t-1.5 -7l-95 -125q-9 -10 -20 -10h-68zM262 -11q-74 0 -126.5 35t-72.5 98q-8 26 -12 52.5t-4 66.5t4 66.5t12 52.5q20 63 72.5 98t126.5 35q73 0 125.5 -35t72.5 -98q8 -26 12 -52.5t4 -66.5t-4 -66.5t-12 -52.5
q-20 -63 -72.5 -98t-125.5 -35zM262 89q34 0 56.5 16.5t33.5 46.5q6 19 8 38.5t2 50.5t-2 50t-8 39q-11 30 -33.5 46.5t-56.5 16.5t-57 -16.5t-34 -46.5q-6 -20 -8 -39t-2 -50t2 -50.5t8 -38.5q11 -30 34 -46.5t57 -16.5z" />
    <glyph glyph-name="ograve" unicode="&#xf2;" horiz-adv-x="523" 
d="M240 555q-11 0 -20 10l-95 125q-3 4 -1.5 7t6.5 3h91q12 0 18 -10l74 -125q5 -10 -6 -10h-67zM262 -11q-74 0 -126.5 35t-72.5 98q-8 26 -12 52.5t-4 66.5t4 66.5t12 52.5q20 63 72.5 98t126.5 35q73 0 125.5 -35t72.5 -98q8 -26 12 -52.5t4 -66.5t-4 -66.5t-12 -52.5
q-20 -63 -72.5 -98t-125.5 -35zM262 89q34 0 56.5 16.5t33.5 46.5q6 19 8 38.5t2 50.5t-2 50t-8 39q-11 30 -33.5 46.5t-56.5 16.5t-57 -16.5t-34 -46.5q-6 -20 -8 -39t-2 -50t2 -50.5t8 -38.5q11 -30 34 -46.5t57 -16.5z" />
    <glyph glyph-name="ocircumflex" unicode="&#xf4;" horiz-adv-x="523" 
d="M340 555q-11 0 -21 10l-57 59h-2l-57 -59q-10 -10 -21 -10h-63q-5 0 -6 3t2 7l98 125q7 10 18 10h60q11 0 18 -10l98 -125q3 -4 2 -7t-6 -3h-63zM262 -11q-74 0 -126.5 35t-72.5 98q-8 26 -12 52.5t-4 66.5t4 66.5t12 52.5q20 63 72.5 98t126.5 35q73 0 125.5 -35
t72.5 -98q8 -26 12 -52.5t4 -66.5t-4 -66.5t-12 -52.5q-20 -63 -72.5 -98t-125.5 -35zM262 89q34 0 56.5 16.5t33.5 46.5q6 19 8 38.5t2 50.5t-2 50t-8 39q-11 30 -33.5 46.5t-56.5 16.5t-57 -16.5t-34 -46.5q-6 -20 -8 -39t-2 -50t2 -50.5t8 -38.5q11 -30 34 -46.5
t57 -16.5z" />
    <glyph glyph-name="odieresis" unicode="&#xf6;" horiz-adv-x="523" 
d="M320 573q-10 0 -10 10v87q0 10 10 10h77q10 0 10 -10v-87q0 -10 -10 -10h-77zM124 573q-10 0 -10 10v87q0 10 10 10h77q10 0 10 -10v-87q0 -10 -10 -10h-77zM262 -11q-74 0 -126.5 35t-72.5 98q-8 26 -12 52.5t-4 66.5t4 66.5t12 52.5q20 63 72.5 98t126.5 35
q73 0 125.5 -35t72.5 -98q8 -26 12 -52.5t4 -66.5t-4 -66.5t-12 -52.5q-20 -63 -72.5 -98t-125.5 -35zM262 89q34 0 56.5 16.5t33.5 46.5q6 19 8 38.5t2 50.5t-2 50t-8 39q-11 30 -33.5 46.5t-56.5 16.5t-57 -16.5t-34 -46.5q-6 -20 -8 -39t-2 -50t2 -50.5t8 -38.5
q11 -30 34 -46.5t57 -16.5z" />
    <glyph glyph-name="otilde" unicode="&#xf5;" horiz-adv-x="523" 
d="M320 561q-20 0 -35 5.5t-32 14.5q-15 8 -28 13t-28 5q-22 0 -37.5 -9.5t-29.5 -21.5q-4 -3 -6.5 -2t-2.5 4v61q0 10 8 19q14 15 32.5 24.5t39.5 9.5q20 0 35 -5.5t32 -14.5q15 -8 28 -13t29 -5q21 0 36.5 9.5t29.5 21.5q4 3 6.5 2t2.5 -4v-61q0 -10 -8 -19
q-14 -15 -32.5 -24.5t-39.5 -9.5zM262 -11q-74 0 -126.5 35t-72.5 98q-8 26 -12 52.5t-4 66.5t4 66.5t12 52.5q20 63 72.5 98t126.5 35q73 0 125.5 -35t72.5 -98q8 -26 12 -52.5t4 -66.5t-4 -66.5t-12 -52.5q-20 -63 -72.5 -98t-125.5 -35zM262 89q34 0 56.5 16.5t33.5 46.5
q6 19 8 38.5t2 50.5t-2 50t-8 39q-11 30 -33.5 46.5t-56.5 16.5t-57 -16.5t-34 -46.5q-6 -20 -8 -39t-2 -50t2 -50.5t8 -38.5q11 -30 34 -46.5t57 -16.5z" />
    <glyph glyph-name="uacute" unicode="&#xfa;" horiz-adv-x="544" 
d="M228 555q-11 0 -6 10l75 125q6 10 18 10h91q5 0 6.5 -3t-1.5 -7l-95 -125q-9 -10 -20 -10h-68zM369 0q-10 0 -10 10v35h-1q-20 -25 -49.5 -40.5t-75.5 -15.5q-39 0 -69.5 13.5t-52 37.5t-33 56.5t-11.5 71.5v304q0 10 10 10h92q10 0 10 -10v-278q0 -47 22 -76t68 -29
q43 0 66.5 29t23.5 75v279q0 10 10 10h92q10 0 10 -10v-462q0 -10 -10 -10h-92z" />
    <glyph glyph-name="ugrave" unicode="&#xf9;" horiz-adv-x="544" 
d="M369 0q-10 0 -10 10v35h-1q-20 -25 -49.5 -40.5t-75.5 -15.5q-39 0 -69.5 13.5t-52 37.5t-33 56.5t-11.5 71.5v304q0 10 10 10h92q10 0 10 -10v-278q0 -47 22 -76t68 -29q43 0 66.5 29t23.5 75v279q0 10 10 10h92q10 0 10 -10v-462q0 -10 -10 -10h-92zM251 555
q-11 0 -20 10l-95 125q-3 4 -1.5 7t6.5 3h91q12 0 18 -10l74 -125q5 -10 -6 -10h-67z" />
    <glyph glyph-name="ucircumflex" unicode="&#xfb;" horiz-adv-x="544" 
d="M350 555q-11 0 -21 10l-57 59h-2l-57 -59q-10 -10 -21 -10h-63q-5 0 -6 3t2 7l98 125q7 10 18 10h60q11 0 18 -10l98 -125q3 -4 2 -7t-6 -3h-63zM369 0q-10 0 -10 10v35h-1q-20 -25 -49.5 -40.5t-75.5 -15.5q-39 0 -69.5 13.5t-52 37.5t-33 56.5t-11.5 71.5v304
q0 10 10 10h92q10 0 10 -10v-278q0 -47 22 -76t68 -29q43 0 66.5 29t23.5 75v279q0 10 10 10h92q10 0 10 -10v-462q0 -10 -10 -10h-92z" />
    <glyph glyph-name="udieresis" unicode="&#xfc;" horiz-adv-x="544" 
d="M330 573q-10 0 -10 10v87q0 10 10 10h77q10 0 10 -10v-87q0 -10 -10 -10h-77zM134 573q-10 0 -10 10v87q0 10 10 10h77q10 0 10 -10v-87q0 -10 -10 -10h-77zM369 0q-10 0 -10 10v35h-1q-20 -25 -49.5 -40.5t-75.5 -15.5q-39 0 -69.5 13.5t-52 37.5t-33 56.5t-11.5 71.5
v304q0 10 10 10h92q10 0 10 -10v-278q0 -47 22 -76t68 -29q43 0 66.5 29t23.5 75v279q0 10 10 10h92q10 0 10 -10v-462q0 -10 -10 -10h-92z" />
    <glyph glyph-name="dagger" unicode="&#x2020;" horiz-adv-x="535" 
d="M224 -180q-10 0 -10 10v520q0 6 -6 6h-144q-10 0 -10 10v75q0 10 10 10h144q6 0 6 6v213q0 10 10 10h87q10 0 10 -10v-213q0 -6 6 -6h144q10 0 10 -10v-75q0 -10 -10 -10h-144q-6 0 -6 -6v-520q0 -10 -10 -10h-87z" />
    <glyph glyph-name="degree" unicode="&#xb0;" horiz-adv-x="465" 
d="M233 395q-32 0 -59 11.5t-47 31t-31 46.5t-11 59q0 31 11 58.5t31 47t47 31t59 11.5q31 0 58 -11.5t46.5 -31t31 -47t11.5 -58.5q0 -32 -11.5 -59t-31 -46.5t-46.5 -31t-58 -11.5zM233 460q35 0 57 24t22 59q0 36 -22 59.5t-57 23.5t-57.5 -23.5t-22.5 -59.5
q0 -35 22.5 -59t57.5 -24z" />
    <glyph glyph-name="cent" unicode="&#xa2;" 
d="M324 492q49 -5 85.5 -24t61.5 -50q6 -8 -1 -14l-62 -55q-8 -6 -14 2q-15 17 -31 27t-39 13v-301q23 4 39 14t31 27q6 7 14 1l62 -55q6 -5 1 -14q-25 -30 -61.5 -49t-85.5 -24v-79q0 -10 -10 -10h-34q-10 0 -10 10v80q-66 6 -111 39t-64 92q-15 45 -15 119t15 119
q19 58 64 91.5t111 39.5v80q0 10 10 10h34q10 0 10 -10v-79zM194 241q0 -28 2 -50t8 -40q15 -50 66 -60v299q-51 -11 -66 -60q-6 -18 -8 -39.5t-2 -49.5z" />
    <glyph glyph-name="sterling" unicode="&#xa3;" 
d="M105 0q-10 0 -10 10v78q0 7 5 12q7 7 13.5 14.5t10.5 17.5t6.5 24t2.5 35v78q0 6 -6 6h-47q-10 0 -10 10v64q0 10 10 10h47q6 0 6 6v138q0 90 47.5 139t128.5 49q68 0 111 -35.5t55 -90.5q2 -9 -9 -11l-88 -21q-9 -2 -11 8q-4 20 -18.5 35t-40.5 15q-30 0 -45.5 -19
t-15.5 -51v-156q0 -6 6 -6h119q10 0 10 -10v-64q0 -10 -10 -10h-119q-6 0 -6 -6v-59q0 -39 -6 -65t-17 -43v-2h242q10 0 10 -10v-80q0 -10 -10 -10h-361z" />
    <glyph glyph-name="section" unicode="&#xa7;" horiz-adv-x="579" 
d="M287 -191q-43 0 -75 10.5t-54 29t-34 43.5t-15 53q-2 9 6 11l82 17q8 2 10 -7q4 -29 21.5 -48t56.5 -19q38 0 57 19t19 49q0 37 -26 60t-93 39q-75 18 -112 65t-37 121q0 54 25.5 95.5t67.5 61.5v1q-38 22 -53 52t-15 72q0 32 12.5 60.5t35.5 50t55 34t71 12.5
q43 0 75.5 -12t54 -31.5t32.5 -44t13 -49.5q0 -9 -7 -10l-81 -17q-10 -2 -10 7q-4 29 -22 48t-53 19q-33 0 -52.5 -17.5t-19.5 -49.5q0 -38 26.5 -59t89.5 -37q75 -20 111.5 -67t36.5 -119q0 -27 -7 -52t-20 -45.5t-30 -35.5t-36 -24v-1q41 -22 56.5 -52.5t15.5 -79.5
q0 -32 -13 -59.5t-36 -48.5t-56 -33t-73 -12zM290 156q42 0 67 24.5t25 71.5t-25 71.5t-67 24.5t-67.5 -24.5t-25.5 -71.5t25.5 -71.5t67.5 -24.5z" />
    <glyph glyph-name="bullet" unicode="&#x2022;" horiz-adv-x="458" 
d="M229 169q-30 0 -55.5 10t-44 28.5t-29 44t-10.5 56.5t10.5 56.5t29 44t44 28.5t55.5 10t55.5 -10t44 -28.5t29 -44t10.5 -56.5t-10.5 -56.5t-29 -44t-44 -28.5t-55.5 -10z" />
    <glyph glyph-name="paragraph" unicode="&#xb6;" horiz-adv-x="634" 
d="M460 -180q-10 0 -10 10v750q0 6 -6 6h-71q-6 0 -6 -6v-750q0 -10 -10 -10h-77q-10 0 -10 10v428q-45 3 -81.5 20t-62.5 45.5t-40 65.5t-14 80t15 81.5t43.5 67.5t70.5 45.5t96 16.5h240q10 0 10 -10v-840q0 -10 -10 -10h-77z" />
    <glyph glyph-name="germandbls" unicode="&#xdf;" horiz-adv-x="546" 
d="M284 -3q-10 0 -10 10v79q0 10 10 10h25q29 0 44.5 8.5t23.5 31.5q1 4 2 9t1.5 15t1 25.5t0.5 39.5q0 22 -0.5 37.5t-1 26t-2 17.5l-2.5 12q-8 23 -27 34.5t-54 11.5h-11q-10 0 -10 10v80q0 10 10 10h23q67 0 67 63q0 33 -23.5 49t-66.5 16q-52 0 -75.5 -23t-23.5 -75
v-484q0 -10 -10 -10h-92q-10 0 -10 10v479q0 94 49 148t159 54q99 0 152 -41t53 -122q0 -33 -14 -61t-41 -48v-2q18 -10 31 -25t21 -38q3 -11 5.5 -21.5t3.5 -24.5t1.5 -34t0.5 -49q0 -31 -0.5 -51.5t-2 -35.5t-4 -26t-5.5 -21q-17 -51 -58 -72.5t-111 -21.5h-29z" />
    <glyph glyph-name="registered" unicode="&#xae;" horiz-adv-x="447" 
d="M223 301q-41 0 -75.5 15t-60.5 40.5t-40.5 60.5t-14.5 76q0 40 14.5 75t40.5 60.5t60.5 40.5t75.5 15q40 0 75 -15t61 -40.5t40.5 -60.5t14.5 -75q0 -41 -14.5 -76t-40.5 -60.5t-61 -40.5t-75 -15zM223 340q32 0 59.5 11.5t47.5 32t31.5 48.5t11.5 61t-11.5 60.5
t-31.5 48t-47.5 32t-59.5 11.5t-59.5 -11.5t-47.5 -32t-31.5 -48t-11.5 -60.5t11.5 -61t31.5 -48.5t47.5 -32t59.5 -11.5zM151 388q-7 0 -7 7v198q0 7 7 7h83q37 0 57.5 -16.5t20.5 -48.5q0 -44 -40 -60l42 -80q3 -7 -5 -7h-36q-6 0 -9 7l-39 74h-29q-4 0 -4 -4v-70
q0 -7 -7 -7h-34zM234 511q32 0 32 24t-32 24h-38q-4 0 -4 -4v-40q0 -4 4 -4h38z" />
    <glyph glyph-name="copyright" unicode="&#xa9;" horiz-adv-x="826" 
d="M413 -11q-74 0 -138.5 27t-111.5 74t-74 111.5t-27 138.5t27 138t74 111.5t111.5 74.5t138.5 27t138 -27t111.5 -74.5t74.5 -111.5t27 -138t-27 -138.5t-74.5 -111.5t-111.5 -74t-138 -27zM413 65q58 0 107.5 20.5t86 57.5t57 87.5t20.5 109.5t-20.5 109.5t-57 87
t-86 57.5t-107.5 21t-107.5 -21t-86 -57.5t-57 -87t-20.5 -109.5t20.5 -109.5t57 -87.5t86 -57.5t107.5 -20.5zM424 143q-60 0 -102 27t-59 81q-5 14 -8 34t-3 55t3 55t8 34q17 54 59 81t102 27q42 0 75 -15t55 -41q7 -7 -1 -14l-46 -41q-7 -7 -14 1q-15 17 -30 25t-38 8
q-60 0 -79 -54q-3 -9 -4.5 -22.5t-1.5 -43.5t1.5 -43.5t4.5 -22.5q19 -54 79 -54q23 0 38 8t30 25q7 7 14 1l46 -41q8 -7 1 -14q-22 -26 -55 -41t-75 -15z" />
    <glyph glyph-name="trademark" unicode="&#x2122;" horiz-adv-x="848" 
d="M726 286q-10 0 -10 10v204h-2l-68 -147q-5 -10 -13 -10h-46q-7 0 -12 10l-69 147h-2v-204q0 -10 -10 -10h-58q-10 0 -10 10v374q0 10 10 10h53q9 0 14 -10l107 -232h3l104 232q5 10 14 10h53q10 0 10 -10v-374q0 -10 -10 -10h-58zM168 286q-10 0 -10 10v305q0 6 -6 6
h-100q-10 0 -10 10v53q0 10 10 10h295q10 0 10 -10v-53q0 -10 -10 -10h-100q-6 0 -6 -6v-305q0 -10 -10 -10h-63z" />
    <glyph glyph-name="acute" unicode="&#xb4;" horiz-adv-x="422" 
d="M123 555q-11 0 -6 10l75 125q6 10 18 10h91q5 0 6.5 -3t-1.5 -7l-95 -125q-9 -10 -20 -10h-68z" />
    <glyph glyph-name="dieresis" unicode="&#xa8;" horiz-adv-x="422" 
d="M271 573q-10 0 -10 10v87q0 10 10 10h77q10 0 10 -10v-87q0 -10 -10 -10h-77zM75 573q-10 0 -10 10v87q0 10 10 10h77q10 0 10 -10v-87q0 -10 -10 -10h-77z" />
    <glyph glyph-name="notequal" unicode="&#x2260;" 
d="M113 17q-10 0 -5 10l48 100h-91q-10 0 -10 10v78q0 10 10 10h139l49 102h-188q-10 0 -10 10v78q0 10 10 10h236l49 100q4 10 15 10h70q10 0 5 -10l-48 -100h92q10 0 10 -10v-78q0 -10 -10 -10h-140l-49 -102h189q10 0 10 -10v-78q0 -10 -10 -10h-237l-48 -100
q-4 -10 -15 -10h-71z" />
    <glyph glyph-name="AE" unicode="&#xc6;" horiz-adv-x="926" 
d="M441 0q-10 0 -10 10v126q0 6 -6 6h-209l-65 -132q-4 -10 -13 -10h-112q-12 0 -7 10l334 660q5 10 14 10h500q10 0 10 -10v-86q0 -10 -10 -10h-312q-6 0 -6 -6v-166q0 -6 6 -6h263q10 0 10 -10v-86q0 -10 -10 -10h-263q-6 0 -6 -6v-172q0 -6 6 -6h312q10 0 10 -10v-86
q0 -10 -10 -10h-426zM268 247h157q6 0 6 6v321h-2z" />
    <glyph glyph-name="Oslash" unicode="&#xd8;" horiz-adv-x="627" 
d="M61 -30q-5 0 -6 3t1 7l57 96q-13 17 -23 35.5t-17 41.5q-5 16 -8.5 32t-5.5 37t-3 49.5t-1 68.5t1 68.5t3 49.5t5.5 37t8.5 32q26 81 89 122.5t151 41.5q85 0 146 -38l29 48q5 9 15 9h63q5 0 6 -3t-1 -7l-58 -96q26 -34 41 -77q5 -16 8.5 -32t5.5 -37t3 -49.5t1 -68.5
t-1 -68.5t-3 -49.5t-5.5 -37t-8.5 -32q-26 -81 -89 -122.5t-152 -41.5q-85 0 -146 38l-28 -48q-5 -9 -15 -9h-63zM174 340q0 -34 0.5 -58t2 -41.5t3 -30t4.5 -21.5l216 368q-34 28 -87 28q-51 0 -82 -23.5t-45 -65.5q-3 -9 -5.5 -21t-4 -30t-2 -43.5t-0.5 -61.5zM313 95
q51 0 82.5 23.5t45.5 65.5q3 9 5 21t3.5 30t2.5 43.5t1 61.5q0 33 -0.5 57t-2 41t-3.5 29.5t-4 21.5l-216 -367q33 -27 86 -27z" />
    <glyph glyph-name="infinity" unicode="&#x221e;" horiz-adv-x="763" 
d="M564 84q-48 0 -91 24t-91 76q-94 -100 -184 -100q-34 0 -63.5 12t-51 33t-33.5 51t-12 66t12 66t34 51.5t51.5 33.5t64.5 12q45 0 87.5 -24t93.5 -79q26 28 49 47.5t45 32t43.5 18t44.5 5.5q34 0 63.5 -11.5t51.5 -33t34.5 -51.5t12.5 -67q0 -36 -12 -65.5t-34 -51
t-51.5 -33.5t-63.5 -12zM560 161q40 0 62 26t22 61t-22 59.5t-62 24.5q-27 0 -55 -19.5t-70 -67.5q43 -47 70.5 -65.5t54.5 -18.5zM204 161q26 0 54.5 20.5t69.5 65.5q-41 46 -69 65.5t-55 19.5q-41 0 -63 -24.5t-22 -59.5q0 -36 22 -61.5t63 -25.5z" />
    <glyph glyph-name="plusminus" unicode="&#xb1;" 
d="M234 157q-10 0 -10 10v154q0 6 -6 6h-153q-10 0 -10 10v78q0 10 10 10h153q6 0 6 6v154q0 10 10 10h81q10 0 10 -10v-154q0 -6 6 -6h153q10 0 10 -10v-78q0 -10 -10 -10h-153q-6 0 -6 -6v-154q0 -10 -10 -10h-81zM65 0q-10 0 -10 10v79q0 10 10 10h419q10 0 10 -10v-79
q0 -10 -10 -10h-419z" />
    <glyph glyph-name="lessequal" unicode="&#x2264;" 
d="M65 328q-10 3 -10 14v66q0 11 10 14l419 172q10 3 10 -6v-89q0 -9 -10 -13l-286 -110v-2l286 -110q10 -4 10 -13v-89q0 -9 -10 -6zM65 0q-10 0 -10 10v79q0 10 10 10h419q10 0 10 -10v-79q0 -10 -10 -10h-419z" />
    <glyph glyph-name="greaterequal" unicode="&#x2265;" 
d="M65 156q-10 -3 -10 6v89q0 9 10 13l286 110v2l-286 110q-10 4 -10 13v89q0 9 10 6l419 -172q10 -3 10 -14v-66q0 -11 -10 -14zM65 0q-10 0 -10 10v79q0 10 10 10h419q10 0 10 -10v-79q0 -10 -10 -10h-419z" />
    <glyph glyph-name="yen" unicode="&#xa5;" 
d="M228 0q-10 0 -10 10v121q0 6 -6 6h-122q-10 0 -10 10v58q0 10 10 10h122q6 0 6 6v41q0 6 -6 6h-122q-10 0 -10 10v58q0 10 10 10h99v2l-151 322q-4 10 7 10h98q10 0 13 -10l118 -278h3l116 278q3 10 13 10h97q11 0 7 -10l-151 -322v-2h98q10 0 10 -10v-58q0 -10 -10 -10
h-121q-6 0 -6 -6v-41q0 -6 6 -6h121q10 0 10 -10v-58q0 -10 -10 -10h-121q-6 0 -6 -6v-121q0 -10 -10 -10h-92z" />
    <glyph glyph-name="uni00B5" unicode="&#xb5;" horiz-adv-x="550" 
d="M375 0q-10 0 -10 10v39h-1q-13 -24 -40.5 -42t-67.5 -18q-27 0 -43.5 7t-25.5 17h-2v-183q0 -10 -10 -10h-92q-10 0 -10 10v642q0 10 10 10h92q10 0 10 -10v-279q0 -48 22 -76t68 -28q44 0 67 28t23 76v279q0 10 10 10h92q10 0 10 -10v-462q0 -10 -10 -10h-92z" />
    <glyph glyph-name="partialdiff" unicode="&#x2202;" horiz-adv-x="546" 
d="M251 -11q-46 0 -83.5 15.5t-64.5 43t-41.5 65.5t-14.5 84t15 87t42.5 71t65.5 47.5t85 17.5q40 0 76.5 -13.5t63.5 -41.5h1q0 49 -9 90.5t-27 72.5t-44.5 48.5t-62.5 17.5q-30 0 -57 -11.5t-50 -28.5q-8 -5 -14 3l-41 62q-5 8 3 14q29 24 71 41t91 17q113 0 178 -83
t65 -247q0 -76 -14 -143.5t-44 -118.5t-77 -80.5t-113 -29.5zM261 90q57 0 90 50t41 144q-23 20 -53 32t-66 12q-54 0 -86.5 -32t-32.5 -95q0 -51 29 -81t78 -30z" />
    <glyph glyph-name="summation" unicode="&#x2211;" horiz-adv-x="538" 
d="M51 -180q-10 0 -10 10v82q0 5 2 9l178 397l-173 315q-3 6 -3 11v86q0 10 10 10h422q10 0 10 -10v-86q0 -10 -10 -10h-298l163 -301q3 -7 0 -14l-175 -393h320q10 0 10 -10v-86q0 -10 -10 -10h-436z" />
    <glyph glyph-name="product" unicode="&#x220f;" horiz-adv-x="667" 
d="M479 -180q-10 0 -10 10v798q0 6 -6 6h-259q-6 0 -6 -6v-798q0 -10 -10 -10h-98q-10 0 -10 10v900q0 10 10 10h487q10 0 10 -10v-900q0 -10 -10 -10h-98z" />
    <glyph glyph-name="pi" unicode="&#x3c0;" horiz-adv-x="593" 
d="M504 -6q-69 0 -98 34t-29 103v245q0 6 -6 6h-151q-6 0 -6 -6v-366q0 -10 -10 -10h-92q-10 0 -10 10v366q0 6 -6 6h-45q-10 0 -10 10v80q0 10 10 10h489q10 0 10 -10v-80q0 -10 -10 -10h-45q-6 0 -6 -6v-242q0 -23 8 -31.5t25 -8.5h4q10 0 10 -10v-80q0 -10 -10 -10h-22z
" />
    <glyph glyph-name="integral" unicode="&#x222b;" horiz-adv-x="444" 
d="M119 -180q-11 0 -24.5 0.5t-24.5 2.5q-10 2 -10 10v79q0 5 2.5 8t7.5 2q15 -3 32 -3q33 0 48.5 19.5t15.5 68.5v524q0 113 38.5 161t120.5 48q11 0 24.5 -0.5t24.5 -2.5q10 -2 10 -10v-78q0 -12 -10 -10q-8 1 -16.5 1.5t-16.5 0.5q-32 0 -48 -19.5t-16 -68.5v-524
q0 -113 -38.5 -161t-119.5 -48z" />
    <glyph glyph-name="ordfeminine" unicode="&#xaa;" horiz-adv-x="347" 
d="M231 392q-10 0 -10 10v13h-2q-11 -12 -31 -20t-52 -8q-20 0 -38.5 5t-32.5 15.5t-22.5 27t-8.5 38.5q0 49 33 73t93 24h53q6 0 6 6v7q0 15 -13 23t-48 8q-21 0 -37.5 -4.5t-27.5 -10.5q-9 -5 -14 3l-27 47q-5 9 3 14q20 12 48 18.5t66 6.5q77 0 106.5 -25.5t29.5 -77.5
v-183q0 -10 -10 -10h-64zM160 455q30 0 44.5 9t14.5 32v7q0 6 -6 6h-46q-26 0 -37 -8t-11 -20q0 -26 41 -26z" />
    <glyph glyph-name="ordmasculine" unicode="&#xba;" horiz-adv-x="356" 
d="M178 384q-109 0 -137 87q-9 25 -9 65q0 39 9 65q28 87 137 87q53 0 88 -21t49 -66q9 -26 9 -65q0 -40 -9 -65q-14 -45 -49 -66t-88 -21zM178 463q36 0 48 33q2 8 3.5 17.5t1.5 22.5t-1.5 22.5t-3.5 17.5q-12 33 -48 33q-37 0 -49 -33q-2 -8 -3.5 -17.5t-1.5 -22.5
t1.5 -22.5t3.5 -17.5q12 -33 49 -33z" />
    <glyph glyph-name="uni2126" unicode="&#x2126;" horiz-adv-x="638" 
d="M371 0q-10 0 -10 10v85q0 10 10 13q48 14 69.5 70t21.5 162q0 36 -1 61t-2.5 42.5t-4.5 29.5l-6 23q-14 42 -47 65.5t-82 23.5t-82 -23.5t-47 -65.5l-6 -23t-4.5 -29.5t-2.5 -42.5t-1 -61q0 -106 21.5 -162t69.5 -70q10 -3 10 -13v-85q0 -10 -10 -10h-202q-10 0 -10 10
v86q0 10 10 10h66v2q-19 15 -33 33.5t-23.5 45.5t-14 64t-4.5 89q0 40 1 67.5t3 48t6 36.5t9 32q26 84 91.5 125.5t152.5 41.5t152.5 -41.5t91.5 -125.5q5 -16 8.5 -32t6 -36.5t3.5 -48t1 -67.5q0 -52 -4.5 -89t-14 -64t-23.5 -45.5t-33 -33.5v-2h66q10 0 10 -10v-86
q0 -10 -10 -10h-202z" />
    <glyph glyph-name="ae" unicode="&#xe6;" horiz-adv-x="815" 
d="M560 -11q-58 0 -100.5 20.5t-66.5 55.5h-1q-23 -42 -69.5 -59t-109.5 -17q-33 0 -62.5 9t-51.5 27t-35 45.5t-13 65.5q0 79 51.5 116t141.5 37h98q6 0 6 6v23q0 42 -23 61t-84 19q-41 0 -67 -9.5t-43 -23.5q-9 -7 -14 2l-37 66q-5 8 2 13q29 21 70 34t101 13
q54 0 97 -12.5t64 -37.5h2q24 24 60.5 37t78.5 13q75 0 126 -35.5t71 -97.5q4 -13 7 -26t5 -30t3 -38.5t1 -50.5q0 -10 -11 -10h-297q-6 0 -6 -6q0 -11 2 -20t5 -17q25 -73 108 -73q41 0 68 13t45 33q8 8 15 2l59 -52q7 -6 1 -14q-31 -36 -80.5 -59t-116.5 -23zM655 295
q0 23 -6 41q-10 29 -35 45.5t-59 16.5q-35 0 -60 -16.5t-35 -45.5q-6 -18 -6 -41q0 -6 6 -6h189q6 0 6 6zM241 80q52 0 79.5 20t27.5 62v37q0 6 -6 6h-80q-54 0 -79 -15.5t-25 -49.5q0 -60 83 -60z" />
    <glyph glyph-name="oslash" unicode="&#xf8;" horiz-adv-x="523" 
d="M262 -11q-72 0 -122 32l-29 -41q-7 -10 -18 -10h-39q-5 0 -6 3t1 7l52 74q-26 29 -38 68q-8 26 -12 52.5t-4 66.5t4 66.5t12 52.5q20 63 72.5 98t126.5 35q69 0 121 -32l29 41q7 10 19 10h38q5 0 6 -3t-1 -7l-52 -75q13 -14 22 -31t16 -36q8 -26 12 -52.5t4 -66.5
t-4 -66.5t-12 -52.5q-20 -63 -72.5 -98t-125.5 -35zM159 241q0 -31 2 -51t8 -39l153 225q-24 18 -60 18q-34 0 -58 -16.5t-35 -46.5q-6 -20 -8 -39.5t-2 -50.5zM262 88q34 0 57.5 16.5t34.5 46.5q6 19 8 39t2 51t-2 50.5t-8 39.5l-153 -225q24 -18 61 -18z" />
    <glyph glyph-name="questiondown" unicode="&#xbf;" horiz-adv-x="464" 
d="M287 292q10 0 10 -10v-41q0 -30 -6 -48t-20 -37l-79 -108q-18 -24 -26 -43t-8 -39q0 -32 21 -53.5t57 -21.5q35 0 56.5 21t28.5 59q2 10 11 8l90 -14q10 -1 8 -12q-12 -75 -63.5 -118.5t-134.5 -43.5q-41 0 -75.5 13t-59.5 36t-39 55t-14 70q0 63 41 117l79 108
q11 14 15.5 27t4.5 36v29q0 10 10 10h93zM301 370q0 -10 -10 -10h-100q-10 0 -10 10v102q0 10 10 10h100q10 0 10 -10v-102z" />
    <glyph glyph-name="exclamdown" unicode="&#xa1;" horiz-adv-x="307" 
d="M183 292q10 0 10 -10l23 -470q0 -10 -10 -10h-105q-10 0 -10 10l23 470q0 10 10 10h59zM214 370q0 -10 -10 -10h-100q-10 0 -10 10v102q0 10 10 10h100q10 0 10 -10v-102z" />
    <glyph glyph-name="logicalnot" unicode="&#xac;" 
d="M403 92q-10 0 -10 10v119q0 6 -6 6h-322q-10 0 -10 10v78q0 10 10 10h419q10 0 10 -10v-213q0 -10 -10 -10h-81z" />
    <glyph glyph-name="radical" unicode="&#x221a;" horiz-adv-x="641" 
d="M285 -180q-9 0 -13 10l-131 264q-3 6 -9 3l-57 -27q-10 -5 -13 4l-30 61q-5 9 4 13l142 68q10 5 14 -4l120 -251h3l207 769q3 10 12 10h79q11 0 8 -10l-249 -900q-3 -10 -12 -10h-75z" />
    <glyph glyph-name="florin" unicode="&#x192;" 
d="M339 324l-52 -342q-7 -44 -19.5 -74.5t-33 -50t-49.5 -28.5t-69 -9h-28q-10 0 -10 10v77q0 10 10 10h17q35 0 51.5 12t22.5 51l52 344h-65q-10 0 -10 10v65q0 10 10 10h78l18 113q13 81 51.5 119.5t117.5 38.5h30q10 0 10 -10v-77q0 -10 -10 -10h-20q-32 0 -49 -14
t-22 -47l-18 -113h87q10 0 10 -10v-65q0 -10 -10 -10h-100z" />
    <glyph glyph-name="approxequal" unicode="&#x2248;" 
d="M359 298q-31 0 -57 11t-47 25q-17 11 -33.5 18t-33.5 7q-25 0 -40 -13t-29 -37q-5 -9 -15 -2l-52 31q-7 5 -3 14q20 45 57.5 71t82.5 26q31 0 57.5 -11t47.5 -24q17 -11 33 -18t33 -7q25 0 40.5 13t29.5 37q5 9 15 2l52 -31q7 -5 3 -14q-20 -45 -57.5 -71.5t-83.5 -26.5z
M359 103q-31 0 -57 11t-47 24q-17 11 -33.5 18t-33.5 7q-25 0 -40 -13t-29 -37q-5 -9 -15 -2l-52 31q-7 5 -3 14q20 45 57.5 71.5t82.5 26.5q31 0 57.5 -11t47.5 -25q17 -11 33 -18t33 -7q25 0 40.5 13t29.5 37q5 9 15 2l52 -31q7 -5 3 -14q-20 -45 -57.5 -71t-83.5 -26z
" />
    <glyph glyph-name="uni2206" unicode="&#x2206;" horiz-adv-x="617" 
d="M26 0q-11 0 -8 10l233 660q3 10 13 10h92q10 0 13 -10l230 -660q3 -10 -8 -10h-565zM446 95q6 0 5 6l-141 410h-3l-142 -410q-2 -6 5 -6h276z" />
    <glyph glyph-name="guillemotleft" unicode="&#xab;" horiz-adv-x="542" 
d="M262 257q-7 7 0 14l204 205q3 3 6.5 2t3.5 -6v-96q0 -7 -2 -11t-8 -10l-87 -87q-4 -4 0 -8l87 -87q6 -6 8 -10t2 -11v-96q0 -5 -3.5 -6t-6.5 2zM35 257q-7 7 0 14l204 205q3 3 6.5 2t3.5 -6v-96q0 -7 -2 -11t-8 -10l-87 -87q-4 -4 0 -8l87 -87q10 -10 10 -21v-96
q0 -5 -3.5 -6t-6.5 2z" />
    <glyph glyph-name="guillemotright" unicode="&#xbb;" horiz-adv-x="542" 
d="M303 52q-3 -3 -6.5 -2t-3.5 6v96q0 11 10 21l87 87q4 4 0 8l-87 87q-6 6 -8 10t-2 11v96q0 5 3.5 6t6.5 -2l204 -205q7 -7 0 -14zM76 52q-3 -3 -6.5 -2t-3.5 6v96q0 11 10 21l87 87q4 4 0 8l-87 87q-6 6 -8 10t-2 11v96q0 5 3.5 6t6.5 -2l204 -205q7 -7 0 -14z" />
    <glyph glyph-name="ellipsis" unicode="&#x2026;" horiz-adv-x="759" 
d="M582 0q-10 0 -10 10v102q0 10 10 10h100q10 0 10 -10v-102q0 -10 -10 -10h-100zM329 0q-10 0 -10 10v102q0 10 10 10h100q10 0 10 -10v-102q0 -10 -10 -10h-100zM76 0q-10 0 -10 10v102q0 10 10 10h100q10 0 10 -10v-102q0 -10 -10 -10h-100z" />
    <glyph glyph-name="Agrave" unicode="&#xc0;" horiz-adv-x="617" 
d="M251 670q3 10 13 10h92q10 0 13 -10l230 -660q3 -10 -7 -10h-98q-10 0 -13 10l-45 132h-256l-45 -132q-3 -10 -13 -10h-97q-10 0 -7 10zM400 247l-90 264h-3l-91 -264h184zM270 761q-5 0 -9 1.5t-9 6.5l-116 109q-4 4 -2.5 7t6.5 3h98q11 0 19 -10l89 -107q3 -4 2 -7
t-6 -3h-72z" />
    <glyph glyph-name="Atilde" unicode="&#xc3;" horiz-adv-x="617" 
d="M251 670q3 10 13 10h92q10 0 13 -10l230 -660q3 -10 -7 -10h-98q-10 0 -13 10l-45 132h-256l-45 -132q-3 -10 -13 -10h-97q-10 0 -7 10zM400 247l-90 264h-3l-91 -264h184zM367 757q-20 0 -35 5.5t-32 14.5q-15 8 -28 13t-28 5q-22 0 -37.5 -9.5t-29.5 -21.5
q-4 -3 -6.5 -2t-2.5 4v61q0 10 8 19q14 15 32.5 24.5t39.5 9.5q20 0 35 -5.5t32 -14.5q15 -8 28 -13t29 -5q21 0 36.5 9.5t29.5 21.5q4 3 6.5 2t2.5 -4v-61q0 -10 -8 -19q-14 -15 -32.5 -24.5t-39.5 -9.5z" />
    <glyph glyph-name="Otilde" unicode="&#xd5;" horiz-adv-x="627" 
d="M372 757q-20 0 -35 5.5t-32 14.5q-15 8 -28 13t-28 5q-22 0 -37.5 -9.5t-29.5 -21.5q-4 -3 -6.5 -2t-2.5 4v61q0 10 8 19q14 15 32.5 24.5t39.5 9.5q20 0 35 -5.5t32 -14.5q15 -8 28 -13t29 -5q21 0 36.5 9.5t29.5 21.5q4 3 6.5 2t2.5 -4v-61q0 -10 -8 -19
q-14 -15 -32.5 -24.5t-39.5 -9.5zM313 -11q-88 0 -151 41.5t-89 122.5q-5 16 -8.5 32t-5.5 37t-3 49.5t-1 68.5t1 68.5t3 49.5t5.5 37t8.5 32q26 81 89 122.5t151 41.5q89 0 152 -41.5t89 -122.5q5 -16 8.5 -32t5.5 -37t3 -49.5t1 -68.5t-1 -68.5t-3 -49.5t-5.5 -37
t-8.5 -32q-26 -81 -89 -122.5t-152 -41.5zM313 95q51 0 82 23.5t45 65.5q3 9 5 21t3.5 30t2.5 43.5t1 61.5t-1 61.5t-2.5 43.5t-3.5 30t-5 21q-14 42 -45 65.5t-82 23.5t-81.5 -23.5t-44.5 -65.5q-3 -9 -5.5 -21t-4 -30t-2 -43.5t-0.5 -61.5t0.5 -61.5t2 -43.5t4 -30
t5.5 -21q14 -42 44.5 -65.5t81.5 -23.5z" />
    <glyph glyph-name="OE" unicode="&#x152;" horiz-adv-x="947" 
d="M462 0q-10 0 -10 10v27h-1q-50 -48 -138 -48t-151 41.5t-89 122.5q-5 16 -8.5 32t-5.5 37t-3 49.5t-1 68.5t1 68.5t3 49.5t5.5 37t8.5 32q26 81 89 122.5t151 41.5t138 -48h1v27q0 10 10 10h426q10 0 10 -10v-86q0 -10 -10 -10h-312q-6 0 -6 -6v-166q0 -6 6 -6h263
q10 0 10 -10v-86q0 -10 -10 -10h-263q-6 0 -6 -6v-172q0 -6 6 -6h312q10 0 10 -10v-86q0 -10 -10 -10h-426zM313 95q51 0 82 23.5t45 65.5q3 9 5 21t3.5 30t2.5 43.5t1 61.5t-1 61.5t-2.5 43.5t-3.5 30t-5 21q-14 42 -45 65.5t-82 23.5t-81.5 -23.5t-44.5 -65.5
q-3 -9 -5.5 -21t-4 -30t-2 -43.5t-0.5 -61.5t0.5 -61.5t2 -43.5t4 -30t5.5 -21q14 -42 44.5 -65.5t81.5 -23.5z" />
    <glyph glyph-name="oe" unicode="&#x153;" horiz-adv-x="835" 
d="M580 -11q-105 0 -159 66h-2q-31 -36 -70 -51t-87 -15q-74 0 -126.5 35t-72.5 98q-8 26 -12 52.5t-4 66.5t4 66.5t12 52.5q20 63 72.5 98t126.5 35q46 0 86 -14.5t70 -48.5h2q27 33 68 48t87 15q75 0 126 -35.5t71 -97.5q4 -13 7 -26t5 -30t3 -38.5t1 -50.5q0 -10 -11 -10
h-297q-6 0 -6 -6q0 -11 2 -20t5 -17q25 -73 108 -73q41 0 68 13t45 33q8 8 15 2l59 -52q7 -6 1 -14q-31 -36 -80.5 -59t-116.5 -23zM675 295q0 23 -6 41q-10 29 -35 45.5t-59 16.5q-35 0 -60 -16.5t-35 -45.5q-6 -18 -6 -41q0 -6 6 -6h189q6 0 6 6zM262 89q34 0 56.5 16.5
t33.5 46.5q6 19 8 38.5t2 50.5t-2 50t-8 39q-11 30 -33.5 46.5t-56.5 16.5t-57 -16.5t-34 -46.5q-6 -20 -8 -39t-2 -50t2 -50.5t8 -38.5q11 -30 34 -46.5t57 -16.5z" />
    <glyph glyph-name="endash" unicode="&#x2013;" horiz-adv-x="519" 
d="M30 219q-10 0 -10 10v73q0 10 10 10h459q10 0 10 -10v-73q0 -10 -10 -10h-459z" />
    <glyph glyph-name="emdash" unicode="&#x2014;" horiz-adv-x="867" 
d="M30 219q-10 0 -10 10v73q0 10 10 10h807q10 0 10 -10v-73q0 -10 -10 -10h-807z" />
    <glyph glyph-name="quotedblleft" unicode="&#x201c;" horiz-adv-x="396" 
d="M244 488q-10 0 -10 10v94q0 13 8 21l68 62q7 7 15 7q10 0 10 -10v-174q0 -10 -10 -10h-81zM71 488q-10 0 -10 10v94q0 13 8 21l69 62q6 7 14 7q10 0 10 -10v-174q0 -10 -10 -10h-81z" />
    <glyph glyph-name="quotedblright" unicode="&#x201d;" horiz-adv-x="396" 
d="M244 486q-10 0 -10 10v174q0 10 10 10h81q10 0 10 -10v-94q0 -13 -8 -21l-69 -62q-6 -7 -14 -7zM71 486q-10 0 -10 10v174q0 10 10 10h81q10 0 10 -10v-94q0 -13 -8 -21l-68 -62q-7 -7 -15 -7z" />
    <glyph glyph-name="quoteleft" unicode="&#x2018;" horiz-adv-x="223" 
d="M71 488q-10 0 -10 10v94q0 13 8 21l69 62q6 7 14 7q10 0 10 -10v-174q0 -10 -10 -10h-81z" />
    <glyph glyph-name="quoteright" unicode="&#x2019;" horiz-adv-x="223" 
d="M71 486q-10 0 -10 10v174q0 10 10 10h81q10 0 10 -10v-94q0 -13 -8 -21l-68 -62q-7 -7 -15 -7z" />
    <glyph glyph-name="divide" unicode="&#xf7;" 
d="M274 385q-28 0 -47 19.5t-19 47.5q0 29 19 48t47 19q29 0 48 -19t19 -48q0 -28 -19 -47.5t-48 -19.5zM65 227q-10 0 -10 10v78q0 10 10 10h419q10 0 10 -10v-78q0 -10 -10 -10h-419zM274 33q-28 0 -47 19t-19 48t19 48t47 19q29 0 48 -19t19 -48t-19 -48t-48 -19z" />
    <glyph glyph-name="lozenge" unicode="&#x25ca;" horiz-adv-x="561" 
d="M240 -52q-11 0 -15 10l-174 364q-3 7 0 14l174 364q4 10 15 10h81q11 0 15 -10l174 -364q3 -7 0 -14l-174 -364q-4 -10 -15 -10h-81zM407 329l-126 277h-2l-125 -277l128 -277h2z" />
    <glyph glyph-name="ydieresis" unicode="&#xff;" horiz-adv-x="485" 
d="M90 -180q-10 0 -10 10v80q0 10 10 10h18q29 0 45 13.5t27 43.5l14 41l-176 454q-3 10 8 10h99q9 0 12 -10l109 -315h2l104 315q3 10 12 10h95q11 0 8 -10l-184 -502q-16 -43 -32 -71.5t-35 -46t-42 -25t-53 -7.5h-31zM305 573q-10 0 -10 10v87q0 10 10 10h77q10 0 10 -10
v-87q0 -10 -10 -10h-77zM109 573q-10 0 -10 10v87q0 10 10 10h77q10 0 10 -10v-87q0 -10 -10 -10h-77z" />
    <glyph glyph-name="Ydieresis" unicode="&#x178;" horiz-adv-x="536" 
d="M219 0q-10 0 -10 10v268l-197 392q-4 10 8 10h101q10 0 14 -10l133 -264h3l134 264q4 10 14 10h97q12 0 8 -10l-197 -392v-268q0 -10 -10 -10h-98zM331 769q-10 0 -10 10v87q0 10 10 10h73q10 0 10 -10v-87q0 -10 -10 -10h-73zM131 769q-10 0 -10 10v87q0 10 10 10h73
q10 0 10 -10v-87q0 -10 -10 -10h-73z" />
    <glyph glyph-name="fraction" unicode="&#x2044;" horiz-adv-x="159" 
d="M-156 -11q-5 0 -6 3t1 7l395 682q6 10 16 10h65q5 0 6.5 -3t-0.5 -7l-395 -682q-6 -10 -16 -10h-66z" />
    <glyph glyph-name="Euro" unicode="&#x20ac;" 
d="M93 232q0 6 -6 6h-37q-10 0 -10 10v58q0 10 10 10h37q6 0 6 6v41q0 6 -6 6h-37q-10 0 -10 10v58q0 10 10 10h37q6 0 6 6q0 29 3.5 51.5t9.5 42.5q23 71 75 107.5t129 36.5q73 0 121 -33.5t73 -86.5q4 -8 -5 -13l-73 -35q-9 -4 -14 4q-18 31 -41 47.5t-61 16.5
q-72 0 -95 -70q-9 -24 -9 -68q0 -6 6 -6h182q10 0 10 -10l-10 -58q-1 -10 -10 -10h-172q-6 0 -6 -6v-41q0 -6 6 -6h162q10 0 10 -10l-10 -58q-1 -10 -10 -10h-152q-6 0 -6 -6q0 -26 2 -43.5t7 -29.5q23 -70 95 -70q38 0 61 16.5t41 47.5q5 8 14 4l73 -35q9 -5 5 -13
q-25 -53 -73 -86.5t-121 -33.5q-77 0 -129 36.5t-75 107.5q-6 20 -9.5 43.5t-3.5 55.5z" />
    <glyph glyph-name="guilsinglleft" unicode="&#x2039;" horiz-adv-x="315" 
d="M35 257q-7 7 0 14l204 205q3 3 6.5 2t3.5 -6v-96q0 -7 -2 -11t-8 -10l-87 -87q-4 -4 0 -8l87 -87q10 -10 10 -21v-96q0 -5 -3.5 -6t-6.5 2z" />
    <glyph glyph-name="guilsinglright" unicode="&#x203a;" horiz-adv-x="315" 
d="M76 52q-3 -3 -6.5 -2t-3.5 6v96q0 11 9 21l88 87q4 4 0 8l-88 87q-9 10 -9 21v96q0 5 3.5 6t6.5 -2l204 -205q7 -7 0 -14l-204 -205v0z" />
    <glyph glyph-name="uniFB01" unicode="&#xfb01;" horiz-adv-x="586" 
d="M98 0q-10 0 -10 10v379q0 6 -6 6h-32q-10 0 -10 10v67q0 10 10 10h32q6 0 6 6v31q0 85 40.5 123t119.5 38h44q10 0 10 -10v-80q0 -10 -10 -10h-31q-19 0 -31 -2.5t-18.5 -9.5t-9 -18t-2.5 -29v-33q0 -6 6 -6h86q10 0 10 -10v-67q0 -10 -10 -10h-86q-6 0 -6 -6v-379
q0 -10 -10 -10h-92zM411 573q-10 0 -10 10v87q0 10 10 10h92q10 0 10 -10v-87q0 -10 -10 -10h-92zM411 0q-10 0 -10 10v462q0 10 10 10h92q10 0 10 -10v-462q0 -10 -10 -10h-92z" />
    <glyph glyph-name="uniFB02" unicode="&#xfb02;" horiz-adv-x="619" 
d="M98 0q-10 0 -10 10v379q0 6 -6 6h-32q-10 0 -10 10v67q0 10 10 10h32q6 0 6 6v31q0 85 40.5 123t119.5 38h44q10 0 10 -10v-80q0 -10 -10 -10h-31q-19 0 -31 -2.5t-18.5 -9.5t-9 -18t-2.5 -29v-33q0 -6 6 -6h86q10 0 10 -10v-67q0 -10 -10 -10h-86q-6 0 -6 -6v-379
q0 -10 -10 -10h-92zM531 -6q-71 0 -101.5 34t-30.5 104v538q0 10 10 10h92q10 0 10 -10v-532q0 -25 10 -34.5t32 -9.5h22q10 0 10 -10v-80q0 -10 -10 -10h-44z" />
    <glyph glyph-name="daggerdbl" unicode="&#x2021;" horiz-adv-x="535" 
d="M224 -180q-10 0 -10 10v183q0 6 -6 6h-144q-10 0 -10 10v75q0 10 10 10h144q6 0 6 6v260q0 6 -6 6h-144q-10 0 -10 10v75q0 10 10 10h144q6 0 6 6v183q0 10 10 10h87q10 0 10 -10v-183q0 -6 6 -6h144q10 0 10 -10v-75q0 -10 -10 -10h-144q-6 0 -6 -6v-260q0 -6 6 -6h144
q10 0 10 -10v-75q0 -10 -10 -10h-144q-6 0 -6 -6v-183q0 -10 -10 -10h-87z" />
    <glyph glyph-name="periodcentered" unicode="&#xb7;" horiz-adv-x="252" 
d="M76 204q-10 0 -10 10v102q0 10 10 10h100q10 0 10 -10v-102q0 -10 -10 -10h-100z" />
    <glyph glyph-name="quotesinglbase" unicode="&#x201a;" horiz-adv-x="223" 
d="M71 -90q-10 0 -10 10v174q0 10 10 10h81q10 0 10 -10v-94q0 -13 -8 -21l-68 -62q-7 -7 -15 -7z" />
    <glyph glyph-name="quotedblbase" unicode="&#x201e;" horiz-adv-x="396" 
d="M244 -90q-10 0 -10 10v174q0 10 10 10h81q10 0 10 -10v-94q0 -13 -8 -21l-69 -62q-6 -7 -14 -7zM71 -90q-10 0 -10 10v174q0 10 10 10h81q10 0 10 -10v-94q0 -13 -8 -21l-68 -62q-7 -7 -15 -7z" />
    <glyph glyph-name="perthousand" unicode="&#x2030;" horiz-adv-x="1089" 
d="M156 -11q-5 0 -6 3t1 7l395 682q6 10 16 10h65q5 0 6 -3t-1 -7l-395 -682q-6 -10 -15 -10h-66zM192 330q-45 0 -77.5 22t-44.5 58q-3 8 -4.5 14.5t-2 17t-1 26t-0.5 41.5t0.5 41.5t1 26t2 17t4.5 14.5q12 36 44.5 58t77.5 22t77.5 -22t44.5 -58q3 -8 4.5 -14.5t2 -17
t1 -26t0.5 -41.5t-0.5 -41.5t-1 -26t-2 -17t-4.5 -14.5q-12 -36 -44.5 -58t-77.5 -22zM192 402q15 0 26.5 7.5t16.5 21.5q1 3 2 7t1.5 12t0.5 22v37v37t-0.5 22.5t-1.5 12.5t-2 7q-5 14 -16.5 21t-26.5 7q-33 0 -44 -28q-1 -3 -2 -7t-1.5 -12.5t-0.5 -22.5v-37v-37t0.5 -22
t1.5 -12t2 -7q11 -29 44 -29zM897 -9q-45 0 -77.5 22t-44.5 58q-3 8 -4.5 14.5t-2 17t-1 26t-0.5 41.5t0.5 41.5t1 26t2 17t4.5 14.5q12 36 44.5 58t77.5 22t78 -22t44 -58q3 -8 4.5 -14.5t2 -17t1 -26t0.5 -41.5t-0.5 -41.5t-1 -26t-2 -17t-4.5 -14.5q-11 -36 -44 -58
t-78 -22zM590 -9q-45 0 -78 22t-45 58l-3.5 14.5t-2.5 17t-1.5 26t-0.5 41.5t0.5 41.5t1.5 26t2.5 17l3.5 14.5q12 36 45 58t78 22t77.5 -22t44.5 -58q3 -8 4.5 -14.5t2 -17t1 -26t0.5 -41.5t-0.5 -41.5t-1 -26t-2 -17t-4.5 -14.5q-12 -36 -44.5 -58t-77.5 -22zM897 63
q33 0 44 29q1 3 2 7t1.5 12t0.5 22v37v37t-0.5 22.5t-1.5 12.5t-2 7q-11 28 -44 28q-15 0 -26.5 -7t-16.5 -21q-1 -3 -2 -7t-1.5 -12.5t-0.5 -22.5v-37v-37t0.5 -22t1.5 -12t2 -7q5 -14 16.5 -21.5t26.5 -7.5zM590 63q15 0 26.5 7.5t16.5 21.5q1 3 2 7t1.5 12t0.5 22v37v37
t-0.5 22.5t-1.5 12.5t-2 7q-5 14 -16.5 21t-26.5 7q-33 0 -44 -28q-1 -3 -2 -7t-1.5 -12.5t-0.5 -22.5v-37v-37t0.5 -22t1.5 -12t2 -7q11 -29 44 -29z" />
    <glyph glyph-name="Acircumflex" unicode="&#xc2;" horiz-adv-x="617" 
d="M251 670q3 10 13 10h92q10 0 13 -10l230 -660q3 -10 -7 -10h-98q-10 0 -13 10l-45 132h-256l-45 -132q-3 -10 -13 -10h-97q-10 0 -7 10zM400 247l-90 264h-3l-91 -264h184zM387 753q-11 0 -21 10l-57 59h-2l-57 -59q-10 -10 -21 -10h-63q-5 0 -6 3t2 7l98 125q7 10 18 10
h60q11 0 18 -10l98 -125q3 -4 2 -7t-6 -3h-63z" />
    <glyph glyph-name="Ecircumflex" unicode="&#xca;" horiz-adv-x="570" 
d="M75 670q0 10 10 10h426q10 0 10 -10v-86q0 -10 -10 -10h-312q-6 0 -6 -6v-166q0 -6 6 -6h263q10 0 10 -10v-86q0 -10 -10 -10h-263q-6 0 -6 -6v-172q0 -6 6 -6h312q10 0 10 -10v-86q0 -10 -10 -10h-426q-10 0 -10 10v660zM378 753q-11 0 -21 10l-57 59h-2l-57 -59
q-10 -10 -21 -10h-63q-5 0 -6 3t2 7l98 125q7 10 18 10h60q11 0 18 -10l98 -125q3 -4 2 -7t-6 -3h-63z" />
    <glyph glyph-name="Aacute" unicode="&#xc1;" horiz-adv-x="617" 
d="M251 670q3 10 13 10h92q10 0 13 -10l230 -660q3 -10 -7 -10h-98q-10 0 -13 10l-45 132h-256l-45 -132q-3 -10 -13 -10h-97q-10 0 -7 10zM400 247l-90 264h-3l-91 -264h184zM276 761q-5 0 -6 3t2 7l88 107q8 10 19 10h98q5 0 7 -3t-2 -7l-117 -109q-5 -5 -9 -6.5t-9 -1.5
h-71z" />
    <glyph glyph-name="Edieresis" unicode="&#xcb;" horiz-adv-x="570" 
d="M360 769q-10 0 -10 10v87q0 10 10 10h73q10 0 10 -10v-87q0 -10 -10 -10h-73zM160 769q-10 0 -10 10v87q0 10 10 10h73q10 0 10 -10v-87q0 -10 -10 -10h-73zM75 670q0 10 10 10h426q10 0 10 -10v-86q0 -10 -10 -10h-312q-6 0 -6 -6v-166q0 -6 6 -6h263q10 0 10 -10v-86
q0 -10 -10 -10h-263q-6 0 -6 -6v-172q0 -6 6 -6h312q10 0 10 -10v-86q0 -10 -10 -10h-426q-10 0 -10 10v660z" />
    <glyph glyph-name="Egrave" unicode="&#xc8;" horiz-adv-x="570" 
d="M282 761q-5 0 -9 1.5t-9 6.5l-116 109q-4 4 -2.5 7t6.5 3h98q11 0 19 -10l89 -107q3 -4 2 -7t-6 -3h-72zM75 670q0 10 10 10h426q10 0 10 -10v-86q0 -10 -10 -10h-312q-6 0 -6 -6v-166q0 -6 6 -6h263q10 0 10 -10v-86q0 -10 -10 -10h-263q-6 0 -6 -6v-172q0 -6 6 -6h312
q10 0 10 -10v-86q0 -10 -10 -10h-426q-10 0 -10 10v660z" />
    <glyph glyph-name="Iacute" unicode="&#xcd;" horiz-adv-x="268" 
d="M75 670q0 10 10 10h98q10 0 10 -10v-660q0 -10 -10 -10h-98q-10 0 -10 10v660zM102 761q-5 0 -6 3t2 7l88 107q8 10 19 10h98q5 0 7 -3t-2 -7l-117 -109q-5 -5 -9 -6.5t-9 -1.5h-71z" />
    <glyph glyph-name="Icircumflex" unicode="&#xce;" horiz-adv-x="268" 
d="M75 670q0 10 10 10h98q10 0 10 -10v-660q0 -10 -10 -10h-98q-10 0 -10 10v660zM214 753q-11 0 -21 10l-57 59h-2l-57 -59q-10 -10 -21 -10h-63q-5 0 -6 3t2 7l98 125q7 10 18 10h60q11 0 18 -10l98 -125q3 -4 2 -7t-6 -3h-63z" />
    <glyph glyph-name="Idieresis" unicode="&#xcf;" horiz-adv-x="268" 
d="M75 670q0 10 10 10h98q10 0 10 -10v-660q0 -10 -10 -10h-98q-10 0 -10 10v660zM198 769q-10 0 -10 10v87q0 10 10 10h73q10 0 10 -10v-87q0 -10 -10 -10h-73zM-2 769q-10 0 -10 10v87q0 10 10 10h73q10 0 10 -10v-87q0 -10 -10 -10h-73z" />
    <glyph glyph-name="Igrave" unicode="&#xcc;" horiz-adv-x="268" 
d="M75 670q0 10 10 10h98q10 0 10 -10v-660q0 -10 -10 -10h-98q-10 0 -10 10v660zM97 761q-5 0 -9 1.5t-9 6.5l-116 109q-4 4 -2.5 7t6.5 3h98q11 0 19 -10l89 -107q3 -4 2 -7t-6 -3h-72z" />
    <glyph glyph-name="Oacute" unicode="&#xd3;" horiz-adv-x="627" 
d="M261 761q-5 0 -6 3t2 7l88 107q8 10 19 10h98q5 0 7 -3t-2 -7l-117 -109q-5 -5 -9 -6.5t-9 -1.5h-71zM313 -11q-88 0 -151 41.5t-89 122.5q-5 16 -8.5 32t-5.5 37t-3 49.5t-1 68.5t1 68.5t3 49.5t5.5 37t8.5 32q26 81 89 122.5t151 41.5q89 0 152 -41.5t89 -122.5
q5 -16 8.5 -32t5.5 -37t3 -49.5t1 -68.5t-1 -68.5t-3 -49.5t-5.5 -37t-8.5 -32q-26 -81 -89 -122.5t-152 -41.5zM313 95q51 0 82 23.5t45 65.5q3 9 5 21t3.5 30t2.5 43.5t1 61.5t-1 61.5t-2.5 43.5t-3.5 30t-5 21q-14 42 -45 65.5t-82 23.5t-81.5 -23.5t-44.5 -65.5
q-3 -9 -5.5 -21t-4 -30t-2 -43.5t-0.5 -61.5t0.5 -61.5t2 -43.5t4 -30t5.5 -21q14 -42 44.5 -65.5t81.5 -23.5z" />
    <glyph glyph-name="Ocircumflex" unicode="&#xd4;" horiz-adv-x="627" 
d="M313 -11q-88 0 -151 41.5t-89 122.5q-5 16 -8.5 32t-5.5 37t-3 49.5t-1 68.5t1 68.5t3 49.5t5.5 37t8.5 32q26 81 89 122.5t151 41.5q89 0 152 -41.5t89 -122.5q5 -16 8.5 -32t5.5 -37t3 -49.5t1 -68.5t-1 -68.5t-3 -49.5t-5.5 -37t-8.5 -32q-26 -81 -89 -122.5
t-152 -41.5zM313 95q51 0 82 23.5t45 65.5q3 9 5 21t3.5 30t2.5 43.5t1 61.5t-1 61.5t-2.5 43.5t-3.5 30t-5 21q-14 42 -45 65.5t-82 23.5t-81.5 -23.5t-44.5 -65.5q-3 -9 -5.5 -21t-4 -30t-2 -43.5t-0.5 -61.5t0.5 -61.5t2 -43.5t4 -30t5.5 -21q14 -42 44.5 -65.5
t81.5 -23.5zM392 753q-11 0 -21 10l-57 59h-2l-57 -59q-10 -10 -21 -10h-63q-5 0 -6 3t2 7l98 125q7 10 18 10h60q11 0 18 -10l98 -125q3 -4 2 -7t-6 -3h-63z" />
    <glyph glyph-name="Ograve" unicode="&#xd2;" horiz-adv-x="627" 
d="M294 761q-5 0 -9 1.5t-9 6.5l-116 109q-4 4 -2.5 7t6.5 3h98q11 0 19 -10l89 -107q3 -4 2 -7t-6 -3h-72zM313 -11q-88 0 -151 41.5t-89 122.5q-5 16 -8.5 32t-5.5 37t-3 49.5t-1 68.5t1 68.5t3 49.5t5.5 37t8.5 32q26 81 89 122.5t151 41.5q89 0 152 -41.5t89 -122.5
q5 -16 8.5 -32t5.5 -37t3 -49.5t1 -68.5t-1 -68.5t-3 -49.5t-5.5 -37t-8.5 -32q-26 -81 -89 -122.5t-152 -41.5zM313 95q51 0 82 23.5t45 65.5q3 9 5 21t3.5 30t2.5 43.5t1 61.5t-1 61.5t-2.5 43.5t-3.5 30t-5 21q-14 42 -45 65.5t-82 23.5t-81.5 -23.5t-44.5 -65.5
q-3 -9 -5.5 -21t-4 -30t-2 -43.5t-0.5 -61.5t0.5 -61.5t2 -43.5t4 -30t5.5 -21q14 -42 44.5 -65.5t81.5 -23.5z" />
    <glyph glyph-name="Uacute" unicode="&#xda;" horiz-adv-x="643" 
d="M271 761q-5 0 -6 3t2 7l88 107q8 10 19 10h98q5 0 7 -3t-2 -7l-117 -109q-5 -5 -9 -6.5t-9 -1.5h-71zM321 95q59 0 96 37.5t37 108.5v429q0 10 10 10h98q10 0 10 -10v-431q0 -59 -19 -105.5t-52.5 -78.5t-79.5 -49t-100 -17t-99.5 17t-79 49t-52.5 78.5t-19 105.5v431
q0 10 10 10h98q10 0 10 -10v-429q0 -71 37 -108.5t95 -37.5z" />
    <glyph glyph-name="Ucircumflex" unicode="&#xdb;" horiz-adv-x="643" 
d="M321 95q59 0 96 37.5t37 108.5v429q0 10 10 10h98q10 0 10 -10v-431q0 -59 -19 -105.5t-52.5 -78.5t-79.5 -49t-100 -17t-99.5 17t-79 49t-52.5 78.5t-19 105.5v431q0 10 10 10h98q10 0 10 -10v-429q0 -71 37 -108.5t95 -37.5zM400 753q-11 0 -21 10l-57 59h-2l-57 -59
q-10 -10 -21 -10h-63q-5 0 -6 3t2 7l98 125q7 10 18 10h60q11 0 18 -10l98 -125q3 -4 2 -7t-6 -3h-63z" />
    <glyph glyph-name="Ugrave" unicode="&#xd9;" horiz-adv-x="643" 
d="M300 761q-5 0 -9 1.5t-9 6.5l-116 109q-4 4 -2.5 7t6.5 3h98q11 0 19 -10l89 -107q3 -4 2 -7t-6 -3h-72zM321 95q59 0 96 37.5t37 108.5v429q0 10 10 10h98q10 0 10 -10v-431q0 -59 -19 -105.5t-52.5 -78.5t-79.5 -49t-100 -17t-99.5 17t-79 49t-52.5 78.5t-19 105.5v431
q0 10 10 10h98q10 0 10 -10v-429q0 -71 37 -108.5t95 -37.5z" />
    <glyph glyph-name="dotlessi" unicode="&#x131;" horiz-adv-x="258" 
d="M83 0q-10 0 -10 10v462q0 10 10 10h92q10 0 10 -10v-462q0 -10 -10 -10h-92z" />
    <glyph glyph-name="circumflex" unicode="&#x2c6;" horiz-adv-x="422" 
d="M290 555q-11 0 -21 10l-57 59h-2l-57 -59q-10 -10 -21 -10h-63q-5 0 -6 3t2 7l98 125q7 10 18 10h60q11 0 18 -10l98 -125q3 -4 2 -7t-6 -3h-63z" />
    <glyph glyph-name="tilde" unicode="&#x2dc;" horiz-adv-x="422" 
d="M268 561q-20 0 -35 5.5t-32 14.5q-15 8 -28 13t-28 5q-22 0 -37.5 -9.5t-29.5 -21.5q-4 -3 -6.5 -2t-2.5 4v61q0 10 8 19q14 15 32.5 24.5t39.5 9.5q20 0 35 -5.5t32 -14.5q15 -8 28 -13t29 -5q21 0 36.5 9.5t29.5 21.5q4 3 6.5 2t2.5 -4v-61q0 -10 -8 -19
q-14 -15 -32.5 -24.5t-39.5 -9.5z" />
    <glyph glyph-name="macron" unicode="&#xaf;" horiz-adv-x="422" 
d="M79 587q-10 0 -10 10v61q0 10 10 10h263q10 0 10 -10v-61q0 -10 -10 -10h-263z" />
    <glyph glyph-name="breve" unicode="&#x2d8;" horiz-adv-x="422" 
d="M211 554q-65 0 -103 33.5t-42 87.5q0 10 9 10h49q9 0 12 -10q15 -45 75 -45t75 45q3 10 12 10h49q9 0 9 -10q-4 -54 -42 -87.5t-103 -33.5z" />
    <glyph glyph-name="dotaccent" unicode="&#x2d9;" horiz-adv-x="422" 
d="M164 573q-10 0 -10 10v87q0 10 10 10h93q10 0 10 -10v-87q0 -10 -10 -10h-93z" />
    <glyph glyph-name="ring" unicode="&#x2da;" horiz-adv-x="422" 
d="M211 529q-43 0 -71 28.5t-28 71.5t28 71.5t71 28.5t71 -28.5t28 -71.5t-28 -71.5t-71 -28.5zM211 578q21 0 35 14.5t14 36.5t-14 36.5t-35 14.5t-35 -14.5t-14 -36.5t14 -36.5t35 -14.5z" />
    <glyph glyph-name="cedilla" unicode="&#xb8;" horiz-adv-x="422" 
d="M146 -155q-10 0 -7 10l59 145q4 10 13 10h68q10 0 7 -10l-46 -145q-3 -10 -16 -10h-78z" />
    <glyph glyph-name="hungarumlaut" unicode="&#x2dd;" horiz-adv-x="422" 
d="M219 555q-11 0 -6 10l65 125q5 10 16 10h78q5 0 6 -3t-1 -7l-77 -125q-6 -10 -16 -10h-65zM61 555q-11 0 -6 10l65 125q5 10 16 10h78q5 0 6 -3t-1 -7l-77 -125q-6 -10 -16 -10h-65z" />
    <glyph glyph-name="ogonek" unicode="&#x2db;" horiz-adv-x="422" 
d="M200 -190q-43 0 -69.5 22t-26.5 66q0 31 16.5 55t49.5 47q14 10 25 10h81q5 0 6 -4t-4 -6q-45 -26 -64 -45.5t-19 -37.5q0 -26 24 -26q7 0 12 2t13 6q9 4 13 -4l24 -50q5 -8 -4 -13q-15 -11 -36 -16.5t-41 -5.5z" />
    <glyph glyph-name="caron" unicode="&#x2c7;" horiz-adv-x="422" 
d="M181 553q-11 0 -18 10l-98 125q-3 4 -2 7t6 3h63q7 0 11 -2t10 -8l57 -59h2l57 59q6 6 10 8t11 2h63q5 0 6 -3t-2 -7l-98 -125q-7 -10 -18 -10h-60z" />
    <glyph glyph-name="Lslash" unicode="&#x141;" horiz-adv-x="545" 
d="M85 0q-10 0 -10 10v249l-51 -26q-10 -5 -10 6v81q0 9 10 14l51 26v310q0 10 10 10h98q10 0 10 -10v-252l127 66q10 5 10 -6v-81q0 -9 -10 -14l-127 -66v-205q0 -6 6 -6h312q10 0 10 -10v-86q0 -10 -10 -10h-426z" />
    <glyph glyph-name="Scaron" unicode="&#x160;" horiz-adv-x="587" 
d="M289 -11q-38 0 -74 7t-68.5 19t-60 28.5t-47.5 35.5q-8 8 -2 15l62 72q7 8 14 1q16 -13 36.5 -26t44 -23t49.5 -16.5t55 -6.5q61 0 94.5 27.5t33.5 70.5q0 37 -27 60.5t-97 33.5l-36 5q-99 14 -152 61.5t-53 132.5q0 46 16 84t46 65t72.5 41.5t95.5 14.5
q64 0 121.5 -18.5t98.5 -49.5q7 -6 2 -14l-48 -74q-6 -8 -14 -3q-42 27 -81 40t-82 13q-52 0 -79.5 -25.5t-27.5 -65.5q0 -35 28 -58.5t97 -33.5l36 -5q99 -14 151 -61.5t52 -135.5q0 -45 -16 -84t-48.5 -67t-80.5 -44t-111 -16zM266 751q-11 0 -18 10l-98 125q-3 4 -2 7
t6 3h63q7 0 11 -2t10 -8l57 -59h2l57 59q6 6 10 8t11 2h63q5 0 6 -3t-2 -7l-98 -125q-7 -10 -18 -10h-60z" />
    <glyph glyph-name="Yacute" unicode="&#xdd;" horiz-adv-x="536" 
d="M219 0q-10 0 -10 10v268l-197 392q-4 10 8 10h101q10 0 14 -10l133 -264h3l134 264q4 10 14 10h97q12 0 8 -10l-197 -392v-268q0 -10 -10 -10h-98zM226 761q-5 0 -6 3t2 7l88 107q8 10 19 10h98q5 0 7 -3t-2 -7l-117 -109q-5 -5 -9 -6.5t-9 -1.5h-71z" />
    <glyph glyph-name="Zcaron" unicode="&#x17d;" horiz-adv-x="532" 
d="M236 751q-11 0 -18 10l-98 125q-3 4 -2 7t6 3h63q7 0 11 -2t10 -8l57 -59h2l57 59q6 6 10 8t11 2h63q5 0 6 -3t-2 -7l-98 -125q-7 -10 -18 -10h-60zM55 0q-10 0 -10 10v86q0 5 3 11l307 465v2h-289q-10 0 -10 10v86q0 10 10 10h412q10 0 10 -10v-86q0 -6 -3 -10
l-307 -466v-2h300q10 0 10 -10v-86q0 -10 -10 -10h-423z" />
    <glyph glyph-name="Eth" unicode="&#xd0;" horiz-adv-x="625" 
d="M85 0q-10 0 -10 10v282q0 6 -6 6h-26q-10 0 -10 10v70q0 10 10 10h26q6 0 6 6v276q0 10 10 10h243q178 0 227 -151q4 -13 7 -27.5t5.5 -35.5t3.5 -51.5t1 -74.5t-1 -74.5t-3.5 -51.5t-5.5 -35.5t-7 -27.5q-49 -151 -227 -151h-243zM300 106q57 0 91.5 20t49.5 66
q3 7 5 17.5t3.5 27t2.5 41.5t1 62t-1 62t-2.5 42t-3.5 27t-5 17q-15 46 -49.5 66t-91.5 20h-101q-6 0 -6 -6v-174q0 -6 6 -6h97q10 0 10 -10v-70q0 -10 -10 -10h-97q-6 0 -6 -6v-180q0 -6 6 -6h101z" />
    <glyph glyph-name="Thorn" unicode="&#xde;" horiz-adv-x="598" 
d="M85 0q-10 0 -10 10v660q0 10 10 10h98q10 0 10 -10v-98q0 -6 6 -6h141q49 0 90.5 -15t71 -43t46 -66.5t16.5 -86.5t-16.5 -87t-46 -66.5t-71 -43t-90.5 -15.5h-141q-6 0 -6 -6v-127q0 -10 -10 -10h-98zM333 250q53 0 83 28.5t30 76.5t-30 76.5t-83 28.5h-134q-6 0 -6 -6
v-198q0 -6 6 -6h134z" />
    <glyph glyph-name="lslash" unicode="&#x142;" horiz-adv-x="291" 
d="M183 334v-196q0 -25 10 -34.5t32 -9.5h22q10 0 10 -10v-80q0 -10 -10 -10h-44q-71 0 -101.5 34t-30.5 104v151l-33 -17q-10 -5 -10 6v74q0 10 10 15l33 17v292q0 10 10 10h92q10 0 10 -10v-241l64 33q10 5 10 -6v-74q0 -10 -10 -15z" />
    <glyph glyph-name="scaron" unicode="&#x161;" horiz-adv-x="498" 
d="M220 553q-11 0 -18 10l-98 125q-3 4 -2 7t6 3h63q7 0 11 -2t10 -8l57 -59h2l57 59q6 6 10 8t11 2h63q5 0 6 -3t-2 -7l-98 -125q-7 -10 -18 -10h-60zM251 -11q-74 0 -125.5 24t-81.5 52q-7 7 0 14l57 60q7 7 14 0q26 -24 64.5 -39.5t76.5 -15.5q45 0 67 16t22 41
q0 22 -16.5 35t-63.5 18l-52 5q-74 8 -111 44t-37 98q0 70 48 111t139 41q57 0 103 -16.5t78 -42.5q8 -6 2 -14l-49 -59q-6 -7 -14 -2q-23 16 -56.5 28t-69.5 12t-54.5 -14t-18.5 -36q0 -21 16 -33.5t63 -17.5l52 -5q76 -8 112.5 -44.5t36.5 -96.5q0 -72 -51 -117.5
t-151 -45.5z" />
    <glyph glyph-name="yacute" unicode="&#xfd;" horiz-adv-x="485" 
d="M90 -180q-10 0 -10 10v80q0 10 10 10h18q29 0 45 13.5t27 43.5l14 41l-176 454q-3 10 8 10h99q9 0 12 -10l109 -315h2l104 315q3 10 12 10h95q11 0 8 -10l-184 -502q-16 -43 -32 -71.5t-35 -46t-42 -25t-53 -7.5h-31zM203 555q-11 0 -6 10l75 125q6 10 18 10h91
q5 0 6.5 -3t-1.5 -7l-95 -125q-9 -10 -20 -10h-68z" />
    <glyph glyph-name="zcaron" unicode="&#x17e;" horiz-adv-x="485" 
d="M215 553q-11 0 -18 10l-98 125q-3 4 -2 7t6 3h63q7 0 11 -2t10 -8l57 -59h2l57 59q6 6 10 8t11 2h63q5 0 6 -3t-2 -7l-98 -125q-7 -10 -18 -10h-60zM62 0q-10 0 -10 10v73q0 5 3 10l246 289v2h-226q-10 0 -10 10v78q0 10 10 10h348q10 0 10 -10v-78q0 -6 -3 -10
l-243 -284v-2h236q10 0 10 -10v-78q0 -10 -10 -10h-361z" />
    <glyph glyph-name="eth" unicode="&#xf0;" horiz-adv-x="523" 
d="M338 560l24 -32q57 -77 86 -146t29 -143q0 -42 -4 -68.5t-11 -47.5q-21 -64 -74 -99t-126 -35q-75 0 -126.5 34.5t-72.5 98.5q-7 21 -11.5 48t-4.5 55q0 29 4 57.5t11 49.5q20 60 64 93.5t104 33.5q39 0 65 -17h2l-63 87l-91 -28q-10 -3 -13 6l-17 58q-3 10 7 13l65 19
l-53 73q-2 4 -0.5 7t6.5 3h99q11 0 18 -10l31 -42l92 28q10 3 13 -6l17 -58q3 -10 -7 -13zM365 226q0 20 -2.5 41t-7.5 38q-11 31 -34.5 46.5t-58.5 15.5q-33 0 -57.5 -15.5t-35.5 -46.5q-5 -17 -7.5 -38t-2.5 -41t2.5 -40.5t7.5 -37.5q11 -31 35.5 -46.5t57.5 -15.5
t57.5 15.5t35.5 46.5q5 17 7.5 37.5t2.5 40.5z" />
    <glyph glyph-name="thorn" unicode="&#xfe;" horiz-adv-x="545" 
d="M83 -180q-10 0 -10 10v840q0 10 10 10h92q10 0 10 -10v-234h1q17 25 48 41t80 16q62 0 105 -29t62 -87q9 -28 13 -57.5t4 -78.5t-4 -78.5t-13 -57.5q-19 -58 -62 -87t-105 -29q-49 0 -80 16t-48 41h-1v-216q0 -10 -10 -10h-92zM285 89q69 0 89 62q5 17 7.5 37t2.5 53
t-2.5 53t-7.5 37q-20 62 -89 62q-70 0 -90 -62q-5 -17 -7.5 -37t-2.5 -53t2.5 -53t7.5 -37q20 -62 90 -62z" />
    <glyph glyph-name="brokenbar" unicode="&#xa6;" horiz-adv-x="330" 
d="M129 388q-10 0 -10 10v332q0 10 10 10h72q10 0 10 -10v-332q0 -10 -10 -10h-72zM129 -84q-10 0 -10 10v336q0 10 10 10h72q10 0 10 -10v-336q0 -10 -10 -10h-72z" />
    <glyph glyph-name="currency" unicode="&#xa4;" 
d="M455 91q-7 -7 -14 0l-59 59q-23 -14 -50.5 -22t-57.5 -8t-57.5 8t-50.5 22l-58 -58q-6 -6 -14 0l-53 54q-7 7 0 14l58 59q-13 23 -20 49t-7 55q0 58 28 105l-59 60q-6 6 0 14l53 54q8 6 14 0l59 -59q23 14 50 21.5t57 7.5t57 -7.5t50 -21.5l59 59q7 7 14 0l53 -54
q6 -8 0 -14l-59 -59q14 -23 21.5 -50t7.5 -56q0 -57 -28 -105l59 -59q6 -6 0 -14zM274 208q49 0 80.5 33t31.5 82t-31.5 82t-80.5 33t-80 -33t-31 -82t31 -82t80 -33z" />
    <glyph glyph-name="uni00B9" unicode="&#xb9;" horiz-adv-x="349" 
d="M166 430q-10 0 -10 10v294h-2l-63 -41q-4 -2 -7 0t-3 7v72q0 10 8 15l62 42q10 7 17 7h65q10 0 10 -10v-386q0 -10 -10 -10h-67z" />
    <glyph glyph-name="uni00B2" unicode="&#xb2;" horiz-adv-x="349" 
d="M52 430q-10 0 -10 10v57q0 8 6 14l144 158q11 11 19 25.5t8 29.5q0 20 -11.5 31.5t-31.5 11.5t-32.5 -10t-16.5 -32q-2 -10 -11 -8l-65 14q-10 2 -8 11q2 15 11 33t25.5 33.5t40.5 25.5t57 10q30 0 54 -9t41 -25.5t26 -38.5t9 -47q0 -30 -11.5 -53.5t-32.5 -46.5
l-109 -116v-1h143q10 0 10 -10v-57q0 -10 -10 -10h-245z" />
    <glyph glyph-name="uni00B3" unicode="&#xb3;" horiz-adv-x="349" 
d="M176 422q-51 0 -90 21.5t-50 69.5q-1 5 0.5 8.5t6.5 4.5l64 16q7 1 12 -8q7 -14 21 -24.5t34 -10.5q23 0 37.5 13.5t14.5 36.5t-15 36.5t-42 13.5h-20q-10 0 -10 10v57q0 10 10 10h15q24 0 38 11.5t14 33.5q0 46 -46 46q-20 0 -30.5 -7.5t-17.5 -21.5q-4 -8 -13 -6
l-60 14q-9 1 -7 12q9 36 42.5 61t87.5 25q63 0 97.5 -32t34.5 -84q0 -21 -9 -43t-32 -40v-1q17 -7 34 -31.5t17 -61.5q0 -60 -37.5 -94.5t-100.5 -34.5z" />
    <glyph glyph-name="onequarter" unicode="&#xbc;" horiz-adv-x="841" 
d="M176 274q-10 0 -10 10v294h-2l-63 -41q-4 -2 -7 0t-3 7v72q0 10 8 15l62 42q10 7 17 7h65q10 0 10 -10v-386q0 -10 -10 -10h-67zM643 0q-10 0 -10 10v44q0 6 -6 6h-162q-10 0 -10 10v55q0 8 4 15l124 256q5 10 14 10h72q11 0 6 -10l-122 -260v-1h74q6 0 6 6v82
q0 10 10 10h64q10 0 10 -10v-82q0 -6 6 -6h17q10 0 10 -10v-55q0 -10 -10 -10h-17q-6 0 -6 -6v-44q0 -10 -10 -10h-64zM173 -11q-5 0 -6 3t1 7l395 682q6 10 16 10h65q5 0 6.5 -3t-0.5 -7l-395 -682q-6 -10 -16 -10h-66z" />
    <glyph glyph-name="onehalf" unicode="&#xbd;" horiz-adv-x="881" 
d="M176 274q-10 0 -10 10v294h-2l-63 -41q-4 -2 -7 0t-3 7v72q0 10 8 15l62 42q10 7 17 7h65q10 0 10 -10v-386q0 -10 -10 -10h-67zM535 0q-10 0 -10 10v57q0 8 6 14l144 158q11 11 19 25.5t8 29.5q0 20 -11.5 31.5t-31.5 11.5t-32.5 -10t-16.5 -32q-2 -10 -11 -8l-65 14
q-10 2 -8 11q2 15 11 33t25.5 33.5t40.5 25.5t57 10q30 0 54 -9t41 -25.5t26 -38.5t9 -47q0 -30 -11.5 -53.5t-32.5 -46.5l-109 -116v-1h143q10 0 10 -10v-57q0 -10 -10 -10h-245zM173 -11q-5 0 -6 3t1 7l395 682q6 10 16 10h65q5 0 6.5 -3t-0.5 -7l-395 -682
q-6 -10 -16 -10h-66z" />
    <glyph glyph-name="threequarters" unicode="&#xbe;" horiz-adv-x="914" 
d="M716 0q-10 0 -10 10v44q0 6 -6 6h-162q-10 0 -10 10v55q0 8 4 15l124 256q5 10 14 10h72q11 0 6 -10l-122 -260v-1h74q6 0 6 6v82q0 10 10 10h64q10 0 10 -10v-82q0 -6 6 -6h17q10 0 10 -10v-55q0 -10 -10 -10h-17q-6 0 -6 -6v-44q0 -10 -10 -10h-64zM248 -11q-5 0 -6 3
t1 7l395 682q6 10 16 10h65q5 0 6.5 -3t-0.5 -7l-395 -682q-6 -10 -16 -10h-66zM231 266q-51 0 -90 21.5t-50 69.5q-1 5 0.5 8.5t6.5 4.5l64 16q7 1 12 -8q7 -14 21 -24.5t34 -10.5q23 0 37.5 13.5t14.5 36.5t-15 36.5t-42 13.5h-20q-10 0 -10 10v57q0 10 10 10h15
q24 0 38 11.5t14 33.5q0 46 -46 46q-20 0 -30.5 -7.5t-17.5 -21.5q-4 -8 -13 -6l-60 14q-9 1 -7 12q9 36 42.5 61t87.5 25q63 0 97.5 -32t34.5 -84q0 -21 -9 -43t-32 -40v-1q17 -7 34 -31.5t17 -61.5q0 -60 -37.5 -94.5t-100.5 -34.5z" />
    <glyph glyph-name="minus" unicode="&#x2212;" 
d="M65 227q-10 0 -10 10v78q0 10 10 10h419q10 0 10 -10v-78q0 -10 -10 -10h-419z" />
    <glyph glyph-name="multiply" unicode="&#xd7;" 
d="M410 87q-7 -7 -14 0l-118 116q-4 4 -8 0l-117 -116q-7 -7 -14 0l-53 54q-7 7 0 14l116 117q4 4 0 8l-116 117q-7 7 0 14l53 54q7 7 14 0l117 -116q4 -5 9 0l117 116q7 7 14 0l53 -54q7 -7 0 -14l-117 -116q-5 -5 0 -9l117 -117q7 -7 0 -14z" />
    <glyph glyph-name="estimated" unicode="&#x212e;" horiz-adv-x="599" 
d="M298 -11q-54 0 -97 20t-73.5 54t-47 80t-16.5 99t16.5 99t47 79.5t73.5 53t97 19.5q53 0 96.5 -18.5t74.5 -51.5t48.5 -79.5t17.5 -101.5h-369v-166q54 -52 132 -52q57 0 99.5 25.5t75.5 83.5l33 -21q-42 -64 -89 -93.5t-119 -29.5zM432 407q-60 55 -134 55
q-79 0 -132 -55v-132h266v132z" />
    <glyph glyph-name="afii61289" unicode="&#x2113;" horiz-adv-x="508" 
d="M445 37q-33 -25 -70.5 -38.5t-75.5 -13.5q-68 0 -106.5 35.5t-38.5 98.5v111l-74 -69l-26 38l99 87v272q0 41 12 75t33.5 58.5t50 38t61.5 13.5q59 0 93.5 -36.5t34.5 -99.5q0 -78 -49 -157t-147 -170v-143q0 -28 7.5 -46.5t20 -29.5t28 -15.5t31.5 -4.5q44 0 90 33z
M374 599q0 41 -18 68.5t-46 27.5q-29 0 -48.5 -29t-19.5 -86v-247q69 75 100.5 143t31.5 123z" />
    </font>
</defs>
</svg>
