<svg xmlns="http://www.w3.org/2000/svg" viewBox="0 0 22.086 21.993"><defs><style>.a{fill:#97246b;}</style></defs><path class="a" d="M1504.957,415.5v-2.378h1.265v-8.948a2.54,2.54,0,0,0,1.165.292,2.428,2.428,0,0,1,4.325,0,2.417,2.417,0,0,1,4.313,0,2.415,2.415,0,0,1,4.31,0,2.41,2.41,0,0,1,4.3,0,2.394,2.394,0,0,0,1.215-.335v8.991h1.19V415.5Zm3.718-3.641h4.909v-6.092h-4.909Zm7.362-2.452h7.362v-3.641h-7.362Zm-11.056-7.282,0,0v0Zm17.454-.074-1.449-4.9h-3.4l.658,4.9H1513.8l.673-4.9h-3.3l-1.563,4.9h-4.6l2.466-4.9V393.5h17.178v3.641l2.369,4.9Z" transform="translate(-1504.957 -393.503)"/></svg>