<svg xmlns="http://www.w3.org/2000/svg" viewBox="0 0 24 18.026"><defs><style>.a{fill:#97246b;}</style></defs><path class="a" d="M1506.046,323.013a1.724,1.724,0,0,1-.773-.167.569.569,0,0,1-.339-.55,1.324,1.324,0,0,1,.4-.845l4.292-5.069a4.326,4.326,0,0,1,1.539-1.109,4.435,4.435,0,0,1,1.833-.454h13.9a1.718,1.718,0,0,1,.772.166.568.568,0,0,1,.338.55,1.32,1.32,0,0,1-.4.846l-4.291,5.069a4.335,4.335,0,0,1-1.539,1.108,4.438,4.438,0,0,1-1.833.454Zm-2.038-2.708c0-.073-.006-.127-.006-.16V307.855a2.883,2.883,0,0,1,2.862-2.868h4.087a2.883,2.883,0,0,1,2.861,2.868v.409h6.948a2.881,2.881,0,0,1,2.861,2.867v2.048h-10.626a6.629,6.629,0,0,0-4.612,2.138l-4.3,5.069-.064.077C1504.015,320.431,1504.013,320.377,1504.008,320.3Z" transform="translate(-1504.002 -304.987)"/></svg>