<svg xmlns="http://www.w3.org/2000/svg" viewBox="0 0 21.972 24.999"><defs><style>.a{fill:#97246b;}</style></defs><path class="a" d="M1505.747,371.5a.732.732,0,0,1-.733-.733V351.627a.732.732,0,0,1,.733-.733H1518.2v20.238a.367.367,0,0,1-.366.366Zm1.464-5.224a.732.732,0,0,0,.733.733h7.324a.733.733,0,0,0,0-1.465h-7.324A.732.732,0,0,0,1507.211,366.275Zm0-2.93a.732.732,0,0,0,.733.733h7.324a.733.733,0,0,0,0-1.465h-7.324A.732.732,0,0,0,1507.211,363.345Zm0-4.395a.732.732,0,0,0,.733.733h7.324a.733.733,0,0,0,0-1.465h-.733a2.926,2.926,0,0,0-2.2-2.825v-.836a.733.733,0,1,0-1.465,0v.836a2.926,2.926,0,0,0-2.2,2.825h-.733A.732.732,0,0,0,1507.211,358.951Zm12.451,8.057v-2.93h3.662a.733.733,0,0,0,0-1.465h-3.662v-1.464h3.662a.733.733,0,0,0,0-1.465h-3.662v-1.465h3.662a.732.732,0,1,0,0-1.464h-3.662v-1.464h3.662a.733.733,0,0,0,0-1.465h-3.662v-3.662a.788.788,0,0,0-.4-.654l-5.971-3.008h12.965a.733.733,0,0,1,.733.733v19.042a.733.733,0,0,1-.733.733Zm-9.521-8.789a1.465,1.465,0,0,1,2.93,0Zm2.2-8.789v-1.767l3.508,1.767Z" transform="translate(-1505.014 -346.5)"/></svg>