<svg xmlns="http://www.w3.org/2000/svg" viewBox="0 0 22.001 22.001"><defs><style>.a{fill:#97246b;}</style></defs><path class="a" d="M1523.2,503.941l-7.278-8.134-1.039,1.038-7.873-7.868a4.5,4.5,0,0,1-1.264-2.878,7.213,7.213,0,0,1,.525-3.19l.16-.409h.788l10.085,10.079,8.632,8.627a1.935,1.935,0,0,1,0,2.736,1.916,1.916,0,0,1-1.363.559A1.944,1.944,0,0,1,1523.2,503.941Zm-18.132-.021a1.937,1.937,0,0,1,0-2.736l6.167-6.162,2.738,2.736-6.167,6.162a1.91,1.91,0,0,1-1.361.562A1.953,1.953,0,0,1,1505.072,503.921Zm11.224-14.179a1.831,1.831,0,0,0,.132-.581,3.223,3.223,0,0,1,.939-2.086l4.563-4.559.912.912-3.5,3.5.913.912,3.5-3.5.913.913-3.5,3.5.913.912,3.5-3.5.913.912-4.562,4.559a3.221,3.221,0,0,1-2.087.938,1.883,1.883,0,0,0-.582.132Z" transform="translate(-1504.506 -482.499)"/></svg>