<svg xmlns="http://www.w3.org/2000/svg" viewBox="0 0 21.496 22.003"><defs><style>.a{fill:#97246b;}</style></defs><path class="a" d="M1507.214,460.5a1.981,1.981,0,0,1-1.97-1.984v-15.6a1.98,1.98,0,0,1,1.913-1.97v2.661a2.174,2.174,0,0,0,2.177,2.173h1.373a2.185,2.185,0,0,0,2.19-2.173v-2.671h6.189v2.671a2.184,2.184,0,0,0,2.19,2.173h1.373a2.174,2.174,0,0,0,2.177-2.173v-2.661a1.98,1.98,0,0,1,1.913,1.97v15.6a1.984,1.984,0,0,1-1.97,1.984Zm.544-11.012v8.057a.852.852,0,0,0,.851.852h14.728a.852.852,0,0,0,.852-.852v-8.057a.853.853,0,0,0-.852-.853h-14.728A.852.852,0,0,0,1507.757,449.489Zm11.715,7.745a.5.5,0,0,1-.5-.5v-1.742a.5.5,0,0,1,.5-.5h1.741a.5.5,0,0,1,.5.5v1.742a.5.5,0,0,1-.5.5Zm-4.352,0a.5.5,0,0,1-.5-.5v-1.742a.5.5,0,0,1,.5-.5h1.742a.5.5,0,0,1,.5.5v1.742a.5.5,0,0,1-.5.5Zm-4.351,0a.5.5,0,0,1-.5-.5v-1.742a.5.5,0,0,1,.5-.5h1.741a.5.5,0,0,1,.5.5v1.742a.5.5,0,0,1-.5.5Zm8.7-4.355a.5.5,0,0,1-.5-.5v-1.742a.5.5,0,0,1,.5-.5h1.741a.5.5,0,0,1,.5.5v1.742a.5.5,0,0,1-.5.5Zm-4.352,0a.5.5,0,0,1-.5-.5v-1.742a.5.5,0,0,1,.5-.5h1.742a.5.5,0,0,1,.5.5v1.742a.5.5,0,0,1-.5.5Zm-4.351,0a.5.5,0,0,1-.5-.5v-1.742a.5.5,0,0,1,.5-.5h1.741a.5.5,0,0,1,.5.5v1.742a.5.5,0,0,1-.5.5Zm10.49-8.524a.747.747,0,0,1-.747-.746v-4.364a.748.748,0,0,1,.747-.747h1.358a.747.747,0,0,1,.746.747v4.364a.746.746,0,0,1-.746.746Zm-11.93,0a.746.746,0,0,1-.746-.746v-4.364a.747.747,0,0,1,.746-.747h1.358a.747.747,0,0,1,.747.747v4.364a.746.746,0,0,1-.747.746Z" transform="translate(-1505.244 -438.498)"/></svg>