<svg xmlns="http://www.w3.org/2000/svg" viewBox="0 0 18.263 22.001"><defs><style>.a{fill:#97246b;}</style></defs><path class="a" d="M1507.691,550a1.367,1.367,0,0,1-1.37-1.375v-19.25a1.366,1.366,0,0,1,1.37-1.375h7.763v7.791a1.366,1.366,0,0,0,1.37,1.375h7.761v11.459a1.366,1.366,0,0,1-1.369,1.375Zm2.412-5.371a.443.443,0,0,0-.129.329v.917a.44.44,0,0,0,.456.457h10.045a.44.44,0,0,0,.456-.457v-.917a.442.442,0,0,0-.456-.459H1510.43A.444.444,0,0,0,1510.1,544.629Zm0-3.667a.44.44,0,0,0-.129.329v.916a.45.45,0,0,0,.129.33.444.444,0,0,0,.328.129h10.045a.442.442,0,0,0,.328-.129.447.447,0,0,0,.129-.33v-.916a.442.442,0,0,0-.456-.459H1510.43A.441.441,0,0,0,1510.1,540.962Zm7.176-5.629v-7.291a3.46,3.46,0,0,1,1.884.932l4.452,4.469a3.494,3.494,0,0,1,.928,1.891Z" transform="translate(-1506.321 -527.999)"/></svg>