<svg 
 xmlns="http://www.w3.org/2000/svg"
 xmlns:xlink="http://www.w3.org/1999/xlink"
 width="27px" height="30px">
<path fill-rule="evenodd"  fill="rgb(147, 145, 159)"
 d="M13.007,30.000 C14.689,30.000 16.063,28.652 16.063,26.996 L9.943,26.996 C9.943,28.652 11.326,30.000 13.007,30.000 L13.007,30.000 ZM22.953,20.998 L22.953,12.752 C22.953,8.100 19.739,4.350 15.301,3.304 L15.301,2.248 C15.301,1.048 14.232,-0.000 13.007,-0.000 C11.781,-0.000 10.714,1.048 10.714,2.248 L10.714,3.304 C6.273,4.350 3.061,8.100 3.061,12.752 L3.061,20.998 L-0.003,24.002 L-0.003,25.504 L26.018,25.504 L26.018,24.002 L22.953,20.998 Z"/>
</svg>