<svg 
 xmlns="http://www.w3.org/2000/svg"
 xmlns:xlink="http://www.w3.org/1999/xlink"
 width="33px" height="19px">
<path fill-rule="evenodd"  fill="rgb(151, 36, 107)"
 d="M32.723,17.653 C32.485,17.922 32.137,18.077 31.770,18.077 L8.234,18.077 L8.032,16.873 L7.829,15.669 L5.732,3.225 L5.529,2.021 L5.327,0.817 L29.269,0.817 C29.882,0.817 30.405,1.245 30.503,1.828 L33.005,16.680 C33.064,17.029 32.961,17.384 32.723,17.653 ZM25.516,8.243 L13.006,8.243 C12.315,8.243 11.755,8.782 11.755,9.447 C11.755,10.112 12.315,10.651 13.006,10.651 L25.516,10.651 C26.206,10.651 26.767,10.112 26.767,9.447 C26.767,8.782 26.206,8.243 25.516,8.243 ZM5.700,18.077 L1.748,18.077 C1.381,18.077 1.033,17.922 0.795,17.653 C0.558,17.384 0.454,17.029 0.513,16.680 L2.989,1.984 L3.622,5.746 L4.256,9.507 L5.294,15.669 L5.497,16.873 L5.700,18.077 Z"/>
</svg>