<svg 
 xmlns="http://www.w3.org/2000/svg"
 xmlns:xlink="http://www.w3.org/1999/xlink"
 width="20px" height="21px">
<path fill-rule="evenodd"  fill="rgb(253, 231, 76)"
 d="M6.939,19.761 C4.532,18.829 0.894,17.421 0.894,11.180 L0.894,6.569 C0.894,5.614 1.741,4.735 2.748,4.691 C3.625,4.653 4.270,5.327 4.270,6.180 L4.270,11.258 C4.270,11.828 4.493,12.358 4.928,12.683 C5.308,12.967 5.781,13.080 6.292,13.010 C6.395,12.996 6.499,12.975 6.603,12.946 C7.580,12.677 8.317,11.697 8.317,10.665 L8.317,4.531 C8.317,3.629 9.073,2.795 10.005,2.668 L10.011,2.667 L10.017,2.666 C10.949,2.540 11.705,3.168 11.705,4.070 L11.705,10.204 C11.705,11.236 12.441,12.016 13.418,12.019 C13.522,12.020 13.627,12.013 13.729,11.999 C14.240,11.929 14.714,11.688 15.093,11.301 C15.528,10.857 15.752,10.266 15.752,9.696 L15.752,1.956 C15.752,1.103 16.396,0.254 17.274,0.053 C18.280,-0.176 19.127,0.472 19.127,1.427 L19.127,8.700 C19.127,14.942 15.490,17.339 13.083,18.926 C11.196,20.020 9.141,20.267 6.939,19.761 Z"/>
</svg>