<svg 
 xmlns="http://www.w3.org/2000/svg"
 xmlns:xlink="http://www.w3.org/1999/xlink"
 width="19px" height="21px">
<path fill-rule="evenodd"  fill="rgb(232, 231, 239)"
 d="M6.057,19.761 C3.650,18.829 0.012,17.421 0.012,11.180 L0.012,6.569 C0.012,5.614 0.860,4.735 1.866,4.691 C2.744,4.653 3.388,5.327 3.388,6.180 L3.388,11.258 C3.388,11.828 3.611,12.358 4.047,12.683 C4.426,12.967 4.899,13.080 5.411,13.010 C5.513,12.996 5.618,12.975 5.722,12.946 C6.699,12.677 7.435,11.697 7.435,10.665 L7.435,4.531 C7.435,3.629 8.191,2.795 9.123,2.668 L9.129,2.667 L9.135,2.666 C10.067,2.540 10.823,3.168 10.823,4.070 L10.823,10.204 C10.823,11.236 11.559,12.016 12.536,12.019 C12.640,12.020 12.744,12.013 12.847,11.999 C13.359,11.929 13.832,11.688 14.212,11.301 C14.647,10.857 14.870,10.266 14.870,9.696 L14.870,1.956 C14.870,1.103 15.514,0.254 16.392,0.053 C17.399,-0.176 18.245,0.472 18.245,1.427 L18.245,8.700 C18.245,14.942 14.608,17.339 12.201,18.926 C10.314,20.020 8.260,20.267 6.057,19.761 Z"/>
</svg>