<svg 
 xmlns="http://www.w3.org/2000/svg"
 xmlns:xlink="http://www.w3.org/1999/xlink"
 width="76px" height="82px">
<path fill-rule="evenodd"  fill="rgb(178, 176, 191)"
 d="M74.917,49.429 C74.115,50.409 72.952,50.918 71.778,50.918 C70.873,50.918 69.962,50.616 69.208,49.995 L50.441,34.584 L55.592,28.307 L74.352,43.711 C76.084,45.133 76.338,47.694 74.917,49.429 ZM40.329,38.305 C38.680,40.320 35.711,40.613 33.700,38.961 L22.162,29.484 C20.149,27.830 19.856,24.858 21.506,22.844 L27.390,15.656 L26.763,15.140 C25.031,13.717 24.777,11.157 26.197,9.422 C27.617,7.686 30.174,7.432 31.907,8.856 L32.536,9.371 L38.430,2.172 C40.079,0.157 43.048,-0.137 45.060,1.516 L56.598,10.993 C58.611,12.646 58.903,15.619 57.254,17.635 L40.329,38.305 ZM31.435,59.831 L31.435,74.113 L34.531,74.113 C36.622,74.113 38.317,75.810 38.317,77.906 C38.317,79.999 36.622,81.698 34.531,81.698 L4.375,81.698 C2.285,81.698 0.589,79.999 0.589,77.906 C0.589,75.810 2.285,74.113 4.375,74.113 L7.471,74.113 L7.471,59.831 C7.471,57.226 9.580,55.113 12.182,55.113 L26.724,55.113 C29.326,55.113 31.435,57.226 31.435,59.831 Z"/>
</svg>