<svg 
 xmlns="http://www.w3.org/2000/svg"
 xmlns:xlink="http://www.w3.org/1999/xlink"
 width="58px" height="82px">
<path fill-rule="evenodd"  fill="rgb(178, 176, 191)"
 d="M52.565,52.235 C55.088,48.010 56.763,42.666 57.088,37.378 C57.293,33.985 56.538,30.422 54.901,27.072 C52.333,21.809 47.924,18.853 43.664,15.997 C40.484,13.865 37.479,11.853 35.356,8.978 L34.974,8.465 C33.719,6.778 32.301,4.865 32.076,3.259 C31.852,1.634 30.377,0.477 28.766,0.571 C27.129,0.684 25.861,2.040 25.861,3.684 L25.861,59.372 C23.244,57.785 20.021,56.810 16.491,56.810 C7.883,56.810 0.875,62.416 0.875,69.310 C0.875,76.204 7.883,81.810 16.491,81.810 C25.099,81.810 32.108,76.204 32.108,69.310 L32.108,32.884 C36.798,34.678 44.476,39.247 46.587,49.916 C46.193,50.497 45.818,51.122 45.382,51.622 C44.238,52.916 44.363,54.891 45.662,56.029 C46.949,57.179 48.923,57.041 50.066,55.747 C50.903,54.797 51.647,53.685 52.359,52.522 C52.433,52.435 52.503,52.341 52.565,52.235 Z"/>
</svg>