<svg 
 xmlns="http://www.w3.org/2000/svg"
 xmlns:xlink="http://www.w3.org/1999/xlink"
 width="60px" height="82px">
<path fill-rule="evenodd"  fill="rgb(178, 176, 191)"
 d="M59.247,79.162 C59.247,72.138 53.729,66.390 46.789,65.957 C47.975,63.483 48.611,60.760 48.611,57.966 C48.611,52.779 46.457,48.089 43.000,44.720 L45.952,44.720 C50.351,44.720 53.929,41.154 53.929,36.771 C53.929,32.388 50.351,28.823 45.952,28.823 L37.486,28.823 C37.784,27.990 37.976,27.107 37.976,26.174 C37.976,25.240 37.784,24.357 37.486,23.524 L43.293,23.524 C44.762,23.524 45.952,22.338 45.952,20.875 C45.952,19.411 44.762,18.225 43.293,18.225 L38.815,18.225 L40.823,11.024 C41.644,8.571 41.244,5.961 39.727,3.863 C38.209,1.766 35.852,0.563 33.257,0.563 L26.741,0.563 C24.146,0.563 21.788,1.766 20.270,3.863 C18.754,5.961 18.354,8.571 19.134,10.897 L21.181,18.225 L16.704,18.225 C15.236,18.225 14.045,19.411 14.045,20.875 C14.045,22.338 15.236,23.524 16.704,23.524 L22.512,23.524 C22.214,24.357 22.022,25.240 22.022,26.174 C22.022,27.054 22.201,27.887 22.467,28.679 C13.245,27.584 6.069,19.755 6.069,10.277 L6.069,3.212 C6.069,1.749 4.877,0.563 3.409,0.563 C1.942,0.563 0.751,1.749 0.751,3.212 L0.751,10.277 C0.751,22.707 10.349,32.933 22.545,34.014 C22.223,34.877 22.022,35.798 22.022,36.771 C22.022,37.705 22.214,38.588 22.512,39.421 L16.704,39.421 C15.236,39.421 14.045,40.607 14.045,42.070 C14.045,43.534 15.236,44.720 16.704,44.720 L16.997,44.720 C13.541,48.089 11.386,52.779 11.386,57.966 C11.386,60.760 12.022,63.483 13.209,65.957 C6.268,66.390 0.751,72.138 0.751,79.162 C0.751,80.625 1.942,81.811 3.409,81.811 L56.588,81.811 C58.056,81.811 59.247,80.625 59.247,79.162 ZM37.486,34.122 L45.952,34.122 C47.419,34.122 48.611,35.310 48.611,36.771 C48.611,38.232 47.419,39.421 45.952,39.421 L37.486,39.421 C37.784,38.588 37.976,37.705 37.976,36.771 C37.976,35.838 37.784,34.955 37.486,34.122 ZM29.999,23.524 C31.465,23.524 32.658,24.713 32.658,26.174 C32.658,27.635 31.465,28.823 29.999,28.823 C28.533,28.823 27.340,27.635 27.340,26.174 C27.340,24.713 28.533,23.524 29.999,23.524 ZM29.999,34.122 C31.465,34.122 32.658,35.310 32.658,36.771 C32.658,38.232 31.465,39.421 29.999,39.421 C28.533,39.421 27.340,38.232 27.340,36.771 C27.340,35.310 28.533,34.122 29.999,34.122 ZM6.524,76.512 C7.621,73.428 10.578,71.213 14.045,71.213 L45.952,71.213 C49.419,71.213 52.376,73.428 53.474,76.512 L6.524,76.512 Z"/>
</svg>