<svg 
 xmlns="http://www.w3.org/2000/svg"
 xmlns:xlink="http://www.w3.org/1999/xlink"
 width="30px" height="30px">
<path fill-rule="evenodd"  fill="rgb(147, 145, 159)"
 d="M9.002,24.002 C7.354,24.002 5.998,25.350 5.998,26.996 C5.998,28.652 7.354,30.000 9.002,30.000 C10.650,30.000 11.996,28.652 11.996,26.996 C11.996,25.350 10.650,24.002 9.002,24.002 L9.002,24.002 ZM-0.000,-0.000 L-0.000,3.004 L3.004,3.004 L8.400,14.400 L6.298,18.004 C6.152,18.450 5.998,19.050 5.998,19.496 C5.998,21.152 7.354,22.500 9.002,22.500 L26.996,22.500 L26.996,19.496 L9.602,19.496 C9.448,19.496 9.302,19.350 9.302,19.196 L9.302,19.050 L10.650,16.502 L21.754,16.502 C22.946,16.502 23.848,15.900 24.302,15.000 L29.700,5.252 C30.000,4.952 30.000,4.798 30.000,4.496 C30.000,3.604 29.400,3.004 28.498,3.004 L6.298,3.004 L4.952,-0.000 L-0.000,-0.000 ZM24.002,24.002 C22.354,24.002 20.998,25.350 20.998,26.996 C20.998,28.652 22.354,30.000 24.002,30.000 C25.650,30.000 26.996,28.652 26.996,26.996 C26.996,25.350 25.650,24.002 24.002,24.002 L24.002,24.002 Z"/>
</svg>