<svg 
 xmlns="http://www.w3.org/2000/svg"
 xmlns:xlink="http://www.w3.org/1999/xlink"
 width="33px" height="24px">
<path fill-rule="evenodd"  fill="rgb(151, 36, 107)"
 d="M30.929,15.858 C31.912,16.711 32.534,17.956 32.534,19.342 C32.534,21.908 30.406,23.995 27.790,23.995 C25.174,23.995 23.047,21.908 23.047,19.342 C23.047,19.116 23.064,18.894 23.096,18.676 L22.681,18.676 C21.991,18.676 21.353,18.336 20.974,17.767 C20.596,17.199 20.538,16.491 20.816,15.873 C21.044,15.367 21.353,14.865 21.736,14.380 C22.301,13.663 22.286,12.661 21.698,11.940 L21.200,11.329 L18.252,18.268 C18.243,18.288 18.233,18.306 18.224,18.325 C18.221,18.329 18.219,18.333 18.216,18.338 C18.209,18.351 18.201,18.364 18.192,18.376 C18.189,18.381 18.186,18.386 18.183,18.390 C18.173,18.404 18.163,18.417 18.153,18.430 C18.151,18.432 18.149,18.434 18.147,18.437 C18.134,18.452 18.121,18.466 18.107,18.480 C18.104,18.483 18.100,18.487 18.096,18.490 C18.086,18.500 18.075,18.510 18.064,18.519 C18.059,18.523 18.053,18.528 18.048,18.532 C18.038,18.540 18.027,18.547 18.017,18.555 C18.011,18.559 18.005,18.563 17.999,18.567 C17.984,18.576 17.969,18.586 17.954,18.594 C17.946,18.598 17.938,18.602 17.930,18.606 C17.921,18.610 17.912,18.615 17.902,18.619 C17.894,18.623 17.885,18.627 17.875,18.630 C17.866,18.634 17.856,18.637 17.847,18.640 C17.838,18.643 17.829,18.647 17.821,18.649 C17.803,18.654 17.786,18.658 17.769,18.662 C17.762,18.664 17.754,18.665 17.747,18.666 C17.733,18.669 17.720,18.671 17.707,18.672 C17.700,18.673 17.693,18.674 17.686,18.674 C17.666,18.676 17.646,18.677 17.625,18.677 L12.882,18.677 L12.149,18.677 C12.185,18.901 12.204,19.121 12.204,19.342 C12.204,21.908 10.076,23.995 7.461,23.995 C4.845,23.995 2.717,21.908 2.717,19.342 C2.717,19.121 2.736,18.901 2.772,18.677 L2.040,18.677 C0.919,18.677 0.006,17.783 0.006,16.684 C0.006,15.326 0.463,14.027 1.294,13.025 C1.407,12.891 1.527,12.754 1.656,12.621 C1.903,12.364 2.311,12.342 2.586,12.568 C3.215,13.086 3.963,13.360 4.750,13.360 L13.397,13.360 C13.598,13.360 13.787,13.446 13.916,13.597 C14.045,13.747 14.099,13.946 14.065,14.139 C13.858,15.299 13.708,16.574 13.627,17.348 L17.174,17.348 L20.291,10.010 L19.271,7.006 L21.382,5.763 C21.702,5.574 21.807,5.166 21.614,4.851 C21.422,4.537 21.007,4.435 20.684,4.624 L18.830,5.715 L18.830,5.715 L17.296,6.618 C17.188,6.683 17.067,6.713 16.948,6.713 C16.717,6.713 16.494,6.599 16.366,6.390 C16.174,6.075 16.278,5.667 16.598,5.479 L18.391,4.423 L18.154,3.724 C17.967,3.175 18.024,2.569 18.307,2.062 C18.590,1.556 19.081,1.184 19.653,1.044 C20.644,0.804 21.647,1.270 22.082,2.160 C22.302,1.994 22.560,1.878 22.838,1.823 L24.947,1.409 C25.173,1.364 25.409,1.437 25.570,1.602 C25.730,1.767 25.794,2.001 25.737,2.222 L25.059,4.880 C24.983,5.177 24.712,5.384 24.402,5.384 L23.493,5.384 L25.702,10.440 C25.740,10.535 26.325,12.031 27.790,12.031 C29.861,12.031 32.534,13.320 32.534,14.689 C32.534,14.934 32.429,15.171 32.238,15.353 C31.984,15.595 31.503,15.755 30.929,15.858 ZM9.377,18.677 L5.544,18.677 C5.469,18.886 5.428,19.109 5.428,19.342 C5.428,20.442 6.340,21.336 7.461,21.336 C8.582,21.336 9.494,20.442 9.494,19.342 C9.494,19.109 9.452,18.886 9.377,18.677 ZM27.790,17.348 C26.669,17.348 25.757,18.243 25.757,19.342 C25.757,20.442 26.669,21.336 27.790,21.336 C28.911,21.336 29.823,20.442 29.823,19.342 C29.823,18.243 28.911,17.348 27.790,17.348 ZM14.237,12.031 L4.750,12.031 C3.629,12.031 2.717,11.136 2.717,10.037 C2.717,8.937 3.629,8.043 4.750,8.043 L14.237,8.043 C15.358,8.043 16.270,8.937 16.270,10.037 C16.270,11.136 15.358,12.031 14.237,12.031 Z"/>
</svg>