<svg 
 xmlns="http://www.w3.org/2000/svg"
 xmlns:xlink="http://www.w3.org/1999/xlink"
 width="26px" height="23px">
<path fill-rule="evenodd"  fill="rgb(151, 36, 107)"
 d="M18.446,22.998 C14.276,22.998 10.896,21.471 10.896,19.588 L10.896,18.849 C10.896,18.610 10.952,18.376 11.055,18.151 C11.769,19.699 14.806,20.862 18.446,20.862 C22.085,20.862 25.123,19.699 25.836,18.151 C25.940,18.376 25.995,18.610 25.995,18.849 L25.995,19.588 C25.995,21.471 22.615,22.998 18.446,22.998 ZM18.446,19.191 C14.276,19.191 10.896,17.665 10.896,15.782 L10.896,15.043 C10.896,14.803 10.952,14.570 11.055,14.344 C11.769,15.892 14.806,17.056 18.446,17.056 C22.085,17.056 25.123,15.892 25.836,14.344 C25.940,14.570 25.995,14.803 25.995,15.043 L25.995,15.782 C25.995,17.665 22.615,19.191 18.446,19.191 ZM18.446,15.180 C14.276,15.180 10.896,13.653 10.896,11.770 L10.896,11.031 C10.896,10.791 10.952,10.558 11.055,10.332 C11.769,11.880 14.806,13.043 18.446,13.043 C22.085,13.043 25.123,11.880 25.836,10.332 C25.940,10.558 25.995,10.791 25.995,11.031 L25.995,11.770 C25.995,13.653 22.615,15.180 18.446,15.180 ZM18.446,11.373 C14.276,11.373 10.896,9.847 10.896,7.964 L10.896,7.224 C10.896,6.985 10.952,6.751 11.055,6.526 C11.769,8.074 14.806,9.237 18.446,9.237 C22.085,9.237 25.123,8.074 25.836,6.526 C25.940,6.751 25.995,6.985 25.995,7.224 L25.995,7.964 C25.995,9.847 22.615,11.373 18.446,11.373 ZM18.446,7.567 C14.276,7.567 10.896,6.040 10.896,4.157 L10.896,3.418 C10.896,1.535 14.276,0.008 18.446,0.008 C22.615,0.008 25.995,1.535 25.995,3.418 L25.995,4.157 C25.995,6.040 22.615,7.567 18.446,7.567 ZM0.012,17.544 L0.012,16.805 C0.012,16.566 0.067,16.332 0.171,16.107 C0.884,17.655 3.921,18.818 7.561,18.818 C8.291,18.818 8.997,18.770 9.665,18.683 L9.665,18.849 L9.665,19.588 C9.665,20.002 9.760,20.401 9.946,20.780 C9.196,20.892 8.395,20.954 7.561,20.954 C3.392,20.954 0.012,19.427 0.012,17.544 ZM0.012,13.738 L0.012,12.998 C0.012,12.759 0.067,12.526 0.171,12.300 C0.884,13.848 3.921,15.011 7.561,15.011 C8.291,15.011 8.997,14.964 9.665,14.876 L9.665,17.013 C8.997,17.100 8.291,17.147 7.561,17.147 C3.392,17.147 0.012,15.621 0.012,13.738 ZM0.012,9.932 L0.012,9.192 C0.012,7.309 3.392,5.783 7.561,5.783 C8.291,5.783 8.997,5.830 9.665,5.917 L9.665,13.207 C8.997,13.294 8.291,13.341 7.561,13.341 C3.392,13.341 0.012,11.815 0.012,9.932 Z"/>
</svg>