<svg 
 xmlns="http://www.w3.org/2000/svg"
 xmlns:xlink="http://www.w3.org/1999/xlink"
 width="18px" height="23px">
<path fill-rule="evenodd"  fill="rgb(151, 36, 107)"
 d="M16.068,14.294 L9.000,22.998 L1.933,14.294 C0.719,12.791 -0.007,10.892 -0.007,8.831 C-0.007,3.966 4.034,0.009 9.000,0.009 C13.967,0.009 18.008,3.966 18.008,8.831 C18.008,10.892 17.282,12.791 16.068,14.294 ZM9.000,4.742 C6.765,4.742 4.946,6.523 4.946,8.713 C4.946,10.903 6.765,12.684 9.000,12.684 C11.236,12.684 13.055,10.903 13.055,8.713 C13.055,6.523 11.236,4.742 9.000,4.742 ZM9.000,11.096 C7.659,11.096 6.568,10.027 6.568,8.713 C6.568,7.400 7.659,6.330 9.000,6.330 C10.342,6.330 11.433,7.400 11.433,8.713 C11.433,10.027 10.342,11.096 9.000,11.096 Z"/>
</svg>