<svg 
 xmlns="http://www.w3.org/2000/svg"
 xmlns:xlink="http://www.w3.org/1999/xlink"
 width="32px" height="30px">
<path fill-rule="evenodd"  fill="rgb(147, 145, 159)"
 d="M31.414,21.658 C31.234,21.819 31.022,21.945 30.784,22.023 C30.601,22.082 30.407,22.117 30.202,22.117 L19.490,22.117 C18.499,22.117 17.694,21.331 17.694,20.363 L17.694,16.457 C17.694,15.488 18.499,14.702 19.490,14.702 L30.202,14.702 C30.407,14.702 30.601,14.737 30.784,14.797 C31.022,14.878 31.234,15.000 31.414,15.162 C31.773,15.481 31.999,15.944 31.999,16.457 L31.999,20.363 C31.999,20.875 31.773,21.338 31.414,21.658 ZM23.242,18.176 C23.242,17.692 22.840,17.299 22.344,17.299 L21.747,17.299 C21.539,17.299 21.348,17.373 21.194,17.489 C20.982,17.646 20.848,17.896 20.848,18.176 L20.848,18.759 C20.848,19.243 21.251,19.636 21.747,19.636 L22.344,19.636 C22.840,19.636 23.242,19.243 23.242,18.759 L23.242,18.176 ZM19.124,13.505 C18.413,13.586 17.776,13.909 17.302,14.386 C16.767,14.923 16.436,15.657 16.436,16.464 L16.436,20.366 C16.436,22.012 17.805,23.349 19.490,23.349 L30.152,23.349 L30.152,28.245 C30.152,29.214 29.347,30.000 28.356,30.000 L1.796,30.000 C0.804,30.000 -0.000,29.214 -0.000,28.245 L-0.000,8.694 C-0.000,8.536 0.025,8.381 0.064,8.234 C0.129,7.999 0.243,7.785 0.394,7.599 C0.725,7.195 1.232,6.939 1.800,6.939 L28.359,6.939 C29.351,6.939 30.156,7.725 30.152,8.694 L30.152,13.484 L19.487,13.484 C19.365,13.484 19.242,13.491 19.124,13.505 ZM20.723,3.272 L23.720,2.472 C23.878,2.429 24.036,2.408 24.194,2.408 C24.985,2.408 25.711,2.921 25.926,3.703 L26.487,5.711 L11.571,5.711 L20.723,3.272 ZM5.731,5.711 L17.151,0.184 C18.039,-0.248 19.117,0.110 19.559,0.977 L20.234,2.310 L7.477,5.711 L5.731,5.711 Z"/>
</svg>