<svg 
 xmlns="http://www.w3.org/2000/svg"
 xmlns:xlink="http://www.w3.org/1999/xlink"
 width="115px" height="76px">
<path fill-rule="evenodd"  fill="rgb(151, 36, 107)"
 d="M115.000,23.750 L115.000,4.750 C115.000,2.127 112.854,-0.000 110.208,-0.000 L4.791,-0.000 C2.145,-0.000 -0.000,2.127 -0.000,4.750 L-0.000,71.250 C-0.000,73.873 2.145,76.000 4.791,76.000 L110.208,76.000 C112.854,76.000 115.000,73.873 115.000,71.250 L115.000,52.250 C107.061,52.250 100.624,45.869 100.624,38.000 C100.624,30.130 107.061,23.750 115.000,23.750 L115.000,23.750 ZM28.750,71.250 L19.166,71.250 L19.166,57.000 L28.750,57.000 L28.750,71.250 ZM28.750,47.500 L19.166,47.500 L19.166,28.500 L28.750,28.500 L28.750,47.500 ZM28.750,19.000 L19.166,19.000 L19.166,4.750 L28.750,4.750 L28.750,19.000 ZM84.488,36.859 L75.967,44.091 L81.526,55.393 C82.687,57.752 81.699,60.595 79.320,61.743 C77.850,62.455 76.119,62.374 74.725,61.530 L62.291,54.013 L49.858,61.530 C47.601,62.896 44.650,62.188 43.272,59.948 C42.420,58.566 42.341,56.849 43.057,55.393 L48.616,44.091 L40.095,36.859 C38.085,35.152 37.851,32.153 39.573,30.161 C40.483,29.107 41.812,28.500 43.212,28.500 L54.068,28.500 L57.753,17.715 C58.602,15.231 61.323,13.900 63.828,14.742 C65.242,15.215 66.350,16.314 66.830,17.715 L70.515,28.500 L77.363,28.500 C79.832,28.500 82.902,28.006 84.799,29.931 C86.645,31.847 86.577,34.883 84.645,36.715 C84.593,36.764 84.541,36.810 84.488,36.859 L84.488,36.859 Z"/>
</svg>