<svg 
 xmlns="http://www.w3.org/2000/svg"
 xmlns:xlink="http://www.w3.org/1999/xlink"
 width="125px" height="116px">
<path fill-rule="evenodd"  fill="rgb(151, 36, 107)"
 d="M124.627,63.277 C124.082,64.964 122.882,66.383 121.304,67.195 L113.067,71.385 L87.892,19.240 L96.128,15.028 C97.084,14.548 98.076,14.318 99.068,14.318 C101.503,14.318 103.834,15.696 104.992,18.092 L124.285,58.062 C125.074,59.690 125.198,61.569 124.627,63.277 ZM92.555,7.603 L92.150,7.812 L92.316,3.413 L99.213,3.686 C101.607,3.787 103.632,5.185 104.707,7.187 C102.962,6.435 101.057,6.018 99.068,6.018 C96.819,6.018 94.565,6.563 92.555,7.603 ZM63.854,22.218 L60.141,21.514 C59.798,21.450 59.492,21.199 59.352,20.868 L55.031,10.897 C54.849,10.502 54.481,10.251 54.055,10.230 C53.650,10.208 53.265,10.438 53.042,10.817 L47.969,20.409 C47.808,20.740 47.486,20.948 47.117,20.991 L36.570,22.138 C36.144,22.181 35.802,22.469 35.656,22.870 C35.495,23.286 35.599,23.724 35.879,24.033 L43.186,31.960 C43.347,32.147 43.425,32.398 43.445,32.649 L22.876,43.111 L24.522,0.659 L84.242,3.077 L83.894,12.002 L63.854,22.218 ZM105.844,75.079 L44.359,106.417 L19.189,54.267 L80.669,22.928 L105.844,75.079 ZM78.805,51.224 C78.519,50.930 78.072,50.808 77.688,50.952 L65.926,54.896 C65.578,55.019 65.214,54.955 64.908,54.726 L55.073,47.013 C54.746,46.740 54.299,46.698 53.915,46.906 C53.551,47.098 53.307,47.493 53.307,47.909 L53.349,60.629 C53.349,61.003 53.162,61.355 52.861,61.569 L42.698,68.801 C42.350,69.052 42.168,69.469 42.230,69.906 C42.293,70.323 42.573,70.680 42.983,70.803 L54.746,74.721 C55.093,74.828 55.374,75.121 55.477,75.474 L59.004,87.649 C59.128,88.066 59.471,88.380 59.897,88.445 C60.302,88.525 60.733,88.359 60.972,88.007 L68.216,77.705 C68.439,77.390 68.782,77.224 69.151,77.224 L81.521,77.518 C81.931,77.539 82.315,77.310 82.517,76.915 C82.699,76.536 82.678,76.077 82.413,75.703 L74.790,64.964 L79.070,52.414 C79.209,51.998 79.111,51.539 78.805,51.224 ZM6.710,51.368 C5.293,51.117 3.974,50.413 2.977,49.308 C1.782,47.995 1.154,46.239 1.232,44.429 L2.697,6.563 C2.836,2.810 5.901,-0.110 9.551,0.035 L16.447,0.328 L14.640,47.327 L6.710,51.368 ZM3.709,62.172 L11.945,57.960 L37.121,110.105 L28.884,114.317 C27.929,114.797 26.937,115.027 25.940,115.027 C23.525,115.027 21.173,113.628 20.020,111.232 L0.728,71.262 C-0.046,69.656 -0.186,67.782 0.380,66.068 C0.951,64.382 2.146,62.962 3.709,62.172 Z"/>
</svg>