<svg 
 xmlns="http://www.w3.org/2000/svg"
 xmlns:xlink="http://www.w3.org/1999/xlink"
 width="80px" height="82px">
<path fill-rule="evenodd"  fill="rgb(178, 176, 191)"
 d="M77.162,81.811 C75.697,81.811 74.508,80.625 74.508,79.162 L74.508,74.746 L63.889,74.746 L63.889,79.162 C63.889,80.625 62.700,81.811 61.235,81.811 C59.769,81.811 58.581,80.625 58.581,79.162 C58.581,72.207 58.581,73.705 58.581,66.798 C58.581,62.415 62.153,58.849 66.544,58.849 L74.508,58.849 L74.508,45.603 C74.508,44.139 75.697,42.953 77.162,42.953 C78.627,42.953 79.816,44.139 79.816,45.603 C79.816,57.236 79.816,67.041 79.816,79.162 C79.816,80.625 78.627,81.811 77.162,81.811 ZM77.162,37.654 L61.235,37.654 L61.235,21.758 C61.235,15.562 58.541,9.995 54.279,6.116 C68.653,7.924 79.816,20.176 79.816,35.005 C79.816,36.468 78.627,37.654 77.162,37.654 ZM55.926,37.654 L42.654,37.654 L42.654,42.953 L37.344,42.953 L37.344,37.654 L24.072,37.654 L24.072,21.758 C24.072,13.897 29.824,7.368 37.344,6.101 L37.344,3.212 C37.344,1.749 38.534,0.563 39.999,0.563 C41.465,0.563 42.654,1.749 42.654,3.212 L42.654,6.101 C50.174,7.368 55.926,13.897 55.926,21.758 L55.926,37.654 ZM18.763,21.758 L18.763,37.654 L2.836,37.654 C1.370,37.654 0.181,36.468 0.181,35.005 C0.181,20.176 11.345,7.924 25.718,6.116 C21.457,9.995 18.763,15.562 18.763,21.758 ZM2.836,42.953 C4.301,42.953 5.490,44.139 5.490,45.603 L5.490,58.849 L13.454,58.849 C17.845,58.849 21.417,62.415 21.417,66.798 C21.417,73.711 21.417,72.214 21.417,79.162 C21.417,80.625 20.228,81.811 18.763,81.811 C17.297,81.811 16.108,80.625 16.108,79.162 L16.108,74.746 L5.490,74.746 L5.490,79.162 C5.490,80.625 4.301,81.811 2.836,81.811 C1.370,81.811 0.181,80.625 0.181,79.162 C0.181,67.040 0.181,57.238 0.181,45.603 C0.181,44.139 1.370,42.953 2.836,42.953 ZM24.072,48.252 C34.706,48.252 45.288,48.252 55.926,48.252 C57.391,48.252 58.581,49.438 58.581,50.901 C58.581,52.365 57.391,53.551 55.926,53.551 L47.962,53.551 L47.962,56.200 C47.962,59.650 45.737,62.563 42.654,63.660 L42.654,76.512 L45.308,76.512 C46.773,76.512 47.962,77.698 47.962,79.162 C47.962,80.625 46.773,81.811 45.308,81.811 L34.690,81.811 C33.224,81.811 32.035,80.625 32.035,79.162 C32.035,77.698 33.224,76.512 34.690,76.512 L37.344,76.512 L37.344,63.660 C34.261,62.563 32.035,59.650 32.035,56.200 L32.035,53.551 L24.072,53.551 C22.607,53.551 21.417,52.365 21.417,50.901 C21.417,49.438 22.607,48.252 24.072,48.252 Z"/>
</svg>