<svg 
 xmlns="http://www.w3.org/2000/svg"
 xmlns:xlink="http://www.w3.org/1999/xlink"
 width="112px" height="100px">
<path fill-rule="evenodd"  fill="rgb(151, 36, 107)"
 d="M109.188,99.992 L74.899,99.992 L74.899,74.776 C74.899,68.503 70.609,63.214 64.804,61.672 C67.822,59.143 69.744,55.353 69.744,51.122 C69.744,46.474 67.424,42.360 63.883,39.863 C64.317,38.655 65.002,37.538 65.920,36.576 C67.705,34.703 70.115,33.672 72.704,33.672 L102.644,33.672 C105.234,33.672 107.644,34.703 109.429,36.576 C111.215,38.448 112.127,40.902 111.999,43.484 L109.188,99.992 ZM87.675,27.810 C79.995,27.810 73.747,21.574 73.747,13.909 C73.747,6.243 79.995,0.007 87.675,0.007 C95.355,0.007 101.602,6.243 101.602,13.909 C101.602,21.574 95.355,27.810 87.675,27.810 ZM55.939,60.519 C50.747,60.519 46.524,56.304 46.524,51.122 C46.524,45.940 50.747,41.725 55.939,41.725 C61.130,41.725 65.354,45.940 65.354,51.122 C65.354,56.304 61.130,60.519 55.939,60.519 ZM47.073,61.672 C41.268,63.214 36.978,68.503 36.978,74.776 L36.978,99.992 L0.011,99.992 L2.692,57.829 C2.999,53.001 7.192,49.073 12.039,49.073 L37.543,49.073 C39.201,49.073 40.782,49.533 42.158,50.331 C42.143,50.593 42.134,50.856 42.134,51.122 C42.134,55.353 44.056,59.143 47.073,61.672 ZM12.633,21.086 C12.633,14.394 18.087,8.950 24.791,8.950 C31.495,8.950 36.949,14.394 36.949,21.086 L36.949,42.122 L12.633,42.122 L12.633,21.086 ZM50.562,65.599 L61.315,65.599 C66.385,65.599 70.509,69.715 70.509,74.776 L70.509,99.992 L66.161,99.992 L49.571,99.992 L41.368,99.992 L41.368,74.776 C41.368,69.715 45.493,65.599 50.562,65.599 Z"/>
</svg>