<svg xmlns="http://www.w3.org/2000/svg" viewBox="0 0 111.507 99.999"><defs><style>.a{fill:#97246b;}</style></defs><path class="a" d="M474.126,415.5a13.965,13.965,0,0,1-13.63-11.962l-6.041-44.29a5.181,5.181,0,0,1,.962-3.773c.086-.117.174-.224.27-.333a4.662,4.662,0,0,1,.43-.424,5.167,5.167,0,0,1,3.485-1.32h22.846a5.213,5.213,0,0,0,3.4-1.293c.135-.118.263-.265.386-.4l5.389-5.75,2.116-2.261c.047-.049.095-.1.142-.148a5.2,5.2,0,0,1,3.647-1.506h63.191a5.222,5.222,0,0,1,5.189,5.37c0,.145-.013.293-.03.44L562.968,373.1l-3.481,30.173a14.161,14.161,0,0,1-.355,1.921A13.791,13.791,0,0,1,545.819,415.5Zm-7.65-71.786V320.666a5.119,5.119,0,0,1,5.131-5.166h77.11a5.225,5.225,0,0,1,5.255,5.166v11.7H497.532a14.978,14.978,0,0,0-10.865,4.738l-6.173,6.614Z" transform="translate(-454.407 -315.5)"/></svg>