<svg xmlns="http://www.w3.org/2000/svg" viewBox="0 0 22.041 22.008"><defs><style>.a{fill:#97246b;}</style></defs><path class="a" d="M1519.967,595.075a10.472,10.472,0,0,1-4-1.164,21.816,21.816,0,0,1-7.229-5.647,19.842,19.842,0,0,1-3.527-5.866,7.578,7.578,0,0,1-.587-3.265,2.651,2.651,0,0,1,.835-1.79c.559-.532,1.086-1.085,1.637-1.626a1.557,1.557,0,0,1,2.335,0c.445.436.881.879,1.321,1.319s.853.851,1.279,1.282a1.548,1.548,0,0,1,.005,2.387c-.537.54-1.069,1.08-1.615,1.607a.335.335,0,0,0-.083.431,9.655,9.655,0,0,0,1.463,2.34,16.9,16.9,0,0,0,4.081,3.709c.34.211.716.366,1.069.559a.321.321,0,0,0,.449-.082c.536-.55,1.083-1.09,1.628-1.631a1.546,1.546,0,0,1,2.335,0q1.315,1.305,2.624,2.615a1.556,1.556,0,0,1-.009,2.372c-.495.5-1.022.975-1.49,1.5a2.862,2.862,0,0,1-2.262.965Q1520.1,595.082,1519.967,595.075Zm-1.114-14.242a5.845,5.845,0,0,0-3.34-1.662l.239-1.7a7.592,7.592,0,0,1,6.426,6.223l-1.692.288A5.838,5.838,0,0,0,1518.853,580.832Zm3.068-2.981a10.827,10.827,0,0,0-6.183-3.078l.238-1.7a12.607,12.607,0,0,1,10.669,10.328l-1.692.288A10.8,10.8,0,0,0,1521.921,577.851Z" transform="translate(-1504.604 -573.074)"/></svg>