<svg xmlns="http://www.w3.org/2000/svg" viewBox="0 0 22.992 22.011"><defs><style>.a{fill:#97246b;}</style></defs><path class="a" d="M1517.637,279v-6.041h-4.284V279h-3.794a2.409,2.409,0,0,1-2.375-2.441v-5.746a.678.678,0,0,1,.19-.471l7.664-7.877a.634.634,0,0,1,.915,0l7.663,7.877a.674.674,0,0,1,.189.471v5.746a2.408,2.408,0,0,1-2.374,2.441Zm7.1-10.148-8.714-8.959a.762.762,0,0,0-1.067,0l-8.711,8.958a1.294,1.294,0,0,1-1.865,0,1.383,1.383,0,0,1,0-1.916l8.713-8.958a3.4,3.4,0,0,1,4.792,0l2.595,2.667v-1.428a1.319,1.319,0,1,1,2.636,0v4.138l3.484,3.583a1.383,1.383,0,0,1,0,1.916,1.294,1.294,0,0,1-1.865,0Z" transform="translate(-1504 -256.988)"/></svg>