<svg xmlns="http://www.w3.org/2000/svg" viewBox="0 0 22.023 22.002"><defs><style>.a{fill:#97246b;}</style></defs><path class="a" d="M1515.145,639.983l-9.176-1.833a.917.917,0,0,1-.738-.9V618.915c0-.018.013-.034.014-.053a.45.45,0,0,1,0-.079.887.887,0,0,1,.072-.215.6.6,0,0,1,.026-.076.9.9,0,0,1,.244-.29c.007-.005.01-.015.017-.022s.044-.015.065-.028a.9.9,0,0,1,.266-.113.794.794,0,0,1,.123-.022.837.837,0,0,1,.094-.017h14.683a.916.916,0,0,1,.917.916v5.5a.918.918,0,0,1-1.835,0v-4.584H1512.4l3.187.956a.917.917,0,0,1,.654.878v14.669h3.67V631.75a.918.918,0,0,1,1.835,0v5.5a.916.916,0,0,1-.917.917h-4.588v.917a.917.917,0,0,1-.918.916A.869.869,0,0,1,1515.145,639.983Zm7.79-8.5a.914.914,0,0,1,0-1.3l1.186-1.186H1519a.917.917,0,1,1,0-1.833h5.125l-1.186-1.185a.917.917,0,0,1,1.3-1.3l2.752,2.749a.939.939,0,0,1,.2.3.919.919,0,0,1-.2,1l-2.752,2.75a.919.919,0,0,1-1.3,0Z" transform="translate(-1505.23 -617.999)"/></svg>