<svg 
 xmlns="http://www.w3.org/2000/svg"
 xmlns:xlink="http://www.w3.org/1999/xlink"
 width="22px" height="22px">
<path fill-rule="evenodd"  fill="rgb(151, 36, 107)"
 d="M11.000,-0.000 C4.952,-0.000 -0.000,4.953 -0.000,11.000 C-0.000,17.047 4.952,22.000 11.000,22.000 C17.047,22.000 22.000,17.047 22.000,11.000 C22.000,4.953 17.047,-0.000 11.000,-0.000 L11.000,-0.000 ZM11.000,3.297 C12.869,3.297 14.297,4.731 14.297,6.601 C14.297,8.470 12.869,9.899 11.000,9.899 C9.131,9.899 7.703,8.470 7.703,6.601 C7.703,4.731 9.131,3.297 11.000,3.297 L11.000,3.297 ZM11.000,18.923 C8.250,18.923 5.827,17.489 4.398,15.399 C4.398,13.203 8.797,11.989 11.000,11.989 C13.203,11.989 17.601,13.203 17.601,15.399 C16.173,17.489 13.750,18.923 11.000,18.923 L11.000,18.923 Z"/>
</svg>