<svg xmlns="http://www.w3.org/2000/svg" viewBox="0 0 87.888 99.998"><defs><style>.a{fill:#97246b;}</style></defs><path class="a" d="M1068.986,415a2.931,2.931,0,0,1-2.93-2.93V335.508a2.931,2.931,0,0,1,2.93-2.93h49.8v80.954a1.466,1.466,0,0,1-1.465,1.466Zm5.858-20.9a2.929,2.929,0,0,0,2.93,2.93h29.3a2.929,2.929,0,1,0,0-5.858h-29.3A2.927,2.927,0,0,0,1074.844,394.1Zm0-11.718a2.927,2.927,0,0,0,2.93,2.929h29.3a2.929,2.929,0,1,0,0-5.858h-29.3A2.929,2.929,0,0,0,1074.844,382.381Zm0-17.578a2.929,2.929,0,0,0,2.93,2.93h29.3a2.93,2.93,0,0,0,0-5.861h-2.929a11.7,11.7,0,0,0-8.789-11.3v-3.345a2.93,2.93,0,0,0-5.859,0v3.345a11.7,11.7,0,0,0-8.788,11.3h-2.93A2.929,2.929,0,0,0,1074.844,364.8Zm49.8,32.225V385.31H1139.3a2.929,2.929,0,1,0,0-5.858h-14.648v-5.859H1139.3a2.93,2.93,0,0,0,0-5.859h-14.648v-5.861H1139.3a2.929,2.929,0,1,0,0-5.858h-14.648v-5.859H1139.3a2.929,2.929,0,1,0,0-5.858h-14.648v-14.65a3.148,3.148,0,0,0-1.61-2.616L1099.152,315h51.863a2.93,2.93,0,0,1,2.929,2.93V394.1a2.93,2.93,0,0,1-2.929,2.93Zm-38.084-35.156a5.859,5.859,0,0,1,11.718,0Zm8.788-35.154V319.65l14.034,7.069Z" transform="translate(-1066.055 -315)"/></svg>